<svg width="64" height="64" viewBox="0 0 64 64" fill="none" xmlns="http://www.w3.org/2000/svg">
<rect width="64" height="64" rx="12" fill="white"/>
<path fill-rule="evenodd" clip-rule="evenodd" d="M39.9187 42.1064H39.1911V38.2261C39.1911 35.6917 37.741 33.4936 35.6294 32.4057C37.7626 31.3067 39.1911 29.0998 39.1911 26.5854V22.7051H39.9187C40.3203 22.7051 40.6462 22.3794 40.6462 21.9775C40.6462 21.5757 40.3203 21.25 39.9187 21.25H25.3677C24.966 21.25 24.6401 21.5757 24.6401 21.9776C24.6401 22.3795 24.966 22.7051 25.3677 22.7051H26.0953V26.5854C26.0953 29.0995 27.5233 31.3066 29.657 32.4058C27.5453 33.4936 26.0953 35.6917 26.0953 38.2261V42.1064H25.3677C24.966 42.1064 24.6401 42.4321 24.6401 42.834C24.6401 43.2359 24.966 43.5616 25.3677 43.5616H39.9187C40.3203 43.5616 40.6462 43.2359 40.6462 42.834C40.6462 42.432 40.3203 42.1064 39.9187 42.1064ZM27.572 27.018C27.5679 26.9701 27.5645 26.93 27.5616 26.8899C27.5467 26.6829 27.547 26.4748 27.5486 25.1937C27.5493 24.6155 27.5503 23.8189 27.5503 22.7051H37.736C37.736 23.8189 37.737 24.6156 37.7377 25.1938C37.7393 26.4748 37.7396 26.6829 37.7247 26.8899C37.7219 26.93 37.7184 26.9701 37.7143 27.018L37.7137 27.0244H27.5726L27.572 27.018ZM33.5275 37.8784C33.8918 38.0291 34.1943 38.3292 37.736 41.2807V38.2261C37.736 35.6656 35.8347 33.5463 33.3707 33.1914V34.1033C33.3707 34.5052 33.0448 34.8309 32.6432 34.8309C32.2415 34.8309 31.9156 34.5052 31.9156 34.1033V33.1914C29.4516 33.5463 27.5503 35.6656 27.5503 38.2261V41.2806C31.1024 38.3205 31.4011 38.0256 31.7604 37.8776C31.8084 37.8579 31.8575 37.8407 31.9156 37.8202V37.0135C31.9156 36.6116 32.2415 36.286 32.6432 36.286C33.0448 36.286 33.3707 36.6116 33.3707 37.0135V37.8202C33.4293 37.8409 33.4789 37.8583 33.5275 37.8784Z" fill="#726F6F"/>
</svg>
