<svg width="64" height="64" viewBox="0 0 64 64" fill="none" xmlns="http://www.w3.org/2000/svg">
    <rect width="64" height="64" rx="12" fill="#726F6F"/>
    <g clip-path="url(#clip0_123_2991)">
        <path d="M21 29.3516C21 34.5078 25.1953 38.7031 30.3516 38.7031C32.3906 38.7031 34.2539 38.0469 35.7891 36.9453L41.5547 42.7227C41.8242 42.9922 42.1758 43.1211 42.5508 43.1211C43.3477 43.1211 43.8984 42.5234 43.8984 41.7383C43.8984 41.3633 43.7578 41.0234 43.5117 40.7773L37.7812 35.0117C38.9883 33.4414 39.7031 31.4844 39.7031 29.3516C39.7031 24.1953 35.5078 20 30.3516 20C25.1953 20 21 24.1953 21 29.3516ZM23.0039 29.3516C23.0039 25.2969 26.2969 22.0039 30.3516 22.0039C34.4062 22.0039 37.6992 25.2969 37.6992 29.3516C37.6992 33.4062 34.4062 36.6992 30.3516 36.6992C26.2969 36.6992 23.0039 33.4062 23.0039 29.3516Z"
              fill="#3EAEFF"/>
    </g>
    <defs>
        <clipPath id="clip0_123_2991">
            <rect width="22.8984" height="23.1211" fill="white" transform="translate(21 20)"/>
        </clipPath>
    </defs>
</svg>
