<svg width="64" height="64" viewBox="0 0 64 64" fill="none" xmlns="http://www.w3.org/2000/svg">
    <rect width="64" height="64" rx="12" fill="white"/>
    <path d="M46.6199 31.5079L43.5215 28.1509C40.4537 24.828 36.3633 23 31.9973 23C27.6314 23 23.541 24.828 20.4732 28.1509L17.3748 31.5079C16.6828 32.3437 17.1114 33.2339 17.3748 33.4921L20.4732 36.8491C23.541 40.172 27.6314 42 31.9973 42C36.3633 42 40.4537 40.172 43.5215 36.8491L46.6199 33.4921C46.8648 33.2339 47.3363 32.3777 46.6199 31.5079ZM31.9973 37.2432C29.6398 37.2432 27.7232 35.1162 27.7232 32.5C27.7232 29.8838 29.6398 27.7568 31.9973 27.7568C34.3548 27.7568 36.2714 29.8838 36.2714 32.5C36.2714 35.1162 34.3548 37.2432 31.9973 37.2432ZM20.0384 32.5L22.2244 30.1352C23.8778 28.3412 25.8862 27.0637 28.0845 26.3705C26.3577 27.7364 25.231 29.9721 25.231 32.4932C25.231 35.0143 26.3577 37.2568 28.0845 38.6159C25.8862 37.9227 23.8778 36.6452 22.2244 34.858L20.0384 32.5ZM41.7763 34.8648C40.123 36.652 38.1146 37.9295 35.9163 38.6227C37.6431 37.2568 38.7698 35.0211 38.7698 32.5C38.7698 29.9721 37.6431 27.7364 35.9163 26.3773C38.1146 27.0705 40.123 28.348 41.7763 30.142L43.9562 32.5068L41.7763 34.8648Z"
          fill="#726F6F"/>
</svg>
