<svg width="122" height="133" viewBox="0 0 122 133" fill="none" xmlns="http://www.w3.org/2000/svg">
    <path d="M21.736 129L20.696 126.248H15.384L14.344 129H13.16L17.464 117.8H18.616L22.92 129H21.736ZM15.784 125.192H20.296L18.04 119.192L15.784 125.192ZM28.1256 122.024H25.8216V126.872C25.8216 127.309 25.907 127.624 26.0776 127.816C26.2483 127.997 26.5043 128.093 26.8456 128.104C27.187 128.104 27.6136 128.093 28.1256 128.072V129C27.0056 129.171 26.163 129.091 25.5976 128.76C25.043 128.429 24.7656 127.8 24.7656 126.872V122.024H23.0856V121H24.7656V119.08L25.8216 118.76V121H28.1256V122.024ZM33.6413 122.024H31.3373V126.872C31.3373 127.309 31.4226 127.624 31.5933 127.816C31.7639 127.997 32.0199 128.093 32.3613 128.104C32.7026 128.104 33.1293 128.093 33.6413 128.072V129C32.5213 129.171 31.6786 129.091 31.1133 128.76C30.5586 128.429 30.2812 127.8 30.2812 126.872V122.024H28.6013V121H30.2812V119.08L31.3373 118.76V121H33.6413V122.024ZM41.7969 121H42.8529V129H41.7969V127.432C41.0609 128.605 39.9835 129.192 38.5649 129.192C37.4235 129.192 36.4475 128.787 35.6369 127.976C34.8369 127.165 34.4369 126.173 34.4369 125C34.4369 123.827 34.8369 122.835 35.6369 122.024C36.4475 121.213 37.4235 120.808 38.5649 120.808C39.9835 120.808 41.0609 121.395 41.7969 122.568V121ZM36.4049 127.256C37.0129 127.864 37.7595 128.168 38.6449 128.168C39.5302 128.168 40.2769 127.864 40.8849 127.256C41.4929 126.637 41.7969 125.885 41.7969 125C41.7969 124.115 41.4929 123.368 40.8849 122.76C40.2769 122.141 39.5302 121.832 38.6449 121.832C37.7595 121.832 37.0129 122.141 36.4049 122.76C35.7969 123.368 35.4929 124.115 35.4929 125C35.4929 125.885 35.7969 126.637 36.4049 127.256ZM48.8168 129.192C47.6114 129.192 46.6088 128.792 45.8088 127.992C45.0088 127.181 44.6088 126.184 44.6088 125C44.6088 123.816 45.0088 122.824 45.8088 122.024C46.6088 121.213 47.6114 120.808 48.8168 120.808C49.6061 120.808 50.3154 121 50.9448 121.384C51.5741 121.757 52.0328 122.264 52.3208 122.904L51.4568 123.4C51.2434 122.92 50.8968 122.541 50.4168 122.264C49.9474 121.976 49.4141 121.832 48.8168 121.832C47.9314 121.832 47.1848 122.141 46.5768 122.76C45.9688 123.368 45.6648 124.115 45.6648 125C45.6648 125.885 45.9688 126.637 46.5768 127.256C47.1848 127.864 47.9314 128.168 48.8168 128.168C49.4141 128.168 49.9474 128.029 50.4168 127.752C50.8861 127.464 51.2541 127.08 51.5208 126.6L52.4008 127.112C52.0701 127.752 51.5848 128.259 50.9448 128.632C50.3048 129.005 49.5954 129.192 48.8168 129.192ZM57.6609 120.808C58.6315 120.808 59.3942 121.107 59.9489 121.704C60.5142 122.291 60.7969 123.085 60.7969 124.088V129H59.7409V124.088C59.7409 123.373 59.5489 122.819 59.1649 122.424C58.7915 122.029 58.2582 121.832 57.5649 121.832C56.7969 121.832 56.1729 122.077 55.6929 122.568C55.2129 123.048 54.9729 123.795 54.9729 124.808V129H53.9169V117.8H54.9729V122.248C55.5702 121.288 56.4662 120.808 57.6609 120.808ZM71.1268 120.808C72.2681 120.808 73.2388 121.213 74.0388 122.024C74.8494 122.835 75.2548 123.827 75.2548 125C75.2548 126.173 74.8494 127.165 74.0388 127.976C73.2388 128.787 72.2681 129.192 71.1268 129.192C69.7081 129.192 68.6308 128.605 67.8948 127.432V132.2H66.8388V121H67.8948V122.568C68.6308 121.395 69.7081 120.808 71.1268 120.808ZM68.8068 127.256C69.4148 127.864 70.1614 128.168 71.0468 128.168C71.9321 128.168 72.6788 127.864 73.2868 127.256C73.8948 126.637 74.1988 125.885 74.1988 125C74.1988 124.115 73.8948 123.368 73.2868 122.76C72.6788 122.141 71.9321 121.832 71.0468 121.832C70.1614 121.832 69.4148 122.141 68.8068 122.76C68.1988 123.368 67.8948 124.115 67.8948 125C67.8948 125.885 68.1988 126.637 68.8068 127.256ZM80.7546 120.808C81.7253 120.808 82.488 121.107 83.0426 121.704C83.608 122.291 83.8906 123.085 83.8906 124.088V129H82.8346V124.088C82.8346 123.373 82.6426 122.819 82.2586 122.424C81.8853 122.029 81.352 121.832 80.6586 121.832C79.8906 121.832 79.2666 122.077 78.7866 122.568C78.3066 123.048 78.0666 123.795 78.0666 124.808V129H77.0106V117.8H78.0666V122.248C78.664 121.288 79.56 120.808 80.7546 120.808ZM92.6365 127.992C91.8258 128.792 90.8338 129.192 89.6605 129.192C88.4872 129.192 87.4898 128.792 86.6685 127.992C85.8578 127.181 85.4525 126.184 85.4525 125C85.4525 123.816 85.8578 122.824 86.6685 122.024C87.4898 121.213 88.4872 120.808 89.6605 120.808C90.8338 120.808 91.8258 121.213 92.6365 122.024C93.4578 122.824 93.8685 123.816 93.8685 125C93.8685 126.184 93.4578 127.181 92.6365 127.992ZM87.4205 127.256C88.0285 127.864 88.7752 128.168 89.6605 128.168C90.5458 128.168 91.2925 127.864 91.9005 127.256C92.5085 126.637 92.8125 125.885 92.8125 125C92.8125 124.115 92.5085 123.368 91.9005 122.76C91.2925 122.141 90.5458 121.832 89.6605 121.832C88.7752 121.832 88.0285 122.141 87.4205 122.76C86.8125 123.368 86.5085 124.115 86.5085 125C86.5085 125.885 86.8125 126.637 87.4205 127.256ZM99.7194 122.024H97.4154V126.872C97.4154 127.309 97.5007 127.624 97.6714 127.816C97.842 127.997 98.098 128.093 98.4394 128.104C98.7807 128.104 99.2074 128.093 99.7194 128.072V129C98.5994 129.171 97.7567 129.091 97.1914 128.76C96.6367 128.429 96.3594 127.8 96.3594 126.872V122.024H94.6794V121H96.3594V119.08L97.4154 118.76V121H99.7194V122.024ZM107.699 127.992C106.888 128.792 105.896 129.192 104.723 129.192C103.55 129.192 102.552 128.792 101.731 127.992C100.92 127.181 100.515 126.184 100.515 125C100.515 123.816 100.92 122.824 101.731 122.024C102.552 121.213 103.55 120.808 104.723 120.808C105.896 120.808 106.888 121.213 107.699 122.024C108.52 122.824 108.931 123.816 108.931 125C108.931 126.184 108.52 127.181 107.699 127.992ZM102.483 127.256C103.091 127.864 103.838 128.168 104.723 128.168C105.608 128.168 106.355 127.864 106.963 127.256C107.571 126.637 107.875 125.885 107.875 125C107.875 124.115 107.571 123.368 106.963 122.76C106.355 122.141 105.608 121.832 104.723 121.832C103.838 121.832 103.091 122.141 102.483 122.76C101.875 123.368 101.571 124.115 101.571 125C101.571 125.885 101.875 126.637 102.483 127.256Z"
          fill="#07C0E0"/>
    <g filter="url(#filter0_d_51_662)">
        <rect x="15" y="6.01965" width="92" height="91.6613" rx="15" fill="white"/>
    </g>
    <path fill-rule="evenodd" clip-rule="evenodd"
          d="M74.5 31.6748H47.5C43.7721 31.6748 40.75 34.6858 40.75 38.4V65.3006C40.75 69.0148 43.7721 72.0258 47.5 72.0258H74.5C78.2279 72.0258 81.25 69.0148 81.25 65.3006V38.4C81.25 34.6858 78.2279 31.6748 74.5 31.6748ZM47.5 36.1582H74.5C75.7426 36.1582 76.75 37.1619 76.75 38.4V57.1407L69.55 51.0208C67.2493 49.1348 63.9307 49.1348 61.63 51.0208L45.25 64.6281V38.4C45.25 37.1619 46.2574 36.1582 47.5 36.1582ZM64.51 54.4507L48.76 67.5423H74.5C75.7426 67.5423 76.75 66.5387 76.75 65.3006V63.0589L66.6025 54.4507C65.9813 53.9911 65.1312 53.9911 64.51 54.4507Z"
          fill="#D5DDE5"/>
    <ellipse cx="52" cy="44.0042" rx="3.375" ry="3.36258" fill="#D5DDE5"/>
    <circle cx="101" cy="14" r="13" fill="#07C0E0"/>
    <path d="M107.286 10.6692H101.571V4.97591C101.571 4.45186 101.145 4.02704 100.619 4.02704C100.093 4.02704 99.6667 4.45186 99.6667 4.97591V10.6692H93.9524C93.4264 10.6692 93 11.094 93 11.618C93 12.1421 93.4264 12.5669 93.9524 12.5669H99.6667V18.2601C99.6667 18.7842 100.093 19.209 100.619 19.209C101.145 19.209 101.571 18.7842 101.571 18.2601V12.5669H107.286C107.812 12.5669 108.238 12.1421 108.238 11.618C108.238 11.094 107.812 10.6692 107.286 10.6692Z"
          fill="white"/>
    <defs>
        <filter id="filter0_d_51_662" x="0" y="3.01965" width="122" height="121.661" filterUnits="userSpaceOnUse"
                color-interpolation-filters="sRGB">
            <feFlood flood-opacity="0" result="BackgroundImageFix"/>
            <feColorMatrix in="SourceAlpha" type="matrix" values="0 0 0 0 0 0 0 0 0 0 0 0 0 0 0 0 0 0 127 0"
                           result="hardAlpha"/>
            <feOffset dy="12"/>
            <feGaussianBlur stdDeviation="7.5"/>
            <feColorMatrix type="matrix" values="0 0 0 0 0.0691963 0 0 0 0 0.270989 0 0 0 0 0.39705 0 0 0 0.0665701 0"/>
            <feBlend mode="normal" in2="BackgroundImageFix" result="effect1_dropShadow_51_662"/>
            <feBlend mode="normal" in="SourceGraphic" in2="effect1_dropShadow_51_662" result="shape"/>
        </filter>
    </defs>
</svg>
