<svg width="24" height="24" viewBox="0 0 24 24" fill="none" xmlns="http://www.w3.org/2000/svg">
<rect opacity="0.01" x="24" width="24" height="24" transform="rotate(90 24 0)" fill="white"/>
<path d="M19 11H7.14L10.77 6.63999C11.1235 6.21473 11.0653 5.58346 10.64 5.22999C10.2147 4.87653 9.58346 4.93473 9.23 5.35999L4.23 11.36C4.19636 11.4077 4.16628 11.4579 4.14 11.51C4.14 11.56 4.14 11.59 4.07 11.64C4.02467 11.7547 4.00094 11.8767 4 12C4.00094 12.1233 4.02467 12.2453 4.07 12.36C4.07 12.41 4.07 12.44 4.14 12.49C4.16628 12.5421 4.19636 12.5923 4.23 12.64L9.23 18.64C9.42036 18.8685 9.70257 19.0005 10 19C10.2337 19.0005 10.4601 18.9191 10.64 18.77C10.8445 18.6004 10.9731 18.3565 10.9975 18.092C11.0219 17.8274 10.9401 17.5641 10.77 17.36L7.14 13H19C19.5523 13 20 12.5523 20 12C20 11.4477 19.5523 11 19 11Z" fill="white"/>
</svg>
