<svg width="20" height="20" viewBox="0 0 20 20" fill="none" xmlns="http://www.w3.org/2000/svg">
<path fill-rule="evenodd" clip-rule="evenodd" d="M10.7716 6.04937C10.7716 7.75395 9.38976 9.13579 7.68517 9.13579C5.98059 9.13579 4.59875 7.75395 4.59875 6.04937C4.59875 4.34479 5.98059 2.96295 7.68517 2.96295C9.38976 2.96295 10.7716 4.34479 10.7716 6.04937ZM9.22838 6.04937C9.22838 5.19708 8.53747 4.50616 7.68517 4.50616C6.83288 4.50616 6.14196 5.19708 6.14196 6.04937C6.14196 6.90166 6.83288 7.59258 7.68517 7.59258C8.53747 7.59258 9.22838 6.90166 9.22838 6.04937Z" fill="#07C0E0"/>
<path fill-rule="evenodd" clip-rule="evenodd" d="M16.1728 8.36419C16.1728 9.64263 15.1365 10.679 13.858 10.679C12.5796 10.679 11.5432 9.64263 11.5432 8.36419C11.5432 7.08576 12.5796 6.04938 13.858 6.04938C15.1365 6.04938 16.1728 7.08576 16.1728 8.36419ZM14.6296 8.36419C14.6296 7.93805 14.2842 7.59259 13.858 7.59259C13.4319 7.59259 13.0864 7.93805 13.0864 8.36419C13.0864 8.79034 13.4319 9.1358 13.858 9.1358C14.2842 9.1358 14.6296 8.79034 14.6296 8.36419Z" fill="#07C0E0"/>
<path d="M13.858 11.4506C13.0029 11.4516 12.1724 11.7365 11.4969 12.2608C9.95143 10.7214 7.63171 10.2627 5.61667 11.0981C3.60164 11.9335 2.28689 13.8989 2.28394 16.0802C2.28394 16.5064 2.62939 16.8518 3.05554 16.8518C3.48169 16.8518 3.82715 16.5064 3.82715 16.0802C3.82715 13.9495 5.55444 12.2222 7.68517 12.2222C9.8159 12.2222 11.5432 13.9495 11.5432 16.0802C11.5432 16.5064 11.8887 16.8518 12.3148 16.8518C12.7409 16.8518 13.0864 16.5064 13.0864 16.0802C13.0882 15.1763 12.8599 14.2867 12.4228 13.4954C13.1186 12.9456 14.0673 12.8416 14.8657 13.2276C15.6641 13.6136 16.1717 14.4218 16.1728 15.3086C16.1728 15.7348 16.5183 16.0802 16.9444 16.0802C17.3706 16.0802 17.716 15.7348 17.716 15.3086C17.716 13.1779 15.9887 11.4506 13.858 11.4506V11.4506Z" fill="#3EAEFF"/>
</svg>
