<svg width="20" height="17" viewBox="0 0 20 17" fill="none" xmlns="http://www.w3.org/2000/svg">
    <path fill-rule="evenodd" clip-rule="evenodd"
          d="M9.34259 15.8426C9.51733 16.016 9.75389 16.1126 10 16.1112C10.2461 16.1126 10.4827 16.016 10.6574 15.8426L17.8519 8.63893C19.73 6.74111 19.73 3.6849 17.8519 1.78708C15.9582 -0.101227 12.8937 -0.101227 11 1.78708L10 2.78708L9 1.78708C7.10635 -0.101227 4.0418 -0.101227 2.14815 1.78708C0.269953 3.6849 0.269953 6.74111 2.14815 8.63893L9.34259 15.8426ZM3.46296 3.09264C4.02212 2.53211 4.78235 2.21868 5.57407 2.22226C6.3658 2.21868 7.12603 2.53211 7.68518 3.09264L9.34259 4.7593C9.51645 4.93459 9.75311 5.03319 10 5.03319C10.2469 5.03319 10.4835 4.93459 10.6574 4.7593L12.3148 3.09264C13.4996 1.97325 15.3522 1.97325 16.537 3.09264C17.7012 4.26292 17.7012 6.15383 16.537 7.32412L10 13.8704L3.46296 7.32412C2.29881 6.15383 2.29881 4.26292 3.46296 3.09264Z"
          fill="#07C0E0"/>
</svg>
