<svg width="14" height="12" viewBox="0 0 14 12" fill="none" xmlns="http://www.w3.org/2000/svg">
<path d="M1.44436 6.41274L10.8571 6.41274L7.97611 9.87306C7.69558 10.2106 7.74177 10.7116 8.07928 10.9921C8.41679 11.2726 8.9178 11.2264 9.19833 10.8889L13.1666 6.12703C13.1933 6.08915 13.2172 6.04936 13.238 6.00798C13.238 5.9683 13.238 5.94449 13.2936 5.90481C13.3295 5.81381 13.3484 5.71694 13.3491 5.61909C13.3484 5.52124 13.3295 5.42438 13.2936 5.33338C13.2936 5.29369 13.2936 5.26989 13.238 5.2302C13.2172 5.18882 13.1933 5.14903 13.1666 5.11116L9.19833 0.34925C9.04725 0.167869 8.82327 0.0631526 8.58722 0.063536C8.40178 0.0631737 8.22207 0.127757 8.07928 0.246076C7.91697 0.380638 7.81488 0.574251 7.79552 0.784193C7.77616 0.994136 7.84114 1.20315 7.97611 1.36512L10.8571 4.82544L1.44436 4.82544C1.00604 4.82544 0.650709 5.18077 0.650709 5.61909C0.650709 6.05741 1.00604 6.41274 1.44436 6.41274Z" fill="#8F9CA9"/>
</svg>
