<svg width="319" height="67" viewBox="0 0 319 67" fill="none" xmlns="http://www.w3.org/2000/svg">
    <g clip-path="url(#clip0_7_361)">
        <path d="M64.2978 17.5434C62.1856 17.8622 60.2908 19.1676 59.3279 20.9811C58.8516 21.8779 58.6549 22.6651 58.5824 24.0003C58.5099 25.3355 58.6342 25.9633 59.069 26.4017C59.3175 26.6608 59.3797 26.8302 59.4728 27.6074C59.6696 29.1817 60.1873 30.2778 61.2537 31.3839L61.8646 32.0116V32.7589C61.8646 33.3269 61.8232 33.5561 61.6886 33.7155C61.5851 33.8251 60.4358 34.3732 59.1208 34.9312C56.3977 36.087 55.7661 36.4557 55.2277 37.213C54.4512 38.2991 54.4719 38.1397 54.4304 43.9888C54.4097 47.5062 54.4304 49.3396 54.5029 49.5788C54.6997 50.1965 55.5487 50.3261 55.8489 49.778C55.9214 49.6485 55.9628 47.8749 55.9628 44.4471C55.9628 41.6172 56.0043 39.3055 56.0457 39.3055C56.1699 39.3055 58.1889 41.3084 58.3546 41.5973C58.4685 41.7966 58.5099 42.6735 58.5513 45.7624L58.6031 49.6884L58.9034 49.9375C59.2243 50.2065 59.5867 50.1866 59.9284 49.8976C60.0941 49.7482 60.1044 49.4193 60.1044 45.7724C60.1044 40.7703 60.239 41.2286 58.2097 39.2358C56.7704 37.8208 56.7497 37.8009 56.9568 37.6116C57.1432 37.4223 61.6886 35.4194 61.9164 35.4194C61.9681 35.4194 62.7343 36.107 63.5937 36.934L65.1675 38.4586L65.1986 44.0685L65.2297 49.6884L65.5196 49.9275C65.6749 50.057 65.9027 50.1667 66.0062 50.1667C66.1097 50.1667 66.3375 50.057 66.4928 49.9275L66.7828 49.6884L66.8138 44.0685L66.8449 38.4586L68.4187 36.934C69.2781 36.107 70.0443 35.4194 70.096 35.4194C70.3238 35.4194 74.8692 37.4223 75.0556 37.6116C75.2627 37.8009 75.242 37.8208 73.8028 39.2358C71.7734 41.2286 71.908 40.7703 71.908 45.7724C71.908 49.4193 71.9183 49.7482 72.0943 49.8976C72.4257 50.1866 72.7881 50.2065 73.109 49.9375L73.4093 49.6884L73.4611 45.7624C73.5025 42.6735 73.5439 41.7966 73.6578 41.5973C73.8235 41.3084 75.8425 39.3055 75.9667 39.3055C76.0082 39.3055 76.0496 41.6172 76.0496 44.4471C76.0496 47.8749 76.091 49.6485 76.1635 49.778C76.4637 50.3261 77.3128 50.1965 77.5095 49.5788C77.582 49.3396 77.6027 47.5062 77.582 43.9888C77.5405 38.1397 77.5612 38.2991 76.7847 37.213C76.2463 36.4557 75.6147 36.087 72.8916 34.9312C71.587 34.3732 70.4274 33.8251 70.3342 33.7155C70.1892 33.5561 70.1478 33.3269 70.1478 32.7589V32.0116L70.8001 31.334C71.5249 30.5768 72.1254 29.5405 72.3739 28.5938C72.4671 28.265 72.5603 27.3882 72.6017 26.6508C72.6535 25.4949 72.6949 25.2857 72.8605 25.1761C73.2333 24.917 73.3989 24.4487 73.3886 23.6615C73.3472 21.3797 71.9183 19.2174 69.7751 18.1911C68.6465 17.653 68.1598 17.5633 66.3168 17.5334C65.3746 17.5135 64.4738 17.5235 64.2978 17.5434ZM68.429 19.2672C70.3756 19.9348 71.587 21.4494 71.8562 23.522L71.9287 24.0401L71.0175 24.1597C69.9304 24.3092 67.756 24.2394 66.9795 24.0302C66.1201 23.801 65.1675 23.3426 64.4531 22.8245C64.0286 22.5156 63.6766 22.3362 63.5005 22.3362C63.0864 22.3362 62.7965 22.6252 62.7965 23.0437C62.7965 23.3426 62.8793 23.4722 63.3245 23.8707C63.9458 24.4188 65.4264 25.1561 66.5239 25.465C67.1451 25.6344 67.6628 25.6843 69.1642 25.7241L71.0279 25.764L71.0175 26.8003C70.9865 28.3946 70.562 29.4408 69.5266 30.4373C68.5222 31.4038 67.4351 31.8323 66.0062 31.8323C64.5774 31.8323 63.4902 31.4038 62.4858 30.4373C61.6161 29.6002 61.1295 28.5938 60.9845 27.3184C60.9224 26.7504 60.9224 26.7504 61.2537 26.5711C61.4297 26.4814 61.8025 26.2323 62.082 26.023C62.5169 25.7042 62.5894 25.6045 62.5894 25.3056C62.5894 24.8771 62.2891 24.5583 61.8957 24.5583C61.73 24.5583 61.3366 24.7277 60.9949 24.9569C60.063 25.5647 60.063 25.5647 60.1355 24.1796C60.1666 23.5419 60.2701 22.7647 60.3633 22.4658C60.8292 20.9811 62.1442 19.7057 63.6766 19.2473C64.4842 18.9982 64.6084 18.9882 66.2651 19.0281C67.5282 19.048 67.932 19.0879 68.429 19.2672ZM64.2667 33.1276C64.7741 33.2671 65.3332 33.3269 66.0062 33.3269C66.6792 33.3269 67.2383 33.2671 67.7457 33.1276C68.1495 33.018 68.5119 32.9283 68.5429 32.9283C68.574 32.9283 68.5947 33.0977 68.5947 33.3169C68.5947 33.5262 68.6568 33.855 68.7397 34.0443L68.895 34.3831L67.4454 35.7781L66.0062 37.1632L64.567 35.7781L63.1174 34.3831L63.2727 34.0443C63.3556 33.855 63.4177 33.5262 63.4177 33.3169C63.4177 33.0977 63.4384 32.9283 63.4695 32.9283C63.5005 32.9283 63.8629 33.018 64.2667 33.1276Z"
              fill="#02D1AC"/>
        <path d="M47.0897 21.569C46.1061 21.7683 45.2467 22.4359 44.7911 23.3626C44.5737 23.811 44.5219 24.07 44.5219 24.7576L44.5116 25.6045L43.735 26.3519C42.389 27.6572 41.9852 28.7433 41.9852 31.0351C41.9852 33.3169 42.389 34.413 43.7143 35.7084L44.4701 36.4358V37.3525C44.4701 38.0201 44.4287 38.329 44.3045 38.4884C44.2216 38.608 43.414 39.0664 42.5236 39.5048C40.7116 40.3817 40.2457 40.7504 39.8212 41.5973L39.552 42.1454L39.5209 45.7823C39.5002 47.7852 39.5209 49.519 39.552 49.6386C39.5831 49.7681 39.7487 49.9375 39.9247 50.0272C40.1939 50.1567 40.2975 50.1567 40.546 50.0571C40.722 49.9973 40.898 49.8578 40.9498 49.7581C41.0119 49.6585 41.0533 48.2535 41.0533 46.4101V43.2514L41.7885 43.9389C42.1923 44.3276 42.5857 44.7759 42.6685 44.9553C42.7824 45.1945 42.8135 45.8023 42.8135 47.3667C42.8135 48.7119 42.8549 49.5489 42.9274 49.7083C43.1655 50.2165 43.9939 50.2563 44.2527 49.7781C44.3252 49.6585 44.3666 48.7318 44.3666 47.3368C44.3666 44.3873 44.3562 44.3674 42.7824 42.813C42.0887 42.1454 41.6746 41.6571 41.7367 41.6073C41.7885 41.5674 42.565 41.1689 43.4555 40.7304L45.081 39.9333L46.0129 40.84L46.9551 41.7468V45.603C46.9551 48.2535 46.9965 49.5389 47.069 49.7083C47.3071 50.2165 48.1355 50.2563 48.3943 49.7781C48.4668 49.6485 48.5082 48.2336 48.5082 45.6628V41.7468L49.4504 40.84L50.3926 39.9233L51.1588 40.2721C51.8525 40.5909 51.9354 40.6109 52.2046 40.4813C52.3599 40.4116 52.5359 40.2322 52.5877 40.0927C52.7533 39.6244 52.598 39.3653 51.9043 38.9966C51.5523 38.8073 51.2002 38.5482 51.1278 38.4087C51.0553 38.2692 50.9932 37.8009 50.9932 37.3226V36.4956L51.7076 35.818C52.2253 35.3198 52.5462 34.9013 52.8362 34.3333C53.416 33.2173 53.5092 32.7091 53.4574 30.6963C53.416 29.0921 53.3953 28.9526 53.1157 28.265C52.7533 27.3981 51.9768 26.3718 51.3555 25.9433L50.9103 25.6344L50.9621 24.907C51.0346 24.0102 50.8275 23.3626 50.2684 22.675C49.5747 21.828 48.1976 21.3498 47.0897 21.569ZM48.6635 23.2629C49.0673 23.5021 49.4401 24.1398 49.4401 24.5882V24.9369L49.0155 24.8472C48.4357 24.7177 47.566 24.6978 46.7273 24.7974L46.0232 24.8771V24.6081C46.0232 24.0102 46.6134 23.2529 47.2243 23.0636C47.6281 22.9441 48.2701 23.0337 48.6635 23.2629ZM48.9224 26.3718C49.4297 26.5213 50.1648 26.8999 50.4962 27.1789C51.3141 27.9063 51.925 29.1319 51.925 30.0885C51.925 30.5668 51.9043 30.5767 50.8585 30.6963C49.6161 30.8358 48.0837 30.2778 47.0276 29.2913C46.2614 28.5739 45.9611 28.554 45.1846 29.1917C44.6565 29.6202 43.6522 30.1782 43.559 30.0985C43.5383 30.0686 43.5693 29.8095 43.6418 29.5006C44.1492 27.139 46.5824 25.7042 48.9224 26.3718ZM46.6445 30.9454C47.742 31.7326 48.736 32.0913 50.1131 32.191C50.5686 32.2209 51.1485 32.2009 51.4073 32.1511C51.6558 32.0913 51.8836 32.0614 51.9147 32.0913C52.0078 32.171 51.6972 33.2372 51.4487 33.6956C50.7136 35.0308 49.3158 35.828 47.7316 35.828C45.5677 35.818 43.8696 34.3333 43.5901 32.2209L43.5176 31.6728L44.0767 31.5034C44.3873 31.4138 44.9361 31.1547 45.2985 30.9454C45.6712 30.7262 45.9922 30.5469 46.0232 30.5369C46.0543 30.5369 46.3339 30.7162 46.6445 30.9454ZM47.1104 37.3027C47.742 37.3625 48.7981 37.3027 49.1916 37.1731C49.3986 37.1134 49.4193 37.1532 49.4711 37.8806L49.5229 38.6578L48.6532 39.5048L47.7834 40.3518L46.8826 39.4849L45.9715 38.608L46.0025 37.8607C46.0336 37.1333 46.0543 37.1034 46.2614 37.1731C46.3856 37.213 46.7687 37.2728 47.1104 37.3027Z"
              fill="#02D1AC"/>
        <path d="M81.0712 23.1633C79.0936 23.4821 77.5198 24.8373 77.0435 26.6109C76.8572 27.3084 76.8157 29.5405 76.9814 29.8394C77.0332 29.939 77.2195 30.0686 77.3956 30.1184C77.7062 30.228 77.7062 30.238 77.7062 30.9554C77.7165 32.2408 78.0996 33.2472 78.9383 34.144L79.3835 34.6223L79.3421 35.3198C79.3111 35.9774 79.2903 36.0173 78.8658 36.3959C78.3481 36.8543 78.2964 37.1931 78.6898 37.5618C78.9797 37.8507 79.1868 37.8707 79.6113 37.6614L79.9219 37.502L80.8849 38.4287L81.8478 39.3553V44.4671C81.8478 47.8848 81.8892 49.6485 81.9617 49.7781C82.2205 50.2563 83.0488 50.2165 83.287 49.7083C83.3698 49.5289 83.4009 47.9546 83.4009 44.4073V39.3553L84.3327 38.4586L85.2749 37.5518L87.5321 38.6479L89.7996 39.744L89.0127 40.5511C88.5882 40.9895 88.1223 41.5874 87.967 41.8963L87.6978 42.4443L87.6667 46.0016C87.646 48.4528 87.6771 49.6286 87.7495 49.7681C88.0188 50.2563 88.8367 50.2165 89.0852 49.7083C89.1577 49.5389 89.1991 48.403 89.1991 46.171C89.1991 43.5802 89.2302 42.8229 89.3441 42.5639C89.4269 42.3845 89.8203 41.9361 90.2241 41.5475L90.9593 40.86V45.2144C90.9593 47.825 91.0007 49.6585 91.0628 49.7581C91.1146 49.8578 91.2906 49.9973 91.4666 50.0571C91.7151 50.1567 91.8187 50.1567 92.0879 50.0272C92.2639 49.9375 92.4295 49.7681 92.4606 49.6386C92.4917 49.519 92.5124 47.3966 92.4917 44.9354L92.4606 40.4514L92.1811 39.9532C91.6841 39.0464 91.2906 38.7674 88.6607 37.502C87.2526 36.8244 86.1447 36.2265 86.0515 36.097C85.9376 35.9475 85.8858 35.6586 85.8858 35.2401C85.8858 34.6422 85.9065 34.5824 86.3 34.144C87.0869 33.2871 87.5425 32.0614 87.5425 30.786C87.5425 30.2081 87.5632 30.1383 87.7392 30.1383C87.8531 30.1383 88.0395 30.0187 88.1637 29.8593C88.3811 29.6002 88.3915 29.5205 88.3397 28.2451C88.3087 27.4479 88.2155 26.7006 88.1223 26.4116C87.6564 25.0166 86.4553 23.8408 84.9747 23.3526C84.3017 23.1234 81.972 23.0138 81.0712 23.1633ZM84.9022 24.9469C86.0618 25.5049 86.6934 26.4615 86.7866 27.8565L86.8488 28.6437H86.5381C85.4613 28.6437 83.2456 28.0857 81.8581 27.4579C80.8745 27.0095 80.7606 27.0195 80.0669 27.5874C79.8495 27.7768 79.3835 28.0657 79.0522 28.2351L78.431 28.554V27.9063C78.431 26.312 79.5388 24.9867 81.1437 24.6579C81.3922 24.6081 82.1895 24.5782 82.9142 24.5981C84.1567 24.628 84.281 24.6579 84.9022 24.9469ZM83.8668 29.7198C84.3845 29.8394 85.0575 29.9689 85.3681 30.0088L85.9376 30.0885L85.9272 30.9454C85.9272 31.633 85.8755 31.892 85.658 32.3504C85.1093 33.4963 83.9186 34.2436 82.6243 34.2337C81.5579 34.2237 80.7088 33.855 80.0462 33.1077C79.4767 32.47 79.2593 31.8024 79.2593 30.6864V29.7597L79.601 29.6501C79.777 29.5803 80.1808 29.3711 80.4914 29.1618L81.0505 28.7832L81.9927 29.1419C82.5104 29.3412 83.3595 29.6002 83.8668 29.7198ZM82.0549 35.7084C82.614 35.7682 83.3491 35.7184 83.9807 35.5689C84.2913 35.4991 84.312 35.5091 84.3534 35.8579C84.3949 36.1867 84.3431 36.2664 83.4837 37.0835L82.5726 37.9603L81.6821 37.0934C80.802 36.2564 80.7917 36.2265 80.8538 35.8678C80.9263 35.529 80.947 35.5091 81.2058 35.5689C81.3611 35.6087 81.7442 35.6685 82.0549 35.7084Z"
              fill="#02D1AC"/>
    </g>
    <path d="M125.031 28.625C127.516 28.625 129.203 29.4375 130.203 31.0625C131.188 32.6875 131.578 34.75 131.578 37.7031V46.5H126.328V37.7031C126.328 34.625 125.25 33.0781 123.109 33.0781C120.75 33.0781 119.391 34.8438 119.391 37.7031V46.5H114.141V37.7031C114.141 34.6875 113.156 33.0781 110.953 33.0781C108.594 33.0781 107.234 34.8438 107.234 37.7031V46.5H101.984V28.9062H107L107.234 31.2344C108.141 29.5 110.016 28.625 112.875 28.625C115.766 28.625 117.688 29.8281 118.609 32.2344C119.812 29.8281 121.953 28.625 125.031 28.625ZM142.125 28.625C144.875 28.625 147.031 29.5938 147.984 31.2344L148.203 28.9062H153.219V46.5H148.203L147.984 44.1562C147.062 45.8906 145.109 46.7656 142.125 46.7656C137.609 46.8594 133.859 42.9844 133.922 37.7031C133.859 32.4219 137.609 28.5312 142.125 28.625ZM140.453 41.0312C141.297 41.8906 142.344 42.3281 143.578 42.3281C144.812 42.3281 145.859 41.8906 146.719 41.0312C147.562 40.1719 147.984 39.0625 147.984 37.7031C147.984 36.3438 147.562 35.2188 146.719 34.3594C145.859 33.5 144.812 33.0781 143.578 33.0781C142.344 33.0781 141.297 33.5 140.453 34.3594C139.609 35.2188 139.188 36.3438 139.188 37.7031C139.188 39.0625 139.609 40.1719 140.453 41.0312ZM163.875 28.625C166.625 28.625 168.766 29.5938 169.703 31.2344V22.5H174.953V46.5H169.953L169.703 44.1562C168.781 45.8906 166.703 46.7656 163.875 46.7656C159.359 46.8594 155.609 42.9844 155.672 37.7031C155.609 32.4219 159.359 28.5312 163.875 28.625ZM165.312 42.3281C166.547 42.3281 167.594 41.8906 168.438 41.0312C169.281 40.1719 169.703 39.0625 169.703 37.7031C169.703 36.3438 169.281 35.2188 168.438 34.3594C167.594 33.5 166.547 33.0781 165.312 33.0781C164.078 33.0781 163.031 33.5 162.188 34.3594C161.344 35.2188 160.922 36.3438 160.922 37.7031C160.922 39.0625 161.344 40.1719 162.203 41.0312C163.047 41.8906 164.078 42.3281 165.312 42.3281ZM185.625 28.625C188.375 28.625 190.531 29.5938 191.484 31.2344L191.703 28.9062H196.719V46.5H191.703L191.484 44.1562C190.562 45.8906 188.609 46.7656 185.625 46.7656C181.109 46.8594 177.359 42.9844 177.422 37.7031C177.359 32.4219 181.109 28.5312 185.625 28.625ZM183.953 41.0312C184.797 41.8906 185.844 42.3281 187.078 42.3281C188.312 42.3281 189.359 41.8906 190.219 41.0312C191.062 40.1719 191.484 39.0625 191.484 37.7031C191.484 36.3438 191.062 35.2188 190.219 34.3594C189.359 33.5 188.312 33.0781 187.078 33.0781C185.844 33.0781 184.797 33.5 183.953 34.3594C183.109 35.2188 182.688 36.3438 182.688 37.7031C182.688 39.0625 183.109 40.1719 183.953 41.0312ZM207.375 28.625C210.125 28.625 212.266 29.5938 213.203 31.2344V22.5H218.453V46.5H213.453L213.203 44.1562C212.281 45.8906 210.203 46.7656 207.375 46.7656C202.859 46.8594 199.109 42.9844 199.172 37.7031C199.109 32.4219 202.859 28.5312 207.375 28.625ZM208.812 42.3281C210.047 42.3281 211.094 41.8906 211.938 41.0312C212.781 40.1719 213.203 39.0625 213.203 37.7031C213.203 36.3438 212.781 35.2188 211.938 34.3594C211.094 33.5 210.047 33.0781 208.812 33.0781C207.578 33.0781 206.531 33.5 205.688 34.3594C204.844 35.2188 204.422 36.3438 204.422 37.7031C204.422 39.0625 204.844 40.1719 205.703 41.0312C206.547 41.8906 207.578 42.3281 208.812 42.3281ZM234.984 31.2344L235.203 28.9062H240.219V45.1719C240.219 46.875 239.812 48.3438 238.984 49.5781C238.156 50.7969 237.031 51.7031 235.641 52.2969C234.25 52.875 232.656 53.1719 230.859 53.1719C227.25 53.1719 224.391 51.9531 222.266 49.5312L224.75 46.6875C226.109 48.2188 228.016 48.9844 230.453 49C231.719 49 232.781 48.6406 233.656 47.9062C234.516 47.1719 234.969 46.1719 234.984 44.9375V43.6094C234.125 45.25 232.172 46.0625 229.125 46.0469C224.531 46.0469 220.922 42.5156 220.922 37.4219C220.922 34.8906 221.719 32.7969 223.297 31.125C224.875 29.4531 226.812 28.625 229.125 28.625C231.875 28.625 234.031 29.5938 234.984 31.2344ZM227.469 40.5312C228.312 41.3594 229.344 41.7812 230.578 41.7812C231.812 41.7812 232.844 41.3594 233.703 40.5312C234.562 39.7031 234.984 38.6562 234.984 37.4219C234.984 36.1875 234.562 35.1562 233.703 34.3281C232.844 33.5 231.812 33.0781 230.578 33.0781C229.344 33.0781 228.312 33.4844 227.469 34.3125C226.609 35.1406 226.188 36.1875 226.188 37.4219C226.188 38.6719 226.609 39.7031 227.469 40.5312ZM250.875 28.625C253.625 28.625 255.781 29.5938 256.734 31.2344L256.953 28.9062H261.969V46.5H256.953L256.734 44.1562C255.812 45.8906 253.859 46.7656 250.875 46.7656C246.359 46.8594 242.609 42.9844 242.672 37.7031C242.609 32.4219 246.359 28.5312 250.875 28.625ZM249.203 41.0312C250.047 41.8906 251.094 42.3281 252.328 42.3281C253.562 42.3281 254.609 41.8906 255.469 41.0312C256.312 40.1719 256.734 39.0625 256.734 37.7031C256.734 36.3438 256.312 35.2188 255.469 34.3594C254.609 33.5 253.562 33.0781 252.328 33.0781C251.094 33.0781 250.047 33.5 249.203 34.3594C248.359 35.2188 247.938 36.3438 247.938 37.7031C247.938 39.0625 248.359 40.1719 249.203 41.0312ZM265.266 46.5V28.9062H270.281L270.516 30.9844C271.719 29.2969 273.469 28.625 276.328 28.625V33.0781C272.516 33.0781 270.516 34.8125 270.516 37.7031V46.5H265.266Z"
          fill="#141414"/>
    <defs>
        <clipPath id="clip0_7_361">
            <rect width="53" height="50" fill="white" transform="translate(39.5 8.5)"/>
        </clipPath>
    </defs>
</svg>
