<svg width="33" height="41" viewBox="0 0 33 41" fill="none" xmlns="http://www.w3.org/2000/svg">
<path fill-rule="evenodd" clip-rule="evenodd" d="M16.6 40.2002L11.2 33.0002H22L16.6 40.2002Z" fill="#07C0E0"/>
<g clip-path="url(#clip0_26_602)">
<rect width="33" height="33" rx="9" fill="white"/>
<rect width="33" height="33" rx="9" fill="#07C0E0"/>
<mask id="mask0_26_602" style="mask-type:luminance" maskUnits="userSpaceOnUse" x="0" y="0" width="33" height="33">
<rect width="33" height="33" rx="9" fill="white"/>
</mask>
<g mask="url(#mask0_26_602)">
<path d="M15.0561 8.8H17.3281V20H15.1361V12.736L11.9841 17.936H11.7281L8.57613 12.752V20H6.36813V8.8H8.64013L11.8561 14.096L15.0561 8.8ZM27.095 16.848H21.063C21.3297 17.8507 22.0817 18.352 23.319 18.352C24.1083 18.352 24.7057 18.0853 25.111 17.552L26.775 18.512C25.9857 19.6533 24.823 20.224 23.287 20.224C21.9643 20.224 20.903 19.824 20.103 19.024C19.303 18.224 18.903 17.216 18.903 16C18.903 14.8053 19.2977 13.8027 20.087 12.992C20.8657 12.1813 21.879 11.776 23.127 11.776C24.311 11.776 25.2763 12.1813 26.023 12.992C26.791 13.8027 27.175 14.8053 27.175 16C27.175 16.224 27.1483 16.5067 27.095 16.848ZM21.031 15.248H25.111C24.9937 14.7253 24.7537 14.3253 24.391 14.048C24.039 13.7707 23.6177 13.632 23.127 13.632C22.5723 13.632 22.1137 13.776 21.751 14.064C21.3883 14.3413 21.1483 14.736 21.031 15.248Z" fill="white"/>
</g>
</g>
<defs>
<clipPath id="clip0_26_602">
<rect width="33" height="33" fill="white"/>
</clipPath>
</defs>
</svg>
