<svg width="20" height="20" viewBox="0 0 20 20" fill="none" xmlns="http://www.w3.org/2000/svg">
<path fill-rule="evenodd" clip-rule="evenodd" d="M16.4814 12.4769L15.0925 11.0803V7.6389C15.1307 4.99642 13.214 2.73063 10.6018 2.33026C9.11858 2.13493 7.6231 2.58779 6.49741 3.57313C5.37173 4.55847 4.72489 5.98085 4.72216 7.47686V11.0803L3.33327 12.4769C2.97661 12.8395 2.87171 13.3804 3.06697 13.85C3.26224 14.3197 3.71972 14.6268 4.22833 14.6296H6.82093V14.892C6.89597 16.5229 8.27619 17.7858 9.90735 17.7161C11.5385 17.7858 12.9187 16.5229 12.9938 14.892V14.6296H15.5864C16.095 14.6268 16.5525 14.3197 16.7477 13.85C16.943 13.3804 16.8381 12.8395 16.4814 12.4769ZM11.4506 14.892C11.3617 15.663 10.6816 16.2275 9.90735 16.1728C9.13311 16.2275 8.45304 15.663 8.36414 14.892V14.6296H11.4506V14.892ZM5.81013 12.1759L4.89963 13.0864H14.9151L13.9969 12.1759C13.708 11.8847 13.547 11.4904 13.5493 11.0803V7.60803C13.5889 5.73928 12.2462 4.12674 10.4012 3.82717C9.3534 3.69042 8.29841 4.02046 7.51537 4.72995C6.72192 5.42236 6.26622 6.42376 6.26537 7.47686V11.0803C6.2657 11.4916 6.10182 11.886 5.81013 12.1759Z" fill="#07C0E0"/>
</svg>
