<svg width="24" height="24" viewBox="0 0 24 24" fill="none" xmlns="http://www.w3.org/2000/svg">
<path fill-rule="evenodd" clip-rule="evenodd" d="M21.3752 5.75C21.3752 4.02411 19.9761 2.625 18.2502 2.625H5.75018C4.46246 2.63262 3.31127 3.42938 2.85054 4.63188C2.38981 5.83439 2.71389 7.19638 3.66684 8.0625V18.25C3.66684 19.9759 5.06595 21.375 6.79184 21.375H17.2085C18.9344 21.375 20.3335 19.9759 20.3335 18.25V8.0625C20.992 7.47356 21.3704 6.63342 21.3752 5.75ZM5.75018 4.70833H18.2502C18.8255 4.70833 19.2918 5.1747 19.2918 5.75C19.2918 6.3253 18.8255 6.79167 18.2502 6.79167H5.75018C5.17488 6.79167 4.70851 6.3253 4.70851 5.75C4.70851 5.1747 5.17488 4.70833 5.75018 4.70833ZM17.2085 19.2917C17.7838 19.2917 18.2502 18.8253 18.2502 18.25V8.875H5.75018V18.25C5.75018 18.8253 6.21655 19.2917 6.79184 19.2917H17.2085Z" fill="#D5DDE5"/>
<rect x="8.875" y="12" width="6.25" height="2.08333" rx="0.90625" fill="#D5DDE5"/>
</svg>
