<svg width="24" height="24" viewBox="0 0 24 24" fill="none" xmlns="http://www.w3.org/2000/svg">
<path fill-rule="evenodd" clip-rule="evenodd" d="M19.5207 10.2329L12.4439 3.00002C12.2716 2.82626 12.037 2.72852 11.7922 2.72852C11.5475 2.72852 11.3129 2.82626 11.1405 3.00002L4.06372 10.2421C3.71783 10.5907 3.52608 11.0635 3.53136 11.5546V19.2464C3.52988 20.2221 4.29191 21.0285 5.26614 21.0821H18.3183C19.2925 21.0285 20.0546 20.2221 20.0531 19.2464V11.5546C20.0538 11.0617 19.8629 10.5877 19.5207 10.2329ZM9.95648 19.2464V13.7392H13.628V19.2464H9.95648ZM15.4637 19.2464H18.2173V11.5546L11.7922 4.95509L5.3671 11.5179V19.2464H8.12073V12.8213C8.12073 12.3143 8.53167 11.9034 9.0386 11.9034H14.5458C15.0528 11.9034 15.4637 12.3143 15.4637 12.8213V19.2464Z" fill="#D5DDE5"/>
</svg>
