<svg width="24" height="24" viewBox="0 0 24 24" fill="none" xmlns="http://www.w3.org/2000/svg">
<path fill-rule="evenodd" clip-rule="evenodd" d="M11.3428 19.8426C11.5176 20.016 11.7541 20.1126 12.0002 20.1112C12.2464 20.1126 12.4829 20.016 12.6577 19.8426L19.8521 12.6389C21.7303 10.7411 21.7303 7.6849 19.8521 5.78708C17.9584 3.89877 14.8939 3.89877 13.0002 5.78708L12.0002 6.78708L11.0002 5.78708C9.10659 3.89877 6.04204 3.89877 4.14839 5.78708C2.2702 7.6849 2.2702 10.7411 4.14839 12.6389L11.3428 19.8426ZM5.46321 7.09264C6.02236 6.53211 6.78259 6.21868 7.57432 6.22226C8.36604 6.21868 9.12627 6.53211 9.68543 7.09264L11.3428 8.7593C11.5167 8.93459 11.7534 9.03319 12.0002 9.03319C12.2471 9.03319 12.4838 8.93459 12.6577 8.7593L14.3151 7.09264C15.4999 5.97325 17.3524 5.97325 18.5373 7.09264C19.7014 8.26292 19.7014 10.1538 18.5373 11.3241L12.0002 17.8704L5.46321 11.3241C4.29905 10.1538 4.29905 8.26292 5.46321 7.09264Z" fill="#D5DDE5"/>
</svg>
