<svg width="24" height="24" viewBox="0 0 24 24" fill="none" xmlns="http://www.w3.org/2000/svg">
    <path fill-rule="evenodd" clip-rule="evenodd"
          d="M16.6668 6.79167C16.6668 9.09285 14.8013 10.9583 12.5002 10.9583C10.199 10.9583 8.3335 9.09285 8.3335 6.79167C8.3335 4.49048 10.199 2.625 12.5002 2.625C14.8013 2.625 16.6668 4.49048 16.6668 6.79167ZM14.5835 6.79167C14.5835 5.64107 13.6508 4.70833 12.5002 4.70833C11.3496 4.70833 10.4168 5.64107 10.4168 6.79167C10.4168 7.94226 11.3496 8.875 12.5002 8.875C13.6508 8.875 14.5835 7.94226 14.5835 6.79167Z"
          fill="#D5DDE5"/>
    <path d="M12.5002 13.0416C8.47309 13.0416 5.2085 16.3062 5.2085 20.3333C5.2085 20.9086 5.67487 21.375 6.25016 21.375C6.82546 21.375 7.29183 20.9086 7.29183 20.3333C7.29183 17.4568 9.62368 15.125 12.5002 15.125C15.3766 15.125 17.7085 17.4568 17.7085 20.3333C17.7085 20.9086 18.1749 21.375 18.7502 21.375C19.3255 21.375 19.7918 20.9086 19.7918 20.3333C19.7918 16.3062 16.5272 13.0416 12.5002 13.0416V13.0416Z"
          fill="#D5DDE5"/>
</svg>
