<svg width="170" height="100" viewBox="0 0 170 100" fill="none" xmlns="http://www.w3.org/2000/svg">
<g filter="url(#filter0_d_189_3610)">
<rect x="4.5" y="0.5" width="161" height="91" rx="19.5" stroke="#02D1AC" shape-rendering="crispEdges"/>
<path d="M34.1404 46.753L33.1828 44.0865C33.0439 43.6982 32.7767 43.3605 32.4192 43.1213C32.0617 42.8821 31.632 42.7535 31.1913 42.7539H24.8087C24.368 42.7535 23.9383 42.8821 23.5808 43.1213C23.2233 43.3605 22.9561 43.6982 22.8172 44.0865L21.8596 46.753C21.605 46.852 21.3876 47.0186 21.2347 47.2319C21.0817 47.4451 21.0001 47.6956 21 47.9518V49.901C21 50.3805 21.2828 50.7951 21.7 51.0205V51.8503C21.7 52.0226 21.7737 52.1878 21.905 52.3097C22.0363 52.4315 22.2143 52.5 22.4 52.5H23.1C23.2857 52.5 23.4637 52.4315 23.595 52.3097C23.7262 52.1878 23.8 52.0226 23.8 51.8503V51.2005H32.2V51.8503C32.2 52.0226 32.2737 52.1878 32.405 52.3097C32.5363 52.4315 32.7143 52.5 32.9 52.5H33.6C33.7857 52.5 33.9637 52.4315 34.095 52.3097C34.2263 52.1878 34.3 52.0226 34.3 51.8503V51.0205C34.5124 50.9075 34.6889 50.7445 34.8118 50.5479C34.9347 50.3514 34.9996 50.1283 35 49.901V47.9518C35 47.4119 34.6451 46.9499 34.1404 46.753ZM24.8087 44.0533H31.1906C31.3376 44.0533 31.4808 44.0962 31.6001 44.176C31.7193 44.2558 31.8085 44.3683 31.8549 44.4978L32.6291 46.6523H23.3709L24.1444 44.4978C24.2403 44.232 24.5077 44.0533 24.8087 44.0533ZM23.45 49.901C23.3121 49.901 23.1755 49.8757 23.0481 49.8267C22.9207 49.7777 22.8049 49.7058 22.7074 49.6152C22.5105 49.4323 22.3999 49.1843 22.4 48.9258C22.4001 48.6672 22.5108 48.4192 22.7079 48.2365C22.9049 48.0537 23.1721 47.9511 23.4507 47.9511C23.7293 47.9512 23.9964 48.054 24.1933 48.2369C24.3902 48.4198 24.5008 48.6678 24.5007 48.9264C24.5006 49.185 24.3899 49.4329 24.1928 49.6157C23.9958 49.7985 23.7286 49.9011 23.45 49.901ZM32.55 49.901C32.2714 49.9009 32.0043 49.7981 31.8074 49.6152C31.6105 49.4323 31.4999 49.1843 31.5 48.9258C31.5001 48.6672 31.6108 48.4192 31.8079 48.2365C32.0049 48.0537 32.2721 47.9511 32.5507 47.9511C32.8293 47.9512 33.0964 48.054 33.2933 48.2369C33.4902 48.4198 33.6008 48.6678 33.6007 48.9264C33.6006 49.185 33.4899 49.4329 33.2928 49.6157C33.0958 49.7985 32.8286 49.9011 32.55 49.901ZM25.9 41.0502C25.9035 40.3433 25.1741 39.7176 24.9291 39.5272C24.9068 39.5097 24.8785 39.5 24.8493 39.5C24.8201 39.5 24.7918 39.5097 24.7695 39.5272C24.5231 39.7163 23.7965 40.331 23.8 41.0496C23.8 41.6311 24.2711 42.1041 24.85 42.1041C25.4289 42.1041 25.9 41.6311 25.9 41.0502ZM29.05 41.0502C29.0535 40.3433 28.3241 39.717 28.0791 39.5272C28.0568 39.5097 28.0285 39.5 27.9993 39.5C27.9701 39.5 27.9418 39.5097 27.9195 39.5272C27.6724 39.7163 26.9458 40.3316 26.9493 41.0502C26.95 41.6311 27.4211 42.1041 28 42.1041C28.5789 42.1041 29.05 41.6311 29.05 41.0502ZM32.2 41.0502C32.2035 40.3433 31.4741 39.717 31.2291 39.5272C31.2068 39.5097 31.1785 39.5 31.1493 39.5C31.1201 39.5 31.0918 39.5097 31.0695 39.5272C30.8231 39.7163 30.0965 40.331 30.1 41.0496C30.1 41.6311 30.5711 42.1041 31.15 42.1041C31.7289 42.1041 32.2 41.6311 32.2 41.0502Z" fill="black"/>
<path d="M63.1957 50.196C61.7304 50.196 60.5124 49.706 59.5417 48.726C58.5804 47.7553 58.0997 46.5467 58.0997 45.1C58.0997 43.644 58.5804 42.4353 59.5417 41.474C60.5124 40.494 61.7304 40.004 63.1957 40.004C64.0824 40.004 64.899 40.214 65.6457 40.634C66.4017 41.0447 66.9897 41.6047 67.4097 42.314L65.7437 43.28C65.501 42.8413 65.1557 42.5007 64.7077 42.258C64.2597 42.006 63.7557 41.88 63.1957 41.88C62.2437 41.88 61.4737 42.1787 60.8857 42.776C60.307 43.3827 60.0177 44.1573 60.0177 45.1C60.0177 46.0333 60.307 46.8033 60.8857 47.41C61.4737 48.0073 62.2437 48.306 63.1957 48.306C63.7557 48.306 64.2597 48.1847 64.7077 47.942C65.165 47.69 65.5104 47.3493 65.7437 46.92L67.4097 47.886C66.9897 48.5953 66.4017 49.16 65.6457 49.58C64.899 49.9907 64.0824 50.196 63.1957 50.196ZM73.8735 43.826V43H75.6795V50H73.8735V49.174C73.3322 49.8553 72.5715 50.196 71.5915 50.196C70.6582 50.196 69.8555 49.8413 69.1835 49.132C68.5209 48.4133 68.1895 47.536 68.1895 46.5C68.1895 45.4733 68.5209 44.6007 69.1835 43.882C69.8555 43.1633 70.6582 42.804 71.5915 42.804C72.5715 42.804 73.3322 43.1447 73.8735 43.826ZM70.5415 47.928C70.9055 48.292 71.3675 48.474 71.9275 48.474C72.4875 48.474 72.9495 48.292 73.3135 47.928C73.6869 47.5547 73.8735 47.0787 73.8735 46.5C73.8735 45.9213 73.6869 45.45 73.3135 45.086C72.9495 44.7127 72.4875 44.526 71.9275 44.526C71.3675 44.526 70.9055 44.7127 70.5415 45.086C70.1775 45.45 69.9955 45.9213 69.9955 46.5C69.9955 47.0787 70.1775 47.5547 70.5415 47.928ZM79.1232 43V44.204C79.2819 43.7653 79.5525 43.434 79.9352 43.21C80.3179 42.9767 80.7565 42.86 81.2512 42.86V44.876C80.7005 44.8013 80.2059 44.9133 79.7672 45.212C79.3379 45.5013 79.1232 45.982 79.1232 46.654V50H77.3172V43H79.1232ZM90.1334 50H87.9354L85.1914 40.2H87.2214L89.0974 47.466L91.1414 40.2H92.7934L94.8514 47.466L96.7274 40.2H98.7574L96.0134 50H93.8154L91.9674 43.532L90.1334 50ZM104.28 43.826V43H106.086V50H104.28V49.174C103.738 49.8553 102.978 50.196 101.998 50.196C101.064 50.196 100.262 49.8413 99.5898 49.132C98.9271 48.4133 98.5958 47.536 98.5958 46.5C98.5958 45.4733 98.9271 44.6007 99.5898 43.882C100.262 43.1633 101.064 42.804 101.998 42.804C102.978 42.804 103.738 43.1447 104.28 43.826ZM100.948 47.928C101.312 48.292 101.774 48.474 102.334 48.474C102.894 48.474 103.356 48.292 103.72 47.928C104.093 47.5547 104.28 47.0787 104.28 46.5C104.28 45.9213 104.093 45.45 103.72 45.086C103.356 44.7127 102.894 44.526 102.334 44.526C101.774 44.526 101.312 44.7127 100.948 45.086C100.584 45.45 100.402 45.9213 100.402 46.5C100.402 47.0787 100.584 47.5547 100.948 47.928ZM109.335 44.988C109.335 45.2867 109.759 45.5433 110.609 45.758C110.907 45.8233 111.178 45.9027 111.421 45.996C111.663 46.08 111.906 46.206 112.149 46.374C112.401 46.5327 112.597 46.7473 112.737 47.018C112.877 47.2887 112.947 47.6013 112.947 47.956C112.947 48.6747 112.676 49.23 112.135 49.622C111.593 50.0047 110.926 50.196 110.133 50.196C108.695 50.196 107.715 49.6407 107.193 48.53L108.761 47.648C108.975 48.2547 109.433 48.558 110.133 48.558C110.777 48.558 111.099 48.3573 111.099 47.956C111.099 47.6573 110.674 47.4007 109.825 47.186C109.507 47.102 109.237 47.018 109.013 46.934C108.789 46.85 108.546 46.7287 108.285 46.57C108.023 46.402 107.823 46.192 107.683 45.94C107.552 45.6787 107.487 45.3753 107.487 45.03C107.487 44.3393 107.739 43.798 108.243 43.406C108.756 43.0047 109.391 42.804 110.147 42.804C110.716 42.804 111.234 42.9347 111.701 43.196C112.167 43.448 112.536 43.812 112.807 44.288L111.267 45.128C111.043 44.652 110.669 44.414 110.147 44.414C109.913 44.414 109.717 44.47 109.559 44.582C109.409 44.6847 109.335 44.82 109.335 44.988ZM118 42.804C118.775 42.804 119.405 43.0607 119.89 43.574C120.394 44.0967 120.646 44.806 120.646 45.702V50H118.84V45.926C118.84 45.4687 118.714 45.114 118.462 44.862C118.22 44.61 117.884 44.484 117.454 44.484C116.978 44.484 116.6 44.6333 116.32 44.932C116.05 45.2213 115.914 45.6507 115.914 46.22V50H114.108V40.2H115.914V43.784C116.344 43.1307 117.039 42.804 118 42.804Z" fill="black"/>
</g>
<defs>
<filter id="filter0_d_189_3610" x="0" y="0" width="170" height="100" filterUnits="userSpaceOnUse" color-interpolation-filters="sRGB">
<feFlood flood-opacity="0" result="BackgroundImageFix"/>
<feColorMatrix in="SourceAlpha" type="matrix" values="0 0 0 0 0 0 0 0 0 0 0 0 0 0 0 0 0 0 127 0" result="hardAlpha"/>
<feOffset dy="4"/>
<feGaussianBlur stdDeviation="2"/>
<feComposite in2="hardAlpha" operator="out"/>
<feColorMatrix type="matrix" values="0 0 0 0 0 0 0 0 0 0 0 0 0 0 0 0 0 0 0.25 0"/>
<feBlend mode="normal" in2="BackgroundImageFix" result="effect1_dropShadow_189_3610"/>
<feBlend mode="normal" in="SourceGraphic" in2="effect1_dropShadow_189_3610" result="shape"/>
</filter>
</defs>
</svg>
