<svg width="170" height="100" viewBox="0 0 170 100" fill="none" xmlns="http://www.w3.org/2000/svg">
<g filter="url(#filter0_d_183_2848)">
<rect x="4.5" y="0.5" width="161" height="91" rx="19.5" stroke="#02D1AC" shape-rendering="crispEdges"/>
<path d="M32.3637 45.3182L27.8182 49.8643L29.6358 53.5L36.0001 47.136L32.3637 45.3182Z" fill="black"/>
<path d="M27.8547 44.4429L22.1001 38.6886C21.8482 38.4369 21.4405 38.4374 21.1888 38.6886C20.9371 38.9402 20.9371 39.3476 21.1888 39.6012L26.9433 45.3542C26.1145 46.6049 26.2504 48.3066 27.353 49.4091L31.9091 44.8519C30.8073 43.7499 29.1057 43.6134 27.8547 44.4429Z" fill="black"/>
<path d="M64.6361 50.196C63.1708 50.196 61.9528 49.706 60.9821 48.726C60.0208 47.7553 59.5401 46.5467 59.5401 45.1C59.5401 43.644 60.0208 42.4353 60.9821 41.474C61.9528 40.494 63.1708 40.004 64.6361 40.004C65.5228 40.004 66.3395 40.214 67.0861 40.634C67.8421 41.0447 68.4301 41.6047 68.8501 42.314L67.1841 43.28C66.9415 42.8413 66.5961 42.5007 66.1481 42.258C65.7001 42.006 65.1961 41.88 64.6361 41.88C63.6841 41.88 62.9141 42.1787 62.3261 42.776C61.7475 43.3827 61.4581 44.1573 61.4581 45.1C61.4581 46.0333 61.7475 46.8033 62.3261 47.41C62.9141 48.0073 63.6841 48.306 64.6361 48.306C65.1961 48.306 65.7001 48.1847 66.1481 47.942C66.6055 47.69 66.9508 47.3493 67.1841 46.92L68.8501 47.886C68.4301 48.5953 67.8421 49.16 67.0861 49.58C66.3395 49.9907 65.5228 50.196 64.6361 50.196ZM71.8683 50H70.0623V39.78H71.8683V50ZM80.3253 47.242H75.0473C75.2806 48.1193 75.9386 48.558 77.0213 48.558C77.712 48.558 78.2346 48.3247 78.5893 47.858L80.0453 48.698C79.3546 49.6967 78.3373 50.196 76.9933 50.196C75.836 50.196 74.9073 49.846 74.2073 49.146C73.5073 48.446 73.1573 47.564 73.1573 46.5C73.1573 45.4547 73.5026 44.5773 74.1933 43.868C74.8746 43.1587 75.7613 42.804 76.8533 42.804C77.8893 42.804 78.734 43.1587 79.3873 43.868C80.0593 44.5773 80.3953 45.4547 80.3953 46.5C80.3953 46.696 80.372 46.9433 80.3253 47.242ZM75.0193 45.842H78.5893C78.4866 45.3847 78.2766 45.0347 77.9593 44.792C77.6513 44.5493 77.2826 44.428 76.8533 44.428C76.368 44.428 75.9666 44.554 75.6493 44.806C75.332 45.0487 75.122 45.394 75.0193 45.842ZM86.9214 43.826V43H88.7274V50H86.9214V49.174C86.3801 49.8553 85.6194 50.196 84.6394 50.196C83.7061 50.196 82.9034 49.8413 82.2314 49.132C81.5687 48.4133 81.2374 47.536 81.2374 46.5C81.2374 45.4733 81.5687 44.6007 82.2314 43.882C82.9034 43.1633 83.7061 42.804 84.6394 42.804C85.6194 42.804 86.3801 43.1447 86.9214 43.826ZM83.5894 47.928C83.9534 48.292 84.4154 48.474 84.9754 48.474C85.5354 48.474 85.9974 48.292 86.3614 47.928C86.7347 47.5547 86.9214 47.0787 86.9214 46.5C86.9214 45.9213 86.7347 45.45 86.3614 45.086C85.9974 44.7127 85.5354 44.526 84.9754 44.526C84.4154 44.526 83.9534 44.7127 83.5894 45.086C83.2254 45.45 83.0434 45.9213 83.0434 46.5C83.0434 47.0787 83.2254 47.5547 83.5894 47.928ZM94.2571 42.804C95.0317 42.804 95.6617 43.0607 96.1471 43.574C96.6511 44.0967 96.9031 44.806 96.9031 45.702V50H95.0971V45.926C95.0971 45.4687 94.9711 45.114 94.7191 44.862C94.4764 44.61 94.1404 44.484 93.7111 44.484C93.2351 44.484 92.8571 44.6333 92.5771 44.932C92.3064 45.2213 92.1711 45.6507 92.1711 46.22V50H90.3651V43H92.1711V43.784C92.6004 43.1307 93.2957 42.804 94.2571 42.804ZM99.3411 42.16C99.0425 42.16 98.7811 42.0527 98.5571 41.838C98.3425 41.614 98.2351 41.3527 98.2351 41.054C98.2351 40.7553 98.3425 40.494 98.5571 40.27C98.7811 40.046 99.0425 39.934 99.3411 39.934C99.6491 39.934 99.9105 40.046 100.125 40.27C100.349 40.494 100.461 40.7553 100.461 41.054C100.461 41.3527 100.349 41.614 100.125 41.838C99.9105 42.0527 99.6491 42.16 99.3411 42.16ZM100.251 50H98.4451V43H100.251V50ZM105.796 42.804C106.571 42.804 107.201 43.0607 107.686 43.574C108.19 44.0967 108.442 44.806 108.442 45.702V50H106.636V45.926C106.636 45.4687 106.51 45.114 106.258 44.862C106.015 44.61 105.679 44.484 105.25 44.484C104.774 44.484 104.396 44.6333 104.116 44.932C103.845 45.2213 103.71 45.6507 103.71 46.22V50H101.904V43H103.71V43.784C104.139 43.1307 104.835 42.804 105.796 42.804ZM115.346 43.868V43H117.11V49.664C117.11 50.7373 116.751 51.5633 116.032 52.142C115.323 52.7113 114.464 52.996 113.456 52.996C111.87 52.996 110.764 52.4267 110.138 51.288L111.678 50.406C112.024 51.0593 112.635 51.386 113.512 51.386C114.082 51.386 114.53 51.2367 114.856 50.938C115.183 50.6393 115.346 50.2147 115.346 49.664V48.908C114.814 49.6173 114.068 49.972 113.106 49.972C112.117 49.972 111.286 49.6267 110.614 48.936C109.952 48.2267 109.62 47.3773 109.62 46.388C109.62 45.3987 109.956 44.554 110.628 43.854C111.3 43.154 112.126 42.804 113.106 42.804C114.068 42.804 114.814 43.1587 115.346 43.868ZM114.786 47.774C115.16 47.41 115.346 46.948 115.346 46.388C115.346 45.828 115.16 45.3753 114.786 45.03C114.422 44.666 113.956 44.484 113.386 44.484C112.826 44.484 112.355 44.666 111.972 45.03C111.608 45.3753 111.426 45.828 111.426 46.388C111.426 46.948 111.608 47.41 111.972 47.774C112.346 48.1287 112.817 48.306 113.386 48.306C113.956 48.306 114.422 48.1287 114.786 47.774Z" fill="black"/>
</g>
<defs>
<filter id="filter0_d_183_2848" x="0" y="0" width="170" height="100" filterUnits="userSpaceOnUse" color-interpolation-filters="sRGB">
<feFlood flood-opacity="0" result="BackgroundImageFix"/>
<feColorMatrix in="SourceAlpha" type="matrix" values="0 0 0 0 0 0 0 0 0 0 0 0 0 0 0 0 0 0 127 0" result="hardAlpha"/>
<feOffset dy="4"/>
<feGaussianBlur stdDeviation="2"/>
<feComposite in2="hardAlpha" operator="out"/>
<feColorMatrix type="matrix" values="0 0 0 0 0 0 0 0 0 0 0 0 0 0 0 0 0 0 0.25 0"/>
<feBlend mode="normal" in2="BackgroundImageFix" result="effect1_dropShadow_183_2848"/>
<feBlend mode="normal" in="SourceGraphic" in2="effect1_dropShadow_183_2848" result="shape"/>
</filter>
</defs>
</svg>
