<svg width="170" height="100" viewBox="0 0 170 100" fill="none" xmlns="http://www.w3.org/2000/svg">
<g filter="url(#filter0_d_183_2826)">
<rect x="4" width="162" height="92" rx="20" fill="white"/>
<rect x="4.5" y="0.5" width="161" height="91" rx="19.5" stroke="#02D1AC"/>
<path d="M31.0155 45.534L29.5193 45.1249C29.1982 45.0371 28.2429 44.9591 27.9923 44.6674C27.9956 44.4134 28.3113 44.0377 28.4227 43.8451C28.7441 43.2876 29.0565 42.7357 29.3799 42.1708L30.765 39.7373C30.947 39.4206 30.5777 39.1602 30.3359 39.373L22.7216 45.9508C22.5479 46.1025 22.6478 46.4087 22.8391 46.461L25.0321 47.0607C25.1824 47.1018 25.7915 47.1568 25.8446 47.3386C25.899 47.4889 25.6207 47.8351 25.5481 47.9666C24.7165 49.3963 23.8986 50.8298 23.0807 52.2633C22.8987 52.58 23.2681 52.8403 23.5098 52.6276L31.1173 46.0478C31.2998 45.8906 31.2068 45.5863 31.0155 45.534Z" fill="black"/>
<path d="M56.1838 45.954V48.152H60.3138V50H54.2518V40.2H60.2438V42.048H56.1838V44.134H59.8938V45.954H56.1838ZM63.3976 50H61.5916V39.78H63.3976V50ZM71.8546 47.242H66.5766C66.8099 48.1193 67.4679 48.558 68.5506 48.558C69.2413 48.558 69.7639 48.3247 70.1186 47.858L71.5746 48.698C70.8839 49.6967 69.8666 50.196 68.5226 50.196C67.3653 50.196 66.4366 49.846 65.7366 49.146C65.0366 48.446 64.6866 47.564 64.6866 46.5C64.6866 45.4547 65.0319 44.5773 65.7226 43.868C66.4039 43.1587 67.2906 42.804 68.3826 42.804C69.4186 42.804 70.2633 43.1587 70.9166 43.868C71.5886 44.5773 71.9246 45.4547 71.9246 46.5C71.9246 46.696 71.9013 46.9433 71.8546 47.242ZM66.5486 45.842H70.1186C70.0159 45.3847 69.8059 45.0347 69.4886 44.792C69.1806 44.5493 68.8119 44.428 68.3826 44.428C67.8973 44.428 67.4959 44.554 67.1786 44.806C66.8613 45.0487 66.6513 45.394 66.5486 45.842ZM76.4627 50.196C75.408 50.196 74.526 49.8413 73.8167 49.132C73.1167 48.4227 72.7667 47.5453 72.7667 46.5C72.7667 45.4547 73.1167 44.5773 73.8167 43.868C74.526 43.1587 75.408 42.804 76.4627 42.804C77.144 42.804 77.7647 42.9673 78.3247 43.294C78.8847 43.6207 79.3094 44.0593 79.5987 44.61L78.0447 45.52C77.9047 45.2307 77.69 45.002 77.4007 44.834C77.1207 44.666 76.8034 44.582 76.4487 44.582C75.9074 44.582 75.4594 44.764 75.1047 45.128C74.75 45.4827 74.5727 45.94 74.5727 46.5C74.5727 47.0413 74.75 47.4987 75.1047 47.872C75.4594 48.2267 75.9074 48.404 76.4487 48.404C76.8127 48.404 77.1347 48.3247 77.4147 48.166C77.704 47.998 77.9187 47.7693 78.0587 47.48L79.6267 48.376C79.3187 48.936 78.88 49.3793 78.3107 49.706C77.7507 50.0327 77.1347 50.196 76.4627 50.196ZM84.5859 43V44.736H83.0039V47.648C83.0039 47.8907 83.0645 48.068 83.1859 48.18C83.3072 48.292 83.4845 48.3573 83.7179 48.376C83.9512 48.3853 84.2405 48.3807 84.5859 48.362V50C83.3632 50.14 82.4905 50.028 81.9679 49.664C81.4545 49.2907 81.1979 48.6187 81.1979 47.648V44.736H79.9799V43H81.1979V41.586L83.0039 41.04V43H84.5859ZM87.7746 43V44.204C87.9332 43.7653 88.2039 43.434 88.5866 43.21C88.9692 42.9767 89.4079 42.86 89.9026 42.86V44.876C89.3519 44.8013 88.8572 44.9133 88.4186 45.212C87.9892 45.5013 87.7746 45.982 87.7746 46.654V50H85.9686V43H87.7746ZM91.8548 42.16C91.5561 42.16 91.2948 42.0527 91.0708 41.838C90.8561 41.614 90.7488 41.3527 90.7488 41.054C90.7488 40.7553 90.8561 40.494 91.0708 40.27C91.2948 40.046 91.5561 39.934 91.8548 39.934C92.1628 39.934 92.4241 40.046 92.6388 40.27C92.8628 40.494 92.9748 40.7553 92.9748 41.054C92.9748 41.3527 92.8628 41.614 92.6388 41.838C92.4241 42.0527 92.1628 42.16 91.8548 42.16ZM92.7648 50H90.9588V43H92.7648V50ZM97.7498 50.196C96.6951 50.196 95.8131 49.8413 95.1038 49.132C94.4038 48.4227 94.0538 47.5453 94.0538 46.5C94.0538 45.4547 94.4038 44.5773 95.1038 43.868C95.8131 43.1587 96.6951 42.804 97.7498 42.804C98.4311 42.804 99.0518 42.9673 99.6118 43.294C100.172 43.6207 100.596 44.0593 100.886 44.61L99.3318 45.52C99.1918 45.2307 98.9771 45.002 98.6878 44.834C98.4078 44.666 98.0905 44.582 97.7358 44.582C97.1945 44.582 96.7465 44.764 96.3918 45.128C96.0371 45.4827 95.8598 45.94 95.8598 46.5C95.8598 47.0413 96.0371 47.4987 96.3918 47.872C96.7465 48.2267 97.1945 48.404 97.7358 48.404C98.0998 48.404 98.4218 48.3247 98.7018 48.166C98.9911 47.998 99.2058 47.7693 99.3458 47.48L100.914 48.376C100.606 48.936 100.167 49.3793 99.5978 49.706C99.0378 50.0327 98.4218 50.196 97.7498 50.196ZM102.765 42.16C102.466 42.16 102.205 42.0527 101.981 41.838C101.766 41.614 101.659 41.3527 101.659 41.054C101.659 40.7553 101.766 40.494 101.981 40.27C102.205 40.046 102.466 39.934 102.765 39.934C103.073 39.934 103.334 40.046 103.549 40.27C103.773 40.494 103.885 40.7553 103.885 41.054C103.885 41.3527 103.773 41.614 103.549 41.838C103.334 42.0527 103.073 42.16 102.765 42.16ZM103.675 50H101.869V43H103.675V50ZM110.648 43.826V43H112.454V50H110.648V49.174C110.107 49.8553 109.346 50.196 108.366 50.196C107.433 50.196 106.63 49.8413 105.958 49.132C105.295 48.4133 104.964 47.536 104.964 46.5C104.964 45.4733 105.295 44.6007 105.958 43.882C106.63 43.1633 107.433 42.804 108.366 42.804C109.346 42.804 110.107 43.1447 110.648 43.826ZM107.316 47.928C107.68 48.292 108.142 48.474 108.702 48.474C109.262 48.474 109.724 48.292 110.088 47.928C110.461 47.5547 110.648 47.0787 110.648 46.5C110.648 45.9213 110.461 45.45 110.088 45.086C109.724 44.7127 109.262 44.526 108.702 44.526C108.142 44.526 107.68 44.7127 107.316 45.086C106.952 45.45 106.77 45.9213 106.77 46.5C106.77 47.0787 106.952 47.5547 107.316 47.928ZM117.984 42.804C118.758 42.804 119.388 43.0607 119.874 43.574C120.378 44.0967 120.63 44.806 120.63 45.702V50H118.824V45.926C118.824 45.4687 118.698 45.114 118.446 44.862C118.203 44.61 117.867 44.484 117.438 44.484C116.962 44.484 116.584 44.6333 116.304 44.932C116.033 45.2213 115.898 45.6507 115.898 46.22V50H114.092V43H115.898V43.784C116.327 43.1307 117.022 42.804 117.984 42.804Z" fill="black"/>
</g>
<defs>
<filter id="filter0_d_183_2826" x="0" y="0" width="170" height="100" filterUnits="userSpaceOnUse" color-interpolation-filters="sRGB">
<feFlood flood-opacity="0" result="BackgroundImageFix"/>
<feColorMatrix in="SourceAlpha" type="matrix" values="0 0 0 0 0 0 0 0 0 0 0 0 0 0 0 0 0 0 127 0" result="hardAlpha"/>
<feOffset dy="4"/>
<feGaussianBlur stdDeviation="2"/>
<feComposite in2="hardAlpha" operator="out"/>
<feColorMatrix type="matrix" values="0 0 0 0 0 0 0 0 0 0 0 0 0 0 0 0 0 0 0.25 0"/>
<feBlend mode="normal" in2="BackgroundImageFix" result="effect1_dropShadow_183_2826"/>
<feBlend mode="normal" in="SourceGraphic" in2="effect1_dropShadow_183_2826" result="shape"/>
</filter>
</defs>
</svg>
