<svg width="170" height="100" viewBox="0 0 170 100" fill="none" xmlns="http://www.w3.org/2000/svg">
<g filter="url(#filter0_d_185_3565)">
<rect x="4.5" y="0.5" width="161" height="91" rx="19.5" stroke="#02D1AC" shape-rendering="crispEdges"/>
<path d="M24.3417 40.5C23.0322 40.5 21.9612 41.7811 21.9612 43.3586V43.4309C22.0607 43.4094 22.1649 43.3947 22.2691 43.3947C23.0144 43.3947 23.6874 43.9873 23.9212 44.8421L24.1089 45.3306C24.7153 45.1384 25.8464 44.8421 27.03 44.8421C28.2006 44.8421 29.28 45.1225 29.8911 45.3215L30.1089 44.7336C30.3633 43.9341 31.0128 43.3947 31.7309 43.3947C31.8351 43.3947 31.9393 43.4094 32.0388 43.4309V43.3586C32.0388 41.7811 30.9678 40.5 29.6583 40.5H24.3417ZM22.2691 43.9737C21.5707 43.9737 21 44.6612 21 45.5025C21 46.1323 21.3276 46.6886 21.811 46.9137L22.3967 48.7319C22.637 49.7349 23.7006 49.7632 23.8235 49.7632H30.184C30.3041 49.7632 31.362 49.7372 31.5957 48.759L32.189 46.9137C32.6724 46.6886 33 46.1323 33 45.5025C33 44.6612 32.4293 43.9737 31.7309 43.9737C31.2071 43.9737 30.7303 44.374 30.5519 44.9507L30.1539 46.0271C29.6302 45.8259 28.3817 45.4211 27.03 45.4211C25.7159 45.4211 24.3867 45.8202 23.8385 46.0271L23.4706 45.0502C23.3082 44.4147 22.8191 43.9737 22.2691 43.9737ZM22.4643 49.8265L22.2691 50.3059C22.1874 50.5027 22.1733 50.73 22.2315 50.9391C22.2897 51.1483 22.4061 51.3112 22.5695 51.4095C22.6652 51.4672 22.7703 51.5 22.8773 51.5C23.1383 51.5 23.3758 51.3293 23.4931 51.0477L23.7785 50.3421C23.3467 50.3342 22.8464 50.1838 22.4643 49.8265ZM31.5357 49.8355C31.1546 50.1906 30.6552 50.3342 30.2215 50.3421L30.5069 51.0477C30.6242 51.3281 30.8617 51.5 31.1227 51.5C31.2278 51.5 31.3329 51.4672 31.4305 51.4095C31.7675 51.206 31.8989 50.7119 31.7309 50.3059L31.5357 49.8355Z" fill="black"/>
<path d="M66.4114 35.7V37.548H62.4914V39.872H66.2994V41.72H62.4914V45.5H60.5594V35.7H66.4114ZM72.3552 42.28V38.5H74.1612V45.5H72.3552V44.716C71.9258 45.3693 71.2305 45.696 70.2692 45.696C69.5038 45.696 68.8692 45.4393 68.3652 44.926C67.8705 44.4033 67.6232 43.694 67.6232 42.798V38.5H69.4292V42.574C69.4292 43.0313 69.5505 43.386 69.7932 43.638C70.0452 43.89 70.3858 44.016 70.8152 44.016C71.2912 44.016 71.6645 43.8713 71.9352 43.582C72.2152 43.2833 72.3552 42.8493 72.3552 42.28ZM77.6213 38.5V39.704C77.7799 39.2653 78.0506 38.934 78.4333 38.71C78.8159 38.4767 79.2546 38.36 79.7493 38.36V40.376C79.1986 40.3013 78.7039 40.4133 78.2653 40.712C77.8359 41.0013 77.6213 41.482 77.6213 42.154V45.5H75.8153V38.5H77.6213ZM84.6975 38.304C85.4722 38.304 86.1022 38.5607 86.5875 39.074C87.0915 39.5967 87.3435 40.306 87.3435 41.202V45.5H85.5375V41.426C85.5375 40.9687 85.4115 40.614 85.1595 40.362C84.9168 40.11 84.5808 39.984 84.1515 39.984C83.6755 39.984 83.2975 40.1333 83.0175 40.432C82.7468 40.7213 82.6115 41.1507 82.6115 41.72V45.5H80.8055V38.5H82.6115V39.284C83.0408 38.6307 83.7362 38.304 84.6975 38.304ZM89.7816 37.66C89.4829 37.66 89.2216 37.5527 88.9976 37.338C88.7829 37.114 88.6756 36.8527 88.6756 36.554C88.6756 36.2553 88.7829 35.994 88.9976 35.77C89.2216 35.546 89.4829 35.434 89.7816 35.434C90.0896 35.434 90.3509 35.546 90.5656 35.77C90.7896 35.994 90.9016 36.2553 90.9016 36.554C90.9016 36.8527 90.7896 37.114 90.5656 37.338C90.3509 37.5527 90.0896 37.66 89.7816 37.66ZM90.6916 45.5H88.8856V38.5H90.6916V45.5ZM96.3486 38.5V40.236H94.7666V43.148C94.7666 43.3907 94.8272 43.568 94.9486 43.68C95.0699 43.792 95.2472 43.8573 95.4806 43.876C95.7139 43.8853 96.0032 43.8807 96.3486 43.862V45.5C95.1259 45.64 94.2532 45.528 93.7306 45.164C93.2172 44.7907 92.9606 44.1187 92.9606 43.148V40.236H91.7426V38.5H92.9606V37.086L94.7666 36.54V38.5H96.3486ZM102.351 42.28V38.5H104.157V45.5H102.351V44.716C101.922 45.3693 101.227 45.696 100.265 45.696C99.4999 45.696 98.8653 45.4393 98.3613 44.926C97.8666 44.4033 97.6193 43.694 97.6193 42.798V38.5H99.4253V42.574C99.4253 43.0313 99.5466 43.386 99.7893 43.638C100.041 43.89 100.382 44.016 100.811 44.016C101.287 44.016 101.661 43.8713 101.931 43.582C102.211 43.2833 102.351 42.8493 102.351 42.28ZM107.617 38.5V39.704C107.776 39.2653 108.047 38.934 108.429 38.71C108.812 38.4767 109.251 38.36 109.745 38.36V40.376C109.195 40.3013 108.7 40.4133 108.261 40.712C107.832 41.0013 107.617 41.482 107.617 42.154V45.5H105.811V38.5H107.617ZM117.346 42.742H112.068C112.301 43.6193 112.959 44.058 114.042 44.058C114.732 44.058 115.255 43.8247 115.61 43.358L117.066 44.198C116.375 45.1967 115.358 45.696 114.014 45.696C112.856 45.696 111.928 45.346 111.228 44.646C110.528 43.946 110.178 43.064 110.178 42C110.178 40.9547 110.523 40.0773 111.214 39.368C111.895 38.6587 112.782 38.304 113.874 38.304C114.91 38.304 115.754 38.6587 116.408 39.368C117.08 40.0773 117.416 40.9547 117.416 42C117.416 42.196 117.392 42.4433 117.346 42.742ZM112.04 41.342H115.61C115.507 40.8847 115.297 40.5347 114.98 40.292C114.672 40.0493 114.303 39.928 113.874 39.928C113.388 39.928 112.987 40.054 112.67 40.306C112.352 40.5487 112.142 40.894 112.04 41.342ZM81.6214 52.7H83.6094V62.5H81.6914V56.144L78.9334 60.694H78.7094L75.9514 56.158V62.5H74.0194V52.7H76.0074L78.8214 57.334L81.6214 52.7ZM91.3154 61.632C90.6061 62.3413 89.7287 62.696 88.6834 62.696C87.6381 62.696 86.7607 62.3413 86.0514 61.632C85.3421 60.9227 84.9874 60.0453 84.9874 59C84.9874 57.964 85.3421 57.0913 86.0514 56.382C86.7701 55.6633 87.6474 55.304 88.6834 55.304C89.7194 55.304 90.5967 55.6633 91.3154 56.382C92.0341 57.1007 92.3934 57.9733 92.3934 59C92.3934 60.036 92.0341 60.9133 91.3154 61.632ZM87.3254 60.386C87.6894 60.75 88.1421 60.932 88.6834 60.932C89.2247 60.932 89.6774 60.75 90.0414 60.386C90.4054 60.022 90.5874 59.56 90.5874 59C90.5874 58.44 90.4054 57.978 90.0414 57.614C89.6774 57.25 89.2247 57.068 88.6834 57.068C88.1421 57.068 87.6894 57.25 87.3254 57.614C86.9707 57.9873 86.7934 58.4493 86.7934 59C86.7934 59.5507 86.9707 60.0127 87.3254 60.386ZM96.2885 60.4L97.9965 55.5H99.9845L97.3245 62.5H95.2665L92.6065 55.5H94.5945L96.2885 60.4ZM107.386 59.742H102.108C102.341 60.6193 102.999 61.058 104.082 61.058C104.773 61.058 105.295 60.8247 105.65 60.358L107.106 61.198C106.415 62.1967 105.398 62.696 104.054 62.696C102.897 62.696 101.968 62.346 101.268 61.646C100.568 60.946 100.218 60.064 100.218 59C100.218 57.9547 100.563 57.0773 101.254 56.368C101.935 55.6587 102.822 55.304 103.914 55.304C104.95 55.304 105.795 55.6587 106.448 56.368C107.12 57.0773 107.456 57.9547 107.456 59C107.456 59.196 107.433 59.4433 107.386 59.742ZM102.08 58.342H105.65C105.547 57.8847 105.337 57.5347 105.02 57.292C104.712 57.0493 104.343 56.928 103.914 56.928C103.429 56.928 103.027 57.054 102.71 57.306C102.393 57.5487 102.183 57.894 102.08 58.342Z" fill="black"/>
</g>
<defs>
<filter id="filter0_d_185_3565" x="0" y="0" width="170" height="100" filterUnits="userSpaceOnUse" color-interpolation-filters="sRGB">
<feFlood flood-opacity="0" result="BackgroundImageFix"/>
<feColorMatrix in="SourceAlpha" type="matrix" values="0 0 0 0 0 0 0 0 0 0 0 0 0 0 0 0 0 0 127 0" result="hardAlpha"/>
<feOffset dy="4"/>
<feGaussianBlur stdDeviation="2"/>
<feComposite in2="hardAlpha" operator="out"/>
<feColorMatrix type="matrix" values="0 0 0 0 0 0 0 0 0 0 0 0 0 0 0 0 0 0 0.25 0"/>
<feBlend mode="normal" in2="BackgroundImageFix" result="effect1_dropShadow_185_3565"/>
<feBlend mode="normal" in="SourceGraphic" in2="effect1_dropShadow_185_3565" result="shape"/>
</filter>
</defs>
</svg>
