<svg width="170" height="100" viewBox="0 0 170 100" fill="none" xmlns="http://www.w3.org/2000/svg">
<g filter="url(#filter0_d_188_3578)">
<rect x="4" width="162" height="92" rx="20" fill="white"/>
<rect x="4.5" y="0.5" width="161" height="91" rx="19.5" stroke="#02D1AC"/>
<path d="M32.358 48.5694L29.7761 46.7056L30.844 45.2264L31.3603 45.5992C31.6455 45.805 32.0201 45.7733 32.1971 45.5282L34.9307 41.7415C35.4324 41.0466 35.2916 39.9992 34.5354 39.3508C33.6679 38.6068 32.4369 38.6676 31.8753 39.4456L29.0989 43.2915C28.9219 43.5366 29.0097 43.9022 29.2949 44.108L29.8113 44.4808L28.7434 45.96L26.1616 44.0962C25.8763 43.8902 25.5018 43.922 25.3248 44.1671L24.9119 44.7392C23.3581 46.8915 23.1601 49.7875 24.382 52.486C24.4837 52.7106 24.7097 52.8737 24.9549 52.8996C27.9008 53.21 30.5873 52.1104 32.1411 49.958L32.554 49.386C32.731 49.1408 32.6432 48.7754 32.358 48.5694Z" fill="black"/>
<path d="M58.2302 44.736H63.1442V45.492C63.1442 46.892 62.6962 48.026 61.8002 48.894C60.9042 49.762 59.7469 50.196 58.3282 50.196C56.8162 50.196 55.5609 49.706 54.5622 48.726C53.5729 47.7367 53.0782 46.5327 53.0782 45.114C53.0782 43.686 53.5682 42.4773 54.5482 41.488C55.5375 40.4987 56.7602 40.004 58.2162 40.004C59.1215 40.004 59.9522 40.2093 60.7082 40.62C61.4642 41.0307 62.0569 41.586 62.4862 42.286L60.8342 43.238C60.6009 42.8367 60.2462 42.51 59.7702 42.258C59.2942 42.006 58.7715 41.88 58.2022 41.88C57.2595 41.88 56.4895 42.188 55.8922 42.804C55.2949 43.4013 54.9962 44.1713 54.9962 45.114C54.9962 46.038 55.2995 46.8033 55.9062 47.41C56.5129 48.0073 57.3249 48.306 58.3422 48.306C59.0795 48.306 59.6955 48.1427 60.1902 47.816C60.6849 47.4893 61.0209 47.032 61.1982 46.444H58.2302V44.736ZM69.7544 43.826V43H71.5604V50H69.7544V49.174C69.2131 49.8553 68.4524 50.196 67.4724 50.196C66.5391 50.196 65.7364 49.8413 65.0644 49.132C64.4017 48.4133 64.0704 47.536 64.0704 46.5C64.0704 45.4733 64.4017 44.6007 65.0644 43.882C65.7364 43.1633 66.5391 42.804 67.4724 42.804C68.4524 42.804 69.2131 43.1447 69.7544 43.826ZM66.4224 47.928C66.7864 48.292 67.2484 48.474 67.8084 48.474C68.3684 48.474 68.8304 48.292 69.1944 47.928C69.5677 47.5547 69.7544 47.0787 69.7544 46.5C69.7544 45.9213 69.5677 45.45 69.1944 45.086C68.8304 44.7127 68.3684 44.526 67.8084 44.526C67.2484 44.526 66.7864 44.7127 66.4224 45.086C66.0584 45.45 65.8764 45.9213 65.8764 46.5C65.8764 47.0787 66.0584 47.5547 66.4224 47.928ZM75.0041 43V44.204C75.1627 43.7653 75.4334 43.434 75.8161 43.21C76.1987 42.9767 76.6374 42.86 77.1321 42.86V44.876C76.5814 44.8013 76.0867 44.9133 75.6481 45.212C75.2187 45.5013 75.0041 45.982 75.0041 46.654V50H73.1981V43H75.0041ZM83.2345 43.826V40.2H85.0405V50H83.2345V49.174C82.7025 49.8553 81.9465 50.196 80.9665 50.196C80.0239 50.196 79.2165 49.8413 78.5445 49.132C77.8819 48.4133 77.5505 47.536 77.5505 46.5C77.5505 45.4733 77.8819 44.6007 78.5445 43.882C79.2165 43.1633 80.0239 42.804 80.9665 42.804C81.9465 42.804 82.7025 43.1447 83.2345 43.826ZM79.9025 47.928C80.2852 48.292 80.7519 48.474 81.3025 48.474C81.8625 48.474 82.3245 48.292 82.6885 47.928C83.0525 47.5547 83.2345 47.0787 83.2345 46.5C83.2345 45.9213 83.0525 45.45 82.6885 45.086C82.3245 44.7127 81.8625 44.526 81.3025 44.526C80.7425 44.526 80.2759 44.7127 79.9025 45.086C79.5385 45.45 79.3565 45.9213 79.3565 46.5C79.3565 47.0787 79.5385 47.5547 79.9025 47.928ZM93.4962 47.242H88.2182C88.4515 48.1193 89.1095 48.558 90.1922 48.558C90.8829 48.558 91.4055 48.3247 91.7602 47.858L93.2162 48.698C92.5255 49.6967 91.5082 50.196 90.1642 50.196C89.0069 50.196 88.0782 49.846 87.3782 49.146C86.6782 48.446 86.3282 47.564 86.3282 46.5C86.3282 45.4547 86.6735 44.5773 87.3642 43.868C88.0455 43.1587 88.9322 42.804 90.0242 42.804C91.0602 42.804 91.9049 43.1587 92.5582 43.868C93.2302 44.5773 93.5662 45.4547 93.5662 46.5C93.5662 46.696 93.5429 46.9433 93.4962 47.242ZM88.1902 45.842H91.7602C91.6575 45.3847 91.4475 45.0347 91.1302 44.792C90.8222 44.5493 90.4535 44.428 90.0242 44.428C89.5389 44.428 89.1375 44.554 88.8202 44.806C88.5029 45.0487 88.2929 45.394 88.1902 45.842ZM98.719 42.804C99.4936 42.804 100.124 43.0607 100.609 43.574C101.113 44.0967 101.365 44.806 101.365 45.702V50H99.559V45.926C99.559 45.4687 99.433 45.114 99.181 44.862C98.9383 44.61 98.6023 44.484 98.173 44.484C97.697 44.484 97.319 44.6333 97.039 44.932C96.7683 45.2213 96.633 45.6507 96.633 46.22V50H94.827V43H96.633V43.784C97.0623 43.1307 97.7576 42.804 98.719 42.804ZM103.803 42.16C103.504 42.16 103.243 42.0527 103.019 41.838C102.804 41.614 102.697 41.3527 102.697 41.054C102.697 40.7553 102.804 40.494 103.019 40.27C103.243 40.046 103.504 39.934 103.803 39.934C104.111 39.934 104.372 40.046 104.587 40.27C104.811 40.494 104.923 40.7553 104.923 41.054C104.923 41.3527 104.811 41.614 104.587 41.838C104.372 42.0527 104.111 42.16 103.803 42.16ZM104.713 50H102.907V43H104.713V50ZM110.258 42.804C111.033 42.804 111.663 43.0607 112.148 43.574C112.652 44.0967 112.904 44.806 112.904 45.702V50H111.098V45.926C111.098 45.4687 110.972 45.114 110.72 44.862C110.477 44.61 110.141 44.484 109.712 44.484C109.236 44.484 108.858 44.6333 108.578 44.932C108.307 45.2213 108.172 45.6507 108.172 46.22V50H106.366V43H108.172V43.784C108.601 43.1307 109.297 42.804 110.258 42.804ZM119.808 43.868V43H121.572V49.664C121.572 50.7373 121.213 51.5633 120.494 52.142C119.785 52.7113 118.926 52.996 117.918 52.996C116.331 52.996 115.225 52.4267 114.6 51.288L116.14 50.406C116.485 51.0593 117.097 51.386 117.974 51.386C118.543 51.386 118.991 51.2367 119.318 50.938C119.645 50.6393 119.808 50.2147 119.808 49.664V48.908C119.276 49.6173 118.529 49.972 117.568 49.972C116.579 49.972 115.748 49.6267 115.076 48.936C114.413 48.2267 114.082 47.3773 114.082 46.388C114.082 45.3987 114.418 44.554 115.09 43.854C115.762 43.154 116.588 42.804 117.568 42.804C118.529 42.804 119.276 43.1587 119.808 43.868ZM119.248 47.774C119.621 47.41 119.808 46.948 119.808 46.388C119.808 45.828 119.621 45.3753 119.248 45.03C118.884 44.666 118.417 44.484 117.848 44.484C117.288 44.484 116.817 44.666 116.434 45.03C116.07 45.3753 115.888 45.828 115.888 46.388C115.888 46.948 116.07 47.41 116.434 47.774C116.807 48.1287 117.279 48.306 117.848 48.306C118.417 48.306 118.884 48.1287 119.248 47.774Z" fill="black"/>
</g>
<defs>
<filter id="filter0_d_188_3578" x="0" y="0" width="170" height="100" filterUnits="userSpaceOnUse" color-interpolation-filters="sRGB">
<feFlood flood-opacity="0" result="BackgroundImageFix"/>
<feColorMatrix in="SourceAlpha" type="matrix" values="0 0 0 0 0 0 0 0 0 0 0 0 0 0 0 0 0 0 127 0" result="hardAlpha"/>
<feOffset dy="4"/>
<feGaussianBlur stdDeviation="2"/>
<feComposite in2="hardAlpha" operator="out"/>
<feColorMatrix type="matrix" values="0 0 0 0 0 0 0 0 0 0 0 0 0 0 0 0 0 0 0.25 0"/>
<feBlend mode="normal" in2="BackgroundImageFix" result="effect1_dropShadow_188_3578"/>
<feBlend mode="normal" in="SourceGraphic" in2="effect1_dropShadow_188_3578" result="shape"/>
</filter>
</defs>
</svg>
