<svg width="170" height="100" viewBox="0 0 170 100" fill="none" xmlns="http://www.w3.org/2000/svg">
<g filter="url(#filter0_d_190_3624)">
<rect x="4.5" y="0.5" width="161" height="91" rx="19.5" stroke="#02D1AC" shape-rendering="crispEdges"/>
<path d="M33.7692 45.4698L28.075 40.2198C27.9161 40.0733 27.7079 40 27.4999 40C27.2918 40 27.0836 40.0733 26.9247 40.2198L21.2305 45.4698C20.9128 45.7634 20.9287 46.2228 21.2463 46.5156C21.5648 46.81 22.0303 46.8533 22.349 46.5595L22.6268 46.3032V51.25C22.6268 51.6646 22.9906 52 23.4402 52H26.6941V49H28.3211V52H31.5749C32.0246 52 32.3884 51.6646 32.3884 51.25V46.3178L32.6314 46.5419C32.9491 46.8347 33.4345 46.8085 33.7532 46.5154C34.071 46.2228 34.0877 45.7626 33.7692 45.4698Z" fill="#101010"/>
<path d="M57.4761 44.592V40.7H59.3941V50.5H57.4761V46.44H53.8361V50.5H51.9041V40.7H53.8361V44.592H57.4761ZM67.0947 49.632C66.3854 50.3413 65.508 50.696 64.4627 50.696C63.4174 50.696 62.54 50.3413 61.8307 49.632C61.1214 48.9227 60.7667 48.0453 60.7667 47C60.7667 45.964 61.1214 45.0913 61.8307 44.382C62.5494 43.6633 63.4267 43.304 64.4627 43.304C65.4987 43.304 66.376 43.6633 67.0947 44.382C67.8134 45.1007 68.1727 45.9733 68.1727 47C68.1727 48.036 67.8134 48.9133 67.0947 49.632ZM63.1047 48.386C63.4687 48.75 63.9214 48.932 64.4627 48.932C65.004 48.932 65.4567 48.75 65.8207 48.386C66.1847 48.022 66.3667 47.56 66.3667 47C66.3667 46.44 66.1847 45.978 65.8207 45.614C65.4567 45.25 65.004 45.068 64.4627 45.068C63.9214 45.068 63.4687 45.25 63.1047 45.614C62.75 45.9873 62.5727 46.4493 62.5727 47C62.5727 47.5507 62.75 48.0127 63.1047 48.386ZM74.0632 47.28V43.5H75.8692V50.5H74.0632V49.716C73.6339 50.3693 72.9385 50.696 71.9772 50.696C71.2119 50.696 70.5772 50.4393 70.0732 49.926C69.5785 49.4033 69.3312 48.694 69.3312 47.798V43.5H71.1372V47.574C71.1372 48.0313 71.2585 48.386 71.5012 48.638C71.7532 48.89 72.0939 49.016 72.5232 49.016C72.9992 49.016 73.3725 48.8713 73.6432 48.582C73.9232 48.2833 74.0632 47.8493 74.0632 47.28ZM79.1346 45.488C79.1346 45.7867 79.5592 46.0433 80.4086 46.258C80.7072 46.3233 80.9779 46.4027 81.2206 46.496C81.4632 46.58 81.7059 46.706 81.9486 46.874C82.2006 47.0327 82.3966 47.2473 82.5366 47.518C82.6766 47.7887 82.7466 48.1013 82.7466 48.456C82.7466 49.1747 82.4759 49.73 81.9346 50.122C81.3932 50.5047 80.7259 50.696 79.9326 50.696C78.4952 50.696 77.5152 50.1407 76.9926 49.03L78.5606 48.148C78.7752 48.7547 79.2326 49.058 79.9326 49.058C80.5766 49.058 80.8986 48.8573 80.8986 48.456C80.8986 48.1573 80.4739 47.9007 79.6246 47.686C79.3072 47.602 79.0366 47.518 78.8126 47.434C78.5886 47.35 78.3459 47.2287 78.0846 47.07C77.8232 46.902 77.6226 46.692 77.4826 46.44C77.3519 46.1787 77.2866 45.8753 77.2866 45.53C77.2866 44.8393 77.5386 44.298 78.0426 43.906C78.5559 43.5047 79.1906 43.304 79.9466 43.304C80.5159 43.304 81.0339 43.4347 81.5006 43.696C81.9672 43.948 82.3359 44.312 82.6066 44.788L81.0666 45.628C80.8426 45.152 80.4692 44.914 79.9466 44.914C79.7132 44.914 79.5172 44.97 79.3586 45.082C79.2092 45.1847 79.1346 45.32 79.1346 45.488ZM90.6163 47.742H85.3383C85.5717 48.6193 86.2297 49.058 87.3123 49.058C88.003 49.058 88.5257 48.8247 88.8803 48.358L90.3363 49.198C89.6457 50.1967 88.6283 50.696 87.2843 50.696C86.127 50.696 85.1983 50.346 84.4983 49.646C83.7983 48.946 83.4483 48.064 83.4483 47C83.4483 45.9547 83.7937 45.0773 84.4843 44.368C85.1657 43.6587 86.0523 43.304 87.1443 43.304C88.1803 43.304 89.025 43.6587 89.6783 44.368C90.3503 45.0773 90.6863 45.9547 90.6863 47C90.6863 47.196 90.663 47.4433 90.6163 47.742ZM85.3103 46.342H88.8803C88.7777 45.8847 88.5677 45.5347 88.2503 45.292C87.9423 45.0493 87.5737 44.928 87.1443 44.928C86.659 44.928 86.2577 45.054 85.9403 45.306C85.623 45.5487 85.413 45.894 85.3103 46.342ZM98.3657 47.812L99.5557 43.5H101.474L99.2477 50.5H97.5257L96.2377 46.258L94.9497 50.5H93.2277L91.0017 43.5H92.9197L94.1097 47.798L95.3837 43.5H97.0917L98.3657 47.812ZM108.138 49.632C107.428 50.3413 106.551 50.696 105.506 50.696C104.46 50.696 103.583 50.3413 102.874 49.632C102.164 48.9227 101.81 48.0453 101.81 47C101.81 45.964 102.164 45.0913 102.874 44.382C103.592 43.6633 104.47 43.304 105.506 43.304C106.542 43.304 107.419 43.6633 108.138 44.382C108.856 45.1007 109.216 45.9733 109.216 47C109.216 48.036 108.856 48.9133 108.138 49.632ZM104.148 48.386C104.512 48.75 104.964 48.932 105.506 48.932C106.047 48.932 106.5 48.75 106.864 48.386C107.228 48.022 107.41 47.56 107.41 47C107.41 46.44 107.228 45.978 106.864 45.614C106.5 45.25 106.047 45.068 105.506 45.068C104.964 45.068 104.512 45.25 104.148 45.614C103.793 45.9873 103.616 46.4493 103.616 47C103.616 47.5507 103.793 48.0127 104.148 48.386ZM112.292 43.5V44.704C112.451 44.2653 112.721 43.934 113.104 43.71C113.487 43.4767 113.925 43.36 114.42 43.36V45.376C113.869 45.3013 113.375 45.4133 112.936 45.712C112.507 46.0013 112.292 46.482 112.292 47.154V50.5H110.486V43.5H112.292ZM119.032 46.958L121.93 50.5H119.83L117.282 47.322V50.5H115.476V40.7H117.282V46.58L119.69 43.5H121.846L119.032 46.958Z" fill="black"/>
</g>
<defs>
<filter id="filter0_d_190_3624" x="0" y="0" width="170" height="100" filterUnits="userSpaceOnUse" color-interpolation-filters="sRGB">
<feFlood flood-opacity="0" result="BackgroundImageFix"/>
<feColorMatrix in="SourceAlpha" type="matrix" values="0 0 0 0 0 0 0 0 0 0 0 0 0 0 0 0 0 0 127 0" result="hardAlpha"/>
<feOffset dy="4"/>
<feGaussianBlur stdDeviation="2"/>
<feComposite in2="hardAlpha" operator="out"/>
<feColorMatrix type="matrix" values="0 0 0 0 0 0 0 0 0 0 0 0 0 0 0 0 0 0 0.25 0"/>
<feBlend mode="normal" in2="BackgroundImageFix" result="effect1_dropShadow_190_3624"/>
<feBlend mode="normal" in="SourceGraphic" in2="effect1_dropShadow_190_3624" result="shape"/>
</filter>
</defs>
</svg>
