<svg width="170" height="100" viewBox="0 0 170 100" fill="none" xmlns="http://www.w3.org/2000/svg">
<g filter="url(#filter0_d_189_3585)">
<rect x="4.5" y="0.5" width="161" height="91" rx="19.5" stroke="#02D1AC" shape-rendering="crispEdges"/>
<path d="M35.6783 47.8337C35.6743 47.4707 35.4112 47.1358 35.0894 47.0852L32.6824 46.6815V45.8345C32.6824 45.4599 32.4105 45.1547 32.0752 45.1512L28.3173 44.7932L28.3062 44.7927C27.9681 44.7927 27.6931 45.0992 27.6931 45.476V45.8448L25.456 45.4697L24.8012 40.7397C24.7532 40.393 24.4878 40.0626 24.1839 39.9712L21.4117 39.1377C21.2375 39.0852 21.0583 39.2002 21.0113 39.3943C20.9644 39.5884 21.0675 39.7881 21.2416 39.8405L24.0138 40.674C24.0688 40.6905 24.1471 40.788 24.1558 40.8508L24.8164 45.6225C24.7258 45.7302 24.6709 45.877 24.6697 46.0442L24.3484 51.13L24.348 51.1403C24.348 51.5171 24.6231 51.8236 24.9611 51.8236H25.2256L25.1871 51.6442C25.1447 51.4466 25.1233 51.2446 25.1233 51.044C25.1233 49.62 26.1627 48.4614 27.4403 48.4614C28.718 48.4614 29.7574 49.62 29.7574 51.044C29.7574 51.2447 29.7359 51.4466 29.6935 51.6442L29.6551 51.8236H31.3903L31.3776 51.665C31.3747 51.6292 31.3727 51.5979 31.3715 51.5687C31.37 51.535 31.3693 51.5019 31.3693 51.4702C31.3693 50.2812 32.2371 49.3139 33.3039 49.3139C34.3707 49.3139 35.2386 50.2812 35.2386 51.4702C35.2386 51.511 35.2373 51.554 35.2344 51.6055L35.2224 51.8203L35.4057 51.7528C35.693 51.6471 36 51.4307 36 51.1403V51.1324L35.6783 47.8337Z" fill="black"/>
<path d="M27.4403 49.3473C26.601 49.3473 25.9181 50.1085 25.9181 51.044C25.9181 51.9795 26.601 52.7407 27.4403 52.7407C28.2797 52.7407 28.9625 51.9795 28.9625 51.044C28.9625 50.1085 28.2797 49.3473 27.4403 49.3473ZM27.4403 51.8672C27.0331 51.8672 26.7018 51.4979 26.7018 51.044C26.7018 50.5902 27.0331 50.2209 27.4403 50.2209C27.8475 50.2209 28.1788 50.5902 28.1788 51.044C28.1788 51.4979 27.8475 51.8672 27.4403 51.8672Z" fill="black"/>
<path d="M33.3038 50.0656C32.6089 50.0656 32.0436 50.6958 32.0436 51.4703C32.0436 52.2448 32.6089 52.875 33.3038 52.875C33.9987 52.875 34.5641 52.2448 34.5641 51.4703C34.5641 50.6957 33.9988 50.0656 33.3038 50.0656ZM33.3038 52.1471C32.969 52.1471 32.6967 51.8434 32.6967 51.4703C32.6967 51.0971 32.969 50.7935 33.3038 50.7935C33.6387 50.7935 33.911 51.0971 33.911 51.4703C33.911 51.8434 33.6387 52.1471 33.3038 52.1471Z" fill="black"/>
<path d="M58.6086 40.2V48.152H62.3466V50H56.6766V40.2H58.6086ZM68.5435 43.826V43H70.3495V50H68.5435V49.174C68.0021 49.8553 67.2415 50.196 66.2615 50.196C65.3281 50.196 64.5255 49.8413 63.8535 49.132C63.1908 48.4133 62.8595 47.536 62.8595 46.5C62.8595 45.4733 63.1908 44.6007 63.8535 43.882C64.5255 43.1633 65.3281 42.804 66.2615 42.804C67.2415 42.804 68.0021 43.1447 68.5435 43.826ZM65.2115 47.928C65.5755 48.292 66.0375 48.474 66.5975 48.474C67.1575 48.474 67.6195 48.292 67.9835 47.928C68.3568 47.5547 68.5435 47.0787 68.5435 46.5C68.5435 45.9213 68.3568 45.45 67.9835 45.086C67.6195 44.7127 67.1575 44.526 66.5975 44.526C66.0375 44.526 65.5755 44.7127 65.2115 45.086C64.8475 45.45 64.6655 45.9213 64.6655 46.5C64.6655 47.0787 64.8475 47.5547 65.2115 47.928ZM78.6791 47.312L79.8691 43H81.7871L79.5611 50H77.8391L76.5511 45.758L75.2631 50H73.5411L71.3151 43H73.2331L74.4231 47.298L75.6971 43H77.4051L78.6791 47.312ZM86.6526 42.804C87.4272 42.804 88.0572 43.0607 88.5426 43.574C89.0466 44.0967 89.2986 44.806 89.2986 45.702V50H87.4926V45.926C87.4926 45.4687 87.3666 45.114 87.1146 44.862C86.8719 44.61 86.5359 44.484 86.1066 44.484C85.6306 44.484 85.2526 44.6333 84.9726 44.932C84.7019 45.2213 84.5666 45.6507 84.5666 46.22V50H82.7606V43H84.5666V43.784C84.9959 43.1307 85.6912 42.804 86.6526 42.804ZM99.0726 50.196C97.6073 50.196 96.3893 49.706 95.4186 48.726C94.4573 47.7553 93.9766 46.5467 93.9766 45.1C93.9766 43.644 94.4573 42.4353 95.4186 41.474C96.3893 40.494 97.6073 40.004 99.0726 40.004C99.9593 40.004 100.776 40.214 101.523 40.634C102.279 41.0447 102.867 41.6047 103.287 42.314L101.621 43.28C101.378 42.8413 101.033 42.5007 100.585 42.258C100.137 42.006 99.6326 41.88 99.0726 41.88C98.1206 41.88 97.3506 42.1787 96.7626 42.776C96.184 43.3827 95.8946 44.1573 95.8946 45.1C95.8946 46.0333 96.184 46.8033 96.7626 47.41C97.3506 48.0073 98.1206 48.306 99.0726 48.306C99.6326 48.306 100.137 48.1847 100.585 47.942C101.042 47.69 101.387 47.3493 101.621 46.92L103.287 47.886C102.867 48.5953 102.279 49.16 101.523 49.58C100.776 49.9907 99.9593 50.196 99.0726 50.196ZM109.75 43.826V43H111.556V50H109.75V49.174C109.209 49.8553 108.448 50.196 107.468 50.196C106.535 50.196 105.732 49.8413 105.06 49.132C104.398 48.4133 104.066 47.536 104.066 46.5C104.066 45.4733 104.398 44.6007 105.06 43.882C105.732 43.1633 106.535 42.804 107.468 42.804C108.448 42.804 109.209 43.1447 109.75 43.826ZM106.418 47.928C106.782 48.292 107.244 48.474 107.804 48.474C108.364 48.474 108.826 48.292 109.19 47.928C109.564 47.5547 109.75 47.0787 109.75 46.5C109.75 45.9213 109.564 45.45 109.19 45.086C108.826 44.7127 108.364 44.526 107.804 44.526C107.244 44.526 106.782 44.7127 106.418 45.086C106.054 45.45 105.872 45.9213 105.872 46.5C105.872 47.0787 106.054 47.5547 106.418 47.928ZM115 43V44.204C115.159 43.7653 115.429 43.434 115.812 43.21C116.195 42.9767 116.633 42.86 117.128 42.86V44.876C116.577 44.8013 116.083 44.9133 115.644 45.212C115.215 45.5013 115 45.982 115 46.654V50H113.194V43H115ZM124.729 47.242H119.451C119.684 48.1193 120.342 48.558 121.425 48.558C122.115 48.558 122.638 48.3247 122.993 47.858L124.449 48.698C123.758 49.6967 122.741 50.196 121.397 50.196C120.239 50.196 119.311 49.846 118.611 49.146C117.911 48.446 117.561 47.564 117.561 46.5C117.561 45.4547 117.906 44.5773 118.597 43.868C119.278 43.1587 120.165 42.804 121.257 42.804C122.293 42.804 123.137 43.1587 123.791 43.868C124.463 44.5773 124.799 45.4547 124.799 46.5C124.799 46.696 124.775 46.9433 124.729 47.242ZM119.423 45.842H122.993C122.89 45.3847 122.68 45.0347 122.363 44.792C122.055 44.5493 121.686 44.428 121.257 44.428C120.771 44.428 120.37 44.554 120.053 44.806C119.735 45.0487 119.525 45.394 119.423 45.842Z" fill="black"/>
</g>
<defs>
<filter id="filter0_d_189_3585" x="0" y="0" width="170" height="100" filterUnits="userSpaceOnUse" color-interpolation-filters="sRGB">
<feFlood flood-opacity="0" result="BackgroundImageFix"/>
<feColorMatrix in="SourceAlpha" type="matrix" values="0 0 0 0 0 0 0 0 0 0 0 0 0 0 0 0 0 0 127 0" result="hardAlpha"/>
<feOffset dy="4"/>
<feGaussianBlur stdDeviation="2"/>
<feComposite in2="hardAlpha" operator="out"/>
<feColorMatrix type="matrix" values="0 0 0 0 0 0 0 0 0 0 0 0 0 0 0 0 0 0 0.25 0"/>
<feBlend mode="normal" in2="BackgroundImageFix" result="effect1_dropShadow_189_3585"/>
<feBlend mode="normal" in="SourceGraphic" in2="effect1_dropShadow_189_3585" result="shape"/>
</filter>
</defs>
</svg>
