<svg width="170" height="100" viewBox="0 0 170 100" fill="none" xmlns="http://www.w3.org/2000/svg">
<g filter="url(#filter0_d_183_2837)">
<rect x="4" width="162" height="92" rx="20" fill="white"/>
<rect x="4.5" y="0.5" width="161" height="91" rx="19.5" stroke="#02D1AC"/>
<path d="M32.9241 43.983C32.8487 43.6114 32.3306 43.4731 32.0385 43.741L29.5609 46.0054C29.2124 46.3252 28.6377 46.3252 28.2797 46.0054L27.008 44.8386C26.65 44.5102 26.65 43.9917 27.008 43.6719L29.5044 41.3902C29.7964 41.1223 29.6551 40.6469 29.25 40.5778C27.7899 40.3185 26.226 40.7074 25.0956 41.7445C23.8426 42.8767 23.4564 44.5102 23.9369 45.9622C24.0122 46.1955 23.9651 46.4548 23.7767 46.6277L21.2614 48.9266C20.9129 49.2464 20.9129 49.7736 21.2614 50.0934L22.5426 51.2602C22.8912 51.5799 23.4658 51.5799 23.8238 51.2602L26.3579 48.9439C26.5463 48.7711 26.8195 48.7192 27.0833 48.7884C28.6565 49.2118 30.4182 48.8575 31.6617 47.7167C32.7639 46.7055 33.1878 45.2967 32.9241 43.983Z" fill="black"/>
<path d="M65.594 40.2H67.582V50H65.664V43.644L62.906 48.194H62.682L59.924 43.658V50H57.992V40.2H59.98L62.794 44.834L65.594 40.2ZM76.128 47.242H70.85C71.0834 48.1193 71.7414 48.558 72.824 48.558C73.5147 48.558 74.0374 48.3247 74.392 47.858L75.848 48.698C75.1574 49.6967 74.14 50.196 72.796 50.196C71.6387 50.196 70.71 49.846 70.01 49.146C69.31 48.446 68.96 47.564 68.96 46.5C68.96 45.4547 69.3054 44.5773 69.996 43.868C70.6774 43.1587 71.564 42.804 72.656 42.804C73.692 42.804 74.5367 43.1587 75.19 43.868C75.862 44.5773 76.198 45.4547 76.198 46.5C76.198 46.696 76.1747 46.9433 76.128 47.242ZM70.822 45.842H74.392C74.2894 45.3847 74.0794 45.0347 73.762 44.792C73.454 44.5493 73.0854 44.428 72.656 44.428C72.1707 44.428 71.7694 44.554 71.452 44.806C71.1347 45.0487 70.9247 45.394 70.822 45.842ZM80.7361 50.196C79.6815 50.196 78.7995 49.8413 78.0901 49.132C77.3901 48.4227 77.0401 47.5453 77.0401 46.5C77.0401 45.4547 77.3901 44.5773 78.0901 43.868C78.7995 43.1587 79.6815 42.804 80.7361 42.804C81.4175 42.804 82.0381 42.9673 82.5981 43.294C83.1581 43.6207 83.5828 44.0593 83.8721 44.61L82.3181 45.52C82.1781 45.2307 81.9635 45.002 81.6741 44.834C81.3941 44.666 81.0768 44.582 80.7221 44.582C80.1808 44.582 79.7328 44.764 79.3781 45.128C79.0235 45.4827 78.8461 45.94 78.8461 46.5C78.8461 47.0413 79.0235 47.4987 79.3781 47.872C79.7328 48.2267 80.1808 48.404 80.7221 48.404C81.0861 48.404 81.4081 48.3247 81.6881 48.166C81.9775 47.998 82.1921 47.7693 82.3321 47.48L83.9001 48.376C83.5921 48.936 83.1535 49.3793 82.5841 49.706C82.0241 50.0327 81.4081 50.196 80.7361 50.196ZM88.7473 42.804C89.522 42.804 90.152 43.0607 90.6373 43.574C91.1413 44.0967 91.3933 44.806 91.3933 45.702V50H89.5873V45.926C89.5873 45.4687 89.4613 45.114 89.2093 44.862C88.9666 44.61 88.6306 44.484 88.2013 44.484C87.7253 44.484 87.3473 44.6333 87.0673 44.932C86.7966 45.2213 86.6613 45.6507 86.6613 46.22V50H84.8553V40.2H86.6613V43.784C87.0906 43.1307 87.786 42.804 88.7473 42.804ZM98.2554 43.826V43H100.061V50H98.2554V49.174C97.714 49.8553 96.9534 50.196 95.9734 50.196C95.04 50.196 94.2374 49.8413 93.5654 49.132C92.9027 48.4133 92.5714 47.536 92.5714 46.5C92.5714 45.4733 92.9027 44.6007 93.5654 43.882C94.2374 43.1633 95.04 42.804 95.9734 42.804C96.9534 42.804 97.714 43.1447 98.2554 43.826ZM94.9234 47.928C95.2874 48.292 95.7494 48.474 96.3094 48.474C96.8694 48.474 97.3314 48.292 97.6954 47.928C98.0687 47.5547 98.2554 47.0787 98.2554 46.5C98.2554 45.9213 98.0687 45.45 97.6954 45.086C97.3314 44.7127 96.8694 44.526 96.3094 44.526C95.7494 44.526 95.2874 44.7127 94.9234 45.086C94.5594 45.45 94.3774 45.9213 94.3774 46.5C94.3774 47.0787 94.5594 47.5547 94.9234 47.928ZM105.591 42.804C106.366 42.804 106.996 43.0607 107.481 43.574C107.985 44.0967 108.237 44.806 108.237 45.702V50H106.431V45.926C106.431 45.4687 106.305 45.114 106.053 44.862C105.81 44.61 105.474 44.484 105.045 44.484C104.569 44.484 104.191 44.6333 103.911 44.932C103.64 45.2213 103.505 45.6507 103.505 46.22V50H101.699V43H103.505V43.784C103.934 43.1307 104.63 42.804 105.591 42.804ZM110.675 42.16C110.376 42.16 110.115 42.0527 109.891 41.838C109.676 41.614 109.569 41.3527 109.569 41.054C109.569 40.7553 109.676 40.494 109.891 40.27C110.115 40.046 110.376 39.934 110.675 39.934C110.983 39.934 111.244 40.046 111.459 40.27C111.683 40.494 111.795 40.7553 111.795 41.054C111.795 41.3527 111.683 41.614 111.459 41.838C111.244 42.0527 110.983 42.16 110.675 42.16ZM111.585 50H109.779V43H111.585V50ZM116.57 50.196C115.515 50.196 114.633 49.8413 113.924 49.132C113.224 48.4227 112.874 47.5453 112.874 46.5C112.874 45.4547 113.224 44.5773 113.924 43.868C114.633 43.1587 115.515 42.804 116.57 42.804C117.251 42.804 117.872 42.9673 118.432 43.294C118.992 43.6207 119.417 44.0593 119.706 44.61L118.152 45.52C118.012 45.2307 117.797 45.002 117.508 44.834C117.228 44.666 116.911 44.582 116.556 44.582C116.015 44.582 115.567 44.764 115.212 45.128C114.857 45.4827 114.68 45.94 114.68 46.5C114.68 47.0413 114.857 47.4987 115.212 47.872C115.567 48.2267 116.015 48.404 116.556 48.404C116.92 48.404 117.242 48.3247 117.522 48.166C117.811 47.998 118.026 47.7693 118.166 47.48L119.734 48.376C119.426 48.936 118.987 49.3793 118.418 49.706C117.858 50.0327 117.242 50.196 116.57 50.196Z" fill="black"/>
</g>
<defs>
<filter id="filter0_d_183_2837" x="0" y="0" width="170" height="100" filterUnits="userSpaceOnUse" color-interpolation-filters="sRGB">
<feFlood flood-opacity="0" result="BackgroundImageFix"/>
<feColorMatrix in="SourceAlpha" type="matrix" values="0 0 0 0 0 0 0 0 0 0 0 0 0 0 0 0 0 0 127 0" result="hardAlpha"/>
<feOffset dy="4"/>
<feGaussianBlur stdDeviation="2"/>
<feComposite in2="hardAlpha" operator="out"/>
<feColorMatrix type="matrix" values="0 0 0 0 0 0 0 0 0 0 0 0 0 0 0 0 0 0 0.25 0"/>
<feBlend mode="normal" in2="BackgroundImageFix" result="effect1_dropShadow_183_2837"/>
<feBlend mode="normal" in="SourceGraphic" in2="effect1_dropShadow_183_2837" result="shape"/>
</filter>
</defs>
</svg>
