<svg width="170" height="100" viewBox="0 0 170 100" fill="none" xmlns="http://www.w3.org/2000/svg">
<g filter="url(#filter0_d_183_2815)">
<rect x="4.5" y="0.5" width="161" height="91" rx="19.5" stroke="#02D1AC" shape-rendering="crispEdges"/>
<g clip-path="url(#clip0_183_2815)">
<path d="M32.3534 47.3988L37.391 40.1545C37.5425 39.9367 37.4429 39.6057 37.1699 39.4159C36.8963 39.2257 36.552 39.248 36.4006 39.4658L31.363 46.7101C29.9233 45.9747 28.2989 46.1533 27.4658 47.1784L33.2701 51.2146C33.9414 50.0769 33.5434 48.4921 32.3534 47.3988ZM32.9785 50.1663C32.9531 50.1591 32.9289 50.1474 32.9071 50.1323C32.8431 50.0877 32.8025 50.0145 32.8115 49.9465C32.8109 49.9461 32.8125 49.936 32.8138 49.9045C32.8139 49.8719 32.8146 49.8233 32.8101 49.7576C32.8019 49.6267 32.7756 49.4296 32.7048 49.1757C32.6059 48.8182 32.4394 48.5396 32.3655 48.4277C32.3411 48.3915 32.3298 48.3761 32.3296 48.3758C32.3297 48.3759 32.3298 48.3761 32.3299 48.3763L32.3294 48.3755L32.3296 48.3758C32.2656 48.2894 32.2784 48.1852 32.36 48.1424C32.4409 48.0994 32.5596 48.1349 32.6241 48.2212C32.6352 48.2352 32.9161 48.6105 33.0694 49.1596C33.2247 49.717 33.1884 50.0396 33.1861 50.056C33.1755 50.1472 33.0821 50.1966 32.9785 50.1663Z" fill="black"/>
<path d="M33.2823 51.6124L27.0896 47.3061C26.9732 47.3253 26.8712 47.3805 26.8058 47.4746C26.6544 47.6924 26.7533 48.0229 27.027 48.2132L32.4538 51.987C32.727 52.1769 33.072 52.155 33.2234 51.9372C33.2886 51.8431 33.3048 51.7282 33.2823 51.6124Z" fill="black"/>
<path d="M32.3119 48.2333C32.3133 48.2227 32.3803 48.2673 32.3876 48.2778C32.3942 48.2873 32.3958 48.2996 32.4023 48.3096C32.4085 48.3192 32.4147 48.3289 32.4181 48.3397C32.4288 48.3729 32.4485 48.4043 32.4656 48.4349C32.5111 48.5162 32.5491 48.601 32.5912 48.684C32.644 48.788 32.6843 48.893 32.7185 49.0034C32.7588 49.1337 32.7824 49.2683 32.7982 49.4022C32.8137 49.533 32.8146 49.6609 32.8722 49.785C32.8868 49.8165 32.9061 49.8464 32.922 49.8773C32.9344 49.9015 32.9445 49.9276 32.9577 49.9513C32.9588 49.9534 32.9661 49.9657 32.9694 49.9654C32.9782 49.9645 32.9774 49.865 32.9778 49.8535C32.9797 49.7973 32.971 49.7421 32.9759 49.6857C32.9797 49.6413 32.9837 49.5981 32.9789 49.5532C32.9695 49.4654 32.9494 49.3775 32.913 49.2952" stroke="black" stroke-linecap="round"/>
<path d="M27.9851 47.4218C27.9816 47.4262 27.975 47.4286 27.97 47.431C27.9538 47.4388 27.9374 47.4461 27.9215 47.4546C27.9072 47.4622 27.8955 47.4728 27.8813 47.4807C27.8624 47.4913 27.8447 47.5038 27.8258 47.5146C27.7895 47.5351 27.7492 47.5555 27.7075 47.5648C27.6682 47.5735 27.6286 47.5805 27.5898 47.5909C27.5858 47.592 27.5331 47.6088 27.5289 47.6028C27.5262 47.5988 27.536 47.5968 27.5393 47.5935C27.5422 47.5907 27.5452 47.5881 27.5481 47.5852C27.5583 47.5747 27.5749 47.5702 27.5867 47.5618C27.5978 47.5541 27.6075 47.5483 27.6154 47.5382C27.6225 47.5291 27.6343 47.5178 27.6428 47.5129C27.6545 47.5062 27.6525 47.4966 27.6594 47.4878C27.6644 47.4814 27.6743 47.4748 27.6811 47.4704" stroke="black" stroke-linecap="round"/>
<path d="M27.6975 47.4467C27.6875 47.4672 27.6524 47.4758 27.6329 47.4835C27.6198 47.4887 27.6086 47.4946 27.5943 47.4959C27.5812 47.4972 27.5431 47.5055 27.5561 47.5042C27.5615 47.5037 27.5692 47.4969 27.5725 47.4931C27.5814 47.483 27.5939 47.4795 27.6043 47.4728" stroke="black" stroke-linecap="round"/>
<path d="M27.4902 47.5255C27.4972 47.524 27.4989 47.5157 27.5059 47.5142C27.5109 47.5131 27.5154 47.5108 27.5215 47.5102C27.5297 47.5095 27.5434 47.5024 27.5508 47.4982C27.5569 47.4946 27.5709 47.4883 27.5778 47.4876C27.5888 47.4866 27.5964 47.481 27.6078 47.4799" stroke="black" stroke-linecap="round"/>
<path d="M27.4215 47.5321C27.4208 47.5137 27.4525 47.501 27.4645 47.4911C27.4742 47.4831 27.4824 47.4771 27.4951 47.4759" stroke="black" stroke-linecap="round"/>
<path d="M27.9785 47.7405C28.0329 47.8077 28.1133 47.8641 28.178 47.9214C28.3189 48.046 28.472 48.1563 28.6187 48.274C28.8105 48.4278 29.0212 48.5652 29.2355 48.6864C29.4197 48.7905 29.598 48.9009 29.7792 49.0102C29.99 49.1372 30.206 49.2524 30.4182 49.3767C30.6193 49.4944 30.8142 49.6152 31.0204 49.7237C31.2411 49.8397 31.4673 49.949 31.6935 50.0535C31.9027 50.1503 32.1129 50.2507 32.3189 50.3545C32.3944 50.3926 32.4473 50.4228 32.4603 50.5075C32.4676 50.5548 32.4834 50.6019 32.5049 50.6456C32.512 50.66 32.5238 50.6747 32.5287 50.69C32.532 50.7005 32.5226 50.6939 32.5152 50.6901C32.473 50.6685 32.4327 50.6429 32.3907 50.6208C31.9517 50.3888 31.4865 50.2441 31.0315 50.0545C30.9346 50.0141 30.8437 49.965 30.7497 49.9189C30.7284 49.9085 30.7092 49.8976 30.7346 49.9232C30.7654 49.9543 30.8264 50.0048 30.8552 50.0281C31.0999 50.226 31.3778 50.3834 31.6501 50.5393C31.7182 50.5783 31.7871 50.6187 31.8588 50.6508C31.8669 50.6544 31.8899 50.6567 31.8848 50.6494C31.8644 50.62 31.8002 50.556 31.7826 50.5388C31.74 50.4973 31.604 50.3823 31.6444 50.4258C31.7225 50.5099 31.8392 50.5721 31.9398 50.6235C32.1151 50.713 32.3045 50.7809 32.4681 50.8928C32.5084 50.9203 32.5361 50.9399 32.5807 50.9564C32.6287 50.9742 32.6972 50.9919 32.7339 51.0305C32.7865 51.0857 32.8408 51.1437 32.9016 51.1908C32.9594 51.2355 33.0501 51.2681 33.0614 51.3415" stroke="black" stroke-linecap="round"/>
</g>
<path d="M55.0174 40.2H58.6714C59.6048 40.2 60.3981 40.5173 61.0514 41.152C61.6954 41.7867 62.0174 42.566 62.0174 43.49C62.0174 44.414 61.6954 45.1933 61.0514 45.828C60.3981 46.4627 59.6048 46.78 58.6714 46.78H56.9494V50H55.0174V40.2ZM56.9494 44.974H58.6714C59.0821 44.974 59.4228 44.834 59.6934 44.554C59.9641 44.2647 60.0994 43.91 60.0994 43.49C60.0994 43.0607 59.9641 42.706 59.6934 42.426C59.4228 42.146 59.0821 42.006 58.6714 42.006H56.9494V44.974ZM64.9972 50H63.1912V39.78H64.9972V50ZM71.2702 46.78V43H73.0762V50H71.2702V49.216C70.8409 49.8693 70.1456 50.196 69.1842 50.196C68.4189 50.196 67.7842 49.9393 67.2802 49.426C66.7856 48.9033 66.5382 48.194 66.5382 47.298V43H68.3442V47.074C68.3442 47.5313 68.4656 47.886 68.7082 48.138C68.9602 48.39 69.3009 48.516 69.7302 48.516C70.2062 48.516 70.5796 48.3713 70.8502 48.082C71.1302 47.7833 71.2702 47.3493 71.2702 46.78ZM82.4723 42.804C83.275 42.804 83.9143 43.0653 84.3903 43.588C84.8756 44.1107 85.1183 44.8107 85.1183 45.688V50H83.3123V45.814C83.3123 45.394 83.2096 45.0673 83.0043 44.834C82.799 44.6007 82.5096 44.484 82.1363 44.484C81.7256 44.484 81.4036 44.6193 81.1703 44.89C80.9463 45.1607 80.8343 45.5527 80.8343 46.066V50H79.0283V45.814C79.0283 45.394 78.9256 45.0673 78.7203 44.834C78.515 44.6007 78.2256 44.484 77.8523 44.484C77.451 44.484 77.129 44.624 76.8863 44.904C76.653 45.1747 76.5363 45.562 76.5363 46.066V50H74.7303V43H76.5363V43.742C76.9563 43.1167 77.605 42.804 78.4823 42.804C79.3503 42.804 79.985 43.14 80.3863 43.812C80.8436 43.14 81.539 42.804 82.4723 42.804ZM90.7262 42.804C91.6688 42.804 92.4715 43.1633 93.1342 43.882C93.8062 44.6007 94.1422 45.4733 94.1422 46.5C94.1422 47.5453 93.8062 48.4227 93.1342 49.132C92.4808 49.8413 91.6782 50.196 90.7262 50.196C89.7462 50.196 88.9902 49.8553 88.4582 49.174V50H86.6522V40.2H88.4582V43.826C88.9902 43.1447 89.7462 42.804 90.7262 42.804ZM89.0042 47.928C89.3682 48.292 89.8302 48.474 90.3902 48.474C90.9502 48.474 91.4122 48.292 91.7762 47.928C92.1495 47.5547 92.3362 47.0787 92.3362 46.5C92.3362 45.9213 92.1495 45.45 91.7762 45.086C91.4122 44.7127 90.9502 44.526 90.3902 44.526C89.8302 44.526 89.3682 44.7127 89.0042 45.086C88.6402 45.45 88.4582 45.9213 88.4582 46.5C88.4582 47.0787 88.6402 47.5547 89.0042 47.928ZM96.3118 42.16C96.0132 42.16 95.7518 42.0527 95.5278 41.838C95.3132 41.614 95.2058 41.3527 95.2058 41.054C95.2058 40.7553 95.3132 40.494 95.5278 40.27C95.7518 40.046 96.0132 39.934 96.3118 39.934C96.6198 39.934 96.8812 40.046 97.0958 40.27C97.3198 40.494 97.4318 40.7553 97.4318 41.054C97.4318 41.3527 97.3198 41.614 97.0958 41.838C96.8812 42.0527 96.6198 42.16 96.3118 42.16ZM97.2218 50H95.4158V43H97.2218V50ZM102.767 42.804C103.541 42.804 104.171 43.0607 104.657 43.574C105.161 44.0967 105.413 44.806 105.413 45.702V50H103.607V45.926C103.607 45.4687 103.481 45.114 103.229 44.862C102.986 44.61 102.65 44.484 102.221 44.484C101.745 44.484 101.367 44.6333 101.087 44.932C100.816 45.2213 100.681 45.6507 100.681 46.22V50H98.8748V43H100.681V43.784C101.11 43.1307 101.805 42.804 102.767 42.804ZM112.317 43.868V43H114.081V49.664C114.081 50.7373 113.722 51.5633 113.003 52.142C112.294 52.7113 111.435 52.996 110.427 52.996C108.84 52.996 107.734 52.4267 107.109 51.288L108.649 50.406C108.994 51.0593 109.606 51.386 110.483 51.386C111.052 51.386 111.5 51.2367 111.827 50.938C112.154 50.6393 112.317 50.2147 112.317 49.664V48.908C111.785 49.6173 111.038 49.972 110.077 49.972C109.088 49.972 108.257 49.6267 107.585 48.936C106.922 48.2267 106.591 47.3773 106.591 46.388C106.591 45.3987 106.927 44.554 107.599 43.854C108.271 43.154 109.097 42.804 110.077 42.804C111.038 42.804 111.785 43.1587 112.317 43.868ZM111.757 47.774C112.13 47.41 112.317 46.948 112.317 46.388C112.317 45.828 112.13 45.3753 111.757 45.03C111.393 44.666 110.926 44.484 110.357 44.484C109.797 44.484 109.326 44.666 108.943 45.03C108.579 45.3753 108.397 45.828 108.397 46.388C108.397 46.948 108.579 47.41 108.943 47.774C109.316 48.1287 109.788 48.306 110.357 48.306C110.926 48.306 111.393 48.1287 111.757 47.774Z" fill="black"/>
</g>
<defs>
<filter id="filter0_d_183_2815" x="0" y="0" width="170" height="100" filterUnits="userSpaceOnUse" color-interpolation-filters="sRGB">
<feFlood flood-opacity="0" result="BackgroundImageFix"/>
<feColorMatrix in="SourceAlpha" type="matrix" values="0 0 0 0 0 0 0 0 0 0 0 0 0 0 0 0 0 0 127 0" result="hardAlpha"/>
<feOffset dy="4"/>
<feGaussianBlur stdDeviation="2"/>
<feComposite in2="hardAlpha" operator="out"/>
<feColorMatrix type="matrix" values="0 0 0 0 0 0 0 0 0 0 0 0 0 0 0 0 0 0 0.25 0"/>
<feBlend mode="normal" in2="BackgroundImageFix" result="effect1_dropShadow_183_2815"/>
<feBlend mode="normal" in="SourceGraphic" in2="effect1_dropShadow_183_2815" result="shape"/>
</filter>
<clipPath id="clip0_183_2815">
<rect width="16.5597" height="16.4724" fill="white" transform="translate(30.4043 34.5109) rotate(34.8141)"/>
</clipPath>
</defs>
</svg>
