<svg width="170" height="100" viewBox="0 0 170 100" fill="none" xmlns="http://www.w3.org/2000/svg">
<g filter="url(#filter0_d_189_3604)">
<rect x="4" width="162" height="92" rx="20" fill="white"/>
<rect x="4.5" y="0.5" width="161" height="91" rx="19.5" stroke="#02D1AC"/>
<path d="M22.3634 49.1693H33.6366C34.5437 49.1693 35 48.7657 35 47.9045V42.2647C35 41.4035 34.5437 41 33.6366 41H22.3634C21.4562 41 21 41.4035 21 42.2647V47.9045C21 48.7657 21.4562 49.1693 22.3634 49.1693ZM31.8594 50.5374C31.8594 50.2815 31.6366 50.0748 31.366 50.0748H24.6233C24.3528 50.0748 24.1353 50.2815 24.1353 50.5374C24.1353 50.7933 24.3528 51 24.6233 51H31.366C31.6366 51 31.8594 50.7933 31.8594 50.5374Z" fill="black"/>
<path d="M47.8851 40.2H55.0951V42.048H52.4491V50H50.5171V42.048H47.8851V40.2ZM60.9897 50H58.5957L55.3057 40.2H57.4057L59.7997 47.732L62.1797 40.2H64.2937L60.9897 50ZM76.3401 40.2H78.3281V50H76.4101V43.644L73.6521 48.194H73.4281L70.6701 43.658V50H68.7381V40.2H70.7261L73.5401 44.834L76.3401 40.2ZM86.0341 49.132C85.3248 49.8413 84.4475 50.196 83.4021 50.196C82.3568 50.196 81.4795 49.8413 80.7701 49.132C80.0608 48.4227 79.7061 47.5453 79.7061 46.5C79.7061 45.464 80.0608 44.5913 80.7701 43.882C81.4888 43.1633 82.3661 42.804 83.4021 42.804C84.4381 42.804 85.3155 43.1633 86.0341 43.882C86.7528 44.6007 87.1121 45.4733 87.1121 46.5C87.1121 47.536 86.7528 48.4133 86.0341 49.132ZM82.0441 47.886C82.4081 48.25 82.8608 48.432 83.4021 48.432C83.9435 48.432 84.3961 48.25 84.7601 47.886C85.1241 47.522 85.3061 47.06 85.3061 46.5C85.3061 45.94 85.1241 45.478 84.7601 45.114C84.3961 44.75 83.9435 44.568 83.4021 44.568C82.8608 44.568 82.4081 44.75 82.0441 45.114C81.6895 45.4873 81.5121 45.9493 81.5121 46.5C81.5121 47.0507 81.6895 47.5127 82.0441 47.886ZM93.0026 46.78V43H94.8086V50H93.0026V49.216C92.5733 49.8693 91.878 50.196 90.9166 50.196C90.1513 50.196 89.5166 49.9393 89.0126 49.426C88.518 48.9033 88.2706 48.194 88.2706 47.298V43H90.0766V47.074C90.0766 47.5313 90.198 47.886 90.4406 48.138C90.6926 48.39 91.0333 48.516 91.4626 48.516C91.9386 48.516 92.312 48.3713 92.5826 48.082C92.8626 47.7833 93.0026 47.3493 93.0026 46.78ZM100.355 42.804C101.129 42.804 101.759 43.0607 102.245 43.574C102.749 44.0967 103.001 44.806 103.001 45.702V50H101.195V45.926C101.195 45.4687 101.069 45.114 100.817 44.862C100.574 44.61 100.238 44.484 99.8087 44.484C99.3327 44.484 98.9547 44.6333 98.6747 44.932C98.4041 45.2213 98.2687 45.6507 98.2687 46.22V50H96.4627V43H98.2687V43.784C98.6981 43.1307 99.3934 42.804 100.355 42.804ZM108.547 43V44.736H106.965V47.648C106.965 47.8907 107.025 48.068 107.147 48.18C107.268 48.292 107.445 48.3573 107.679 48.376C107.912 48.3853 108.201 48.3807 108.547 48.362V50C107.324 50.14 106.451 50.028 105.929 49.664C105.415 49.2907 105.159 48.6187 105.159 47.648V44.736H103.941V43H105.159V41.586L106.965 41.04V43H108.547ZM110.716 42.16C110.417 42.16 110.156 42.0527 109.932 41.838C109.717 41.614 109.61 41.3527 109.61 41.054C109.61 40.7553 109.717 40.494 109.932 40.27C110.156 40.046 110.417 39.934 110.716 39.934C111.024 39.934 111.285 40.046 111.5 40.27C111.724 40.494 111.836 40.7553 111.836 41.054C111.836 41.3527 111.724 41.614 111.5 41.838C111.285 42.0527 111.024 42.16 110.716 42.16ZM111.626 50H109.82V43H111.626V50ZM117.171 42.804C117.946 42.804 118.576 43.0607 119.061 43.574C119.565 44.0967 119.817 44.806 119.817 45.702V50H118.011V45.926C118.011 45.4687 117.885 45.114 117.633 44.862C117.39 44.61 117.054 44.484 116.625 44.484C116.149 44.484 115.771 44.6333 115.491 44.932C115.22 45.2213 115.085 45.6507 115.085 46.22V50H113.279V43H115.085V43.784C115.514 43.1307 116.21 42.804 117.171 42.804ZM126.721 43.868V43H128.485V49.664C128.485 50.7373 128.126 51.5633 127.407 52.142C126.698 52.7113 125.839 52.996 124.831 52.996C123.245 52.996 122.139 52.4267 121.513 51.288L123.053 50.406C123.399 51.0593 124.01 51.386 124.887 51.386C125.457 51.386 125.905 51.2367 126.231 50.938C126.558 50.6393 126.721 50.2147 126.721 49.664V48.908C126.189 49.6173 125.443 49.972 124.481 49.972C123.492 49.972 122.661 49.6267 121.989 48.936C121.327 48.2267 120.995 47.3773 120.995 46.388C120.995 45.3987 121.331 44.554 122.003 43.854C122.675 43.154 123.501 42.804 124.481 42.804C125.443 42.804 126.189 43.1587 126.721 43.868ZM126.161 47.774C126.535 47.41 126.721 46.948 126.721 46.388C126.721 45.828 126.535 45.3753 126.161 45.03C125.797 44.666 125.331 44.484 124.761 44.484C124.201 44.484 123.73 44.666 123.347 45.03C122.983 45.3753 122.801 45.828 122.801 46.388C122.801 46.948 122.983 47.41 123.347 47.774C123.721 48.1287 124.192 48.306 124.761 48.306C125.331 48.306 125.797 48.1287 126.161 47.774Z" fill="black"/>
</g>
<defs>
<filter id="filter0_d_189_3604" x="0" y="0" width="170" height="100" filterUnits="userSpaceOnUse" color-interpolation-filters="sRGB">
<feFlood flood-opacity="0" result="BackgroundImageFix"/>
<feColorMatrix in="SourceAlpha" type="matrix" values="0 0 0 0 0 0 0 0 0 0 0 0 0 0 0 0 0 0 127 0" result="hardAlpha"/>
<feOffset dy="4"/>
<feGaussianBlur stdDeviation="2"/>
<feComposite in2="hardAlpha" operator="out"/>
<feColorMatrix type="matrix" values="0 0 0 0 0 0 0 0 0 0 0 0 0 0 0 0 0 0 0.25 0"/>
<feBlend mode="normal" in2="BackgroundImageFix" result="effect1_dropShadow_189_3604"/>
<feBlend mode="normal" in="SourceGraphic" in2="effect1_dropShadow_189_3604" result="shape"/>
</filter>
</defs>
</svg>
