<svg width="122" height="147" viewBox="0 0 122 147" fill="none" xmlns="http://www.w3.org/2000/svg">
<path d="M13.92 141.072H12.736L11.696 138.32H6.384L5.344 141.072H4.16L8.464 129.872H9.616L13.92 141.072ZM9.04 131.264L6.784 137.264H11.296L9.04 131.264ZM21.9219 134.64V129.872H22.9779V141.072H21.9219V139.504C21.1859 140.677 20.1085 141.264 18.6899 141.264C17.5485 141.264 16.5725 140.858 15.7619 140.048C14.9619 139.237 14.5619 138.245 14.5619 137.072C14.5619 135.898 14.9619 134.906 15.7619 134.096C16.5725 133.285 17.5485 132.88 18.6899 132.88C20.1085 132.88 21.1859 133.466 21.9219 134.64ZM16.5299 139.328C17.1379 139.936 17.8845 140.24 18.7699 140.24C19.6552 140.24 20.4019 139.936 21.0099 139.328C21.6179 138.698 21.9219 137.946 21.9219 137.072C21.9219 136.186 21.6179 135.44 21.0099 134.832C20.4019 134.213 19.6552 133.904 18.7699 133.904C17.8845 133.904 17.1379 134.213 16.5299 134.832C15.9219 135.44 15.6179 136.186 15.6179 137.072C15.6179 137.946 15.9219 138.698 16.5299 139.328ZM32.0938 134.64V129.872H33.1498V141.072H32.0938V139.504C31.3578 140.677 30.2804 141.264 28.8618 141.264C27.7204 141.264 26.7444 140.858 25.9338 140.048C25.1338 139.237 24.7338 138.245 24.7338 137.072C24.7338 135.898 25.1338 134.906 25.9338 134.096C26.7444 133.285 27.7204 132.88 28.8618 132.88C30.2804 132.88 31.3578 133.466 32.0938 134.64ZM26.7018 139.328C27.3098 139.936 28.0564 140.24 28.9418 140.24C29.8271 140.24 30.5738 139.936 31.1818 139.328C31.7898 138.698 32.0938 137.946 32.0938 137.072C32.0938 136.186 31.7898 135.44 31.1818 134.832C30.5738 134.213 29.8271 133.904 28.9418 133.904C28.0564 133.904 27.3098 134.213 26.7018 134.832C26.0938 135.44 25.7898 136.186 25.7898 137.072C25.7898 137.946 26.0938 138.698 26.7018 139.328ZM42.5536 139.776L45.1456 133.072H46.2656L42.8416 141.808C42.5216 142.618 42.0736 143.242 41.4976 143.68C40.9323 144.128 40.303 144.325 39.6096 144.272V143.28C40.5696 143.397 41.3003 142.842 41.8016 141.616L42.0096 141.12L38.4256 133.072H39.5456L42.5536 139.776ZM53.9334 140.064C53.112 140.864 52.12 141.264 50.9574 141.264C49.7734 141.264 48.776 140.864 47.9654 140.064C47.1547 139.253 46.7494 138.256 46.7494 137.072C46.7494 135.888 47.1547 134.896 47.9654 134.096C48.776 133.285 49.7734 132.88 50.9574 132.88C52.1307 132.88 53.1227 133.285 53.9334 134.096C54.7547 134.896 55.1654 135.888 55.1654 137.072C55.1654 138.245 54.7547 139.242 53.9334 140.064ZM48.7174 139.328C49.3254 139.936 50.072 140.24 50.9574 140.24C51.8427 140.24 52.5894 139.936 53.1974 139.328C53.8054 138.698 54.1094 137.946 54.1094 137.072C54.1094 136.186 53.8054 135.44 53.1974 134.832C52.5894 134.213 51.8427 133.904 50.9574 133.904C50.072 133.904 49.3254 134.213 48.7174 134.832C48.1094 135.44 47.8054 136.186 47.8054 137.072C47.8054 137.946 48.1094 138.698 48.7174 139.328ZM62.5645 137.264V133.072H63.6205V141.072H62.5645V139.824C61.9672 140.784 61.0712 141.264 59.8765 141.264C58.9165 141.264 58.1538 140.97 57.5885 140.384C57.0232 139.786 56.7405 138.986 56.7405 137.984V133.072H57.7965V137.984C57.7965 138.698 57.9832 139.253 58.3565 139.648C58.7405 140.042 59.2792 140.24 59.9725 140.24C60.7725 140.24 61.4018 139.989 61.8605 139.488C62.3298 138.986 62.5645 138.245 62.5645 137.264ZM66.9104 133.072V134.4C67.401 133.429 68.2437 132.944 69.4384 132.944V133.968C68.6704 133.968 68.057 134.192 67.5984 134.64C67.1397 135.077 66.9104 135.738 66.9104 136.624V141.072H65.8544V133.072H66.9104ZM79.1736 132.88C80.315 132.88 81.2856 133.285 82.0856 134.096C82.8963 134.906 83.3016 135.898 83.3016 137.072C83.3016 138.245 82.8963 139.237 82.0856 140.048C81.2856 140.858 80.315 141.264 79.1736 141.264C77.755 141.264 76.6776 140.677 75.9416 139.504V144.272H74.8856V133.072H75.9416V134.64C76.6776 133.466 77.755 132.88 79.1736 132.88ZM76.8536 139.328C77.4616 139.936 78.2083 140.24 79.0936 140.24C79.979 140.24 80.7256 139.936 81.3336 139.328C81.9416 138.698 82.2456 137.946 82.2456 137.072C82.2456 136.186 81.9416 135.44 81.3336 134.832C80.7256 134.213 79.979 133.904 79.0936 133.904C78.2083 133.904 77.4616 134.213 76.8536 134.832C76.2456 135.44 75.9416 136.186 75.9416 137.072C75.9416 137.946 76.2456 138.698 76.8536 139.328ZM88.8015 132.88C89.7615 132.88 90.5242 133.178 91.0895 133.776C91.6548 134.362 91.9375 135.157 91.9375 136.16V141.072H90.8815V136.16C90.8815 135.445 90.6895 134.89 90.3055 134.496C89.9322 134.101 89.3988 133.904 88.7055 133.904C87.9055 133.904 87.2708 134.154 86.8015 134.656C86.3428 135.157 86.1135 135.898 86.1135 136.88V141.072H85.0575V129.872H86.1135V134.32C86.7108 133.36 87.6068 132.88 88.8015 132.88ZM100.683 140.064C99.862 140.864 98.87 141.264 97.7074 141.264C96.5234 141.264 95.526 140.864 94.7154 140.064C93.9047 139.253 93.4994 138.256 93.4994 137.072C93.4994 135.888 93.9047 134.896 94.7154 134.096C95.526 133.285 96.5234 132.88 97.7074 132.88C98.8807 132.88 99.8727 133.285 100.683 134.096C101.505 134.896 101.915 135.888 101.915 137.072C101.915 138.245 101.505 139.242 100.683 140.064ZM95.4674 139.328C96.0754 139.936 96.822 140.24 97.7074 140.24C98.5927 140.24 99.3394 139.936 99.9474 139.328C100.555 138.698 100.859 137.946 100.859 137.072C100.859 136.186 100.555 135.44 99.9474 134.832C99.3394 134.213 98.5927 133.904 97.7074 133.904C96.822 133.904 96.0754 134.213 95.4674 134.832C94.8594 135.44 94.5554 136.186 94.5554 137.072C94.5554 137.946 94.8594 138.698 95.4674 139.328ZM107.766 133.072V134.096H105.462V138.944C105.462 139.381 105.548 139.696 105.718 139.888C105.889 140.069 106.145 140.165 106.486 140.176C106.828 140.176 107.254 140.165 107.766 140.144V141.072C106.625 141.242 105.777 141.162 105.222 140.832C104.678 140.49 104.406 139.861 104.406 138.944V134.096H102.726V133.072H104.406V131.152L105.462 130.832V133.072H107.766ZM115.746 140.064C114.925 140.864 113.933 141.264 112.77 141.264C111.586 141.264 110.589 140.864 109.778 140.064C108.967 139.253 108.562 138.256 108.562 137.072C108.562 135.888 108.967 134.896 109.778 134.096C110.589 133.285 111.586 132.88 112.77 132.88C113.943 132.88 114.935 133.285 115.746 134.096C116.567 134.896 116.978 135.888 116.978 137.072C116.978 138.245 116.567 139.242 115.746 140.064ZM110.53 139.328C111.138 139.936 111.885 140.24 112.77 140.24C113.655 140.24 114.402 139.936 115.01 139.328C115.618 138.698 115.922 137.946 115.922 137.072C115.922 136.186 115.618 135.44 115.01 134.832C114.402 134.213 113.655 133.904 112.77 133.904C111.885 133.904 111.138 134.213 110.53 134.832C109.922 135.44 109.618 136.186 109.618 137.072C109.618 137.946 109.922 138.698 110.53 139.328Z" fill="#07C0E0"/>
<g filter="url(#filter0_d_7_584)">
<rect x="15" y="7.2135" width="92" height="94.8063" rx="15" fill="white"/>
</g>
<path fill-rule="evenodd" clip-rule="evenodd" d="M70.7222 43.4218C70.7222 48.3891 66.8358 52.4158 62.0416 52.4158C57.2475 52.4158 53.3611 48.3891 53.3611 43.4218C53.3611 38.4545 57.2475 34.4277 62.0416 34.4277C66.8358 34.4277 70.7222 38.4545 70.7222 43.4218ZM66.3819 43.4218C66.3819 40.9381 64.4387 38.9247 62.0416 38.9247C59.6446 38.9247 57.7014 40.9381 57.7014 43.4218C57.7014 45.9054 59.6446 47.9188 62.0416 47.9188C64.4387 47.9188 66.3819 45.9054 66.3819 43.4218Z" fill="#D5DDE5"/>
<path d="M62.0416 56.9129C53.6518 56.9129 46.8506 63.9598 46.8506 72.6526C46.8506 73.8944 47.8222 74.9011 49.0207 74.9011C50.2193 74.9011 51.1909 73.8944 51.1909 72.6526C51.1909 66.4434 56.0489 61.4099 62.0416 61.4099C68.0342 61.4099 72.8923 66.4434 72.8923 72.6526C72.8923 73.8944 73.8639 74.9011 75.0624 74.9011C76.2609 74.9011 77.2325 73.8944 77.2325 72.6526C77.2325 63.9598 70.4313 56.9129 62.0416 56.9129V56.9129Z" fill="#D5DDE5"/>
<path fill-rule="evenodd" clip-rule="evenodd" d="M89 13.1904C89 5.91694 94.7418 0 101.8 0C108.858 0 114.6 5.91694 114.6 13.1904C114.6 20.4639 108.858 26.3809 101.8 26.3809C94.7418 26.3809 89 20.4639 89 13.1904ZM102.867 14.2896H107.4C107.989 14.2896 108.467 13.7973 108.467 13.1904C108.467 12.5836 107.989 12.0913 107.4 12.0913H102.867V7.41961C102.867 6.81278 102.389 6.32047 101.8 6.32047C101.211 6.32047 100.733 6.81278 100.733 7.41961V12.0913H96.2C95.6111 12.0913 95.1334 12.5836 95.1334 13.1904C95.1334 13.7973 95.6111 14.2896 96.2 14.2896H100.733V18.9612C100.733 19.5681 101.211 20.0604 101.8 20.0604C102.389 20.0604 102.867 19.5681 102.867 18.9612V14.2896Z" fill="#07C0E0"/>
<defs>
<filter id="filter0_d_7_584" x="0" y="4.2135" width="122" height="124.806" filterUnits="userSpaceOnUse" color-interpolation-filters="sRGB">
<feFlood flood-opacity="0" result="BackgroundImageFix"/>
<feColorMatrix in="SourceAlpha" type="matrix" values="0 0 0 0 0 0 0 0 0 0 0 0 0 0 0 0 0 0 127 0" result="hardAlpha"/>
<feOffset dy="12"/>
<feGaussianBlur stdDeviation="7.5"/>
<feColorMatrix type="matrix" values="0 0 0 0 0.0691963 0 0 0 0 0.270989 0 0 0 0 0.39705 0 0 0 0.0665701 0"/>
<feBlend mode="normal" in2="BackgroundImageFix" result="effect1_dropShadow_7_584"/>
<feBlend mode="normal" in="SourceGraphic" in2="effect1_dropShadow_7_584" result="shape"/>
</filter>
</defs>
</svg>
