<svg width="242" height="143" viewBox="0 0 242 143" fill="none" xmlns="http://www.w3.org/2000/svg">
<g clip-path="url(#clip0_7_278)">
<path d="M40.3936 94.6562C43.499 94.6562 45.6084 95.6719 46.8584 97.7031C48.0889 99.7344 48.5771 102.312 48.5771 106.004V117H42.0146V106.004C42.0146 102.156 40.667 100.223 37.9912 100.223C35.042 100.223 33.3428 102.43 33.3428 106.004V117H26.7803V106.004C26.7803 102.234 25.5498 100.223 22.7959 100.223C19.8467 100.223 18.1475 102.43 18.1475 106.004V117H11.585V95.0078H17.8545L18.1475 97.918C19.2803 95.75 21.624 94.6562 25.1982 94.6562C28.8115 94.6562 31.2139 96.1602 32.3662 99.168C33.8701 96.1602 36.5459 94.6562 40.3936 94.6562ZM61.7607 94.6562C65.1982 94.6562 67.8936 95.8672 69.085 97.918L69.3584 95.0078H75.6279V117H69.3584L69.085 114.07C67.9326 116.238 65.4912 117.332 61.7607 117.332C56.1162 117.449 51.4287 112.605 51.5068 106.004C51.4287 99.4023 56.1162 94.5391 61.7607 94.6562ZM59.6709 110.164C60.7256 111.238 62.0342 111.785 63.5771 111.785C65.1201 111.785 66.4287 111.238 67.5029 110.164C68.5576 109.09 69.085 107.703 69.085 106.004C69.085 104.305 68.5576 102.898 67.5029 101.824C66.4287 100.75 65.1201 100.223 63.5771 100.223C62.0342 100.223 60.7256 100.75 59.6709 101.824C58.6162 102.898 58.0889 104.305 58.0889 106.004C58.0889 107.703 58.6162 109.09 59.6709 110.164ZM88.9482 94.6562C92.3857 94.6562 95.0615 95.8672 96.2334 97.918V87H102.796V117H96.5459L96.2334 114.07C95.0811 116.238 92.4834 117.332 88.9482 117.332C83.3037 117.449 78.6162 112.605 78.6943 106.004C78.6162 99.4023 83.3037 94.5391 88.9482 94.6562ZM90.7451 111.785C92.2881 111.785 93.5967 111.238 94.6514 110.164C95.7061 109.09 96.2334 107.703 96.2334 106.004C96.2334 104.305 95.7061 102.898 94.6514 101.824C93.5967 100.75 92.2881 100.223 90.7451 100.223C89.2021 100.223 87.8936 100.75 86.8389 101.824C85.7842 102.898 85.2568 104.305 85.2568 106.004C85.2568 107.703 85.7842 109.09 86.8584 110.164C87.9131 111.238 89.2021 111.785 90.7451 111.785ZM116.136 94.6562C119.573 94.6562 122.269 95.8672 123.46 97.918L123.733 95.0078H130.003V117H123.733L123.46 114.07C122.308 116.238 119.866 117.332 116.136 117.332C110.491 117.449 105.804 112.605 105.882 106.004C105.804 99.4023 110.491 94.5391 116.136 94.6562ZM114.046 110.164C115.101 111.238 116.409 111.785 117.952 111.785C119.495 111.785 120.804 111.238 121.878 110.164C122.933 109.09 123.46 107.703 123.46 106.004C123.46 104.305 122.933 102.898 121.878 101.824C120.804 100.75 119.495 100.223 117.952 100.223C116.409 100.223 115.101 100.75 114.046 101.824C112.991 102.898 112.464 104.305 112.464 106.004C112.464 107.703 112.991 109.09 114.046 110.164ZM143.323 94.6562C146.761 94.6562 149.437 95.8672 150.608 97.918V87H157.171V117H150.921L150.608 114.07C149.456 116.238 146.858 117.332 143.323 117.332C137.679 117.449 132.991 112.605 133.069 106.004C132.991 99.4023 137.679 94.5391 143.323 94.6562ZM145.12 111.785C146.663 111.785 147.972 111.238 149.026 110.164C150.081 109.09 150.608 107.703 150.608 106.004C150.608 104.305 150.081 102.898 149.026 101.824C147.972 100.75 146.663 100.223 145.12 100.223C143.577 100.223 142.269 100.75 141.214 101.824C140.159 102.898 139.632 104.305 139.632 106.004C139.632 107.703 140.159 109.09 141.233 110.164C142.288 111.238 143.577 111.785 145.12 111.785ZM177.835 97.918L178.108 95.0078H184.378V115.34C184.378 117.469 183.87 119.305 182.835 120.848C181.8 122.371 180.394 123.504 178.655 124.246C176.917 124.969 174.925 125.34 172.679 125.34C168.167 125.34 164.593 123.816 161.937 120.789L165.042 117.234C166.741 119.148 169.124 120.105 172.171 120.125C173.753 120.125 175.081 119.676 176.175 118.758C177.249 117.84 177.815 116.59 177.835 115.047V113.387C176.761 115.438 174.319 116.453 170.511 116.434C164.769 116.434 160.257 112.02 160.257 105.652C160.257 102.488 161.253 99.8711 163.226 97.7812C165.198 95.6914 167.62 94.6562 170.511 94.6562C173.948 94.6562 176.644 95.8672 177.835 97.918ZM168.44 109.539C169.495 110.574 170.784 111.102 172.327 111.102C173.87 111.102 175.159 110.574 176.233 109.539C177.308 108.504 177.835 107.195 177.835 105.652C177.835 104.109 177.308 102.82 176.233 101.785C175.159 100.75 173.87 100.223 172.327 100.223C170.784 100.223 169.495 100.73 168.44 101.766C167.366 102.801 166.839 104.109 166.839 105.652C166.839 107.215 167.366 108.504 168.44 109.539ZM197.698 94.6562C201.136 94.6562 203.831 95.8672 205.022 97.918L205.296 95.0078H211.565V117H205.296L205.022 114.07C203.87 116.238 201.429 117.332 197.698 117.332C192.054 117.449 187.366 112.605 187.444 106.004C187.366 99.4023 192.054 94.5391 197.698 94.6562ZM195.608 110.164C196.663 111.238 197.972 111.785 199.515 111.785C201.058 111.785 202.366 111.238 203.44 110.164C204.495 109.09 205.022 107.703 205.022 106.004C205.022 104.305 204.495 102.898 203.44 101.824C202.366 100.75 201.058 100.223 199.515 100.223C197.972 100.223 196.663 100.75 195.608 101.824C194.554 102.898 194.026 104.305 194.026 106.004C194.026 107.703 194.554 109.09 195.608 110.164ZM215.687 117V95.0078H221.956L222.249 97.6055C223.753 95.4961 225.94 94.6562 229.515 94.6562V100.223C224.749 100.223 222.249 102.391 222.249 106.004V117H215.687Z" fill="#141414"/>
<path d="M46.8584 97.7031L47.2861 97.4441L47.2842 97.4411L46.8584 97.7031ZM48.5771 117V117.5H49.0771V117H48.5771ZM42.0146 117H41.5146V117.5H42.0146V117ZM33.3428 117V117.5H33.8428V117H33.3428ZM26.7803 117H26.2803V117.5H26.7803V117ZM18.1475 117V117.5H18.6475V117H18.1475ZM11.585 117H11.085V117.5H11.585V117ZM11.585 95.0078V94.5078H11.085V95.0078H11.585ZM17.8545 95.0078L18.352 94.9577L18.3067 94.5078H17.8545V95.0078ZM18.1475 97.918L17.65 97.9681L17.8172 99.6296L18.5906 98.1495L18.1475 97.918ZM32.3662 99.168L31.8993 99.3468L32.3056 100.407L32.8134 99.3916L32.3662 99.168ZM40.3936 95.1562C43.3797 95.1562 45.2988 96.1228 46.4326 97.9652L47.2842 97.4411C45.918 95.221 43.6184 94.1562 40.3936 94.1562V95.1562ZM46.4307 97.9622C47.5914 99.8781 48.0771 102.347 48.0771 106.004H49.0771C49.0771 102.278 48.5864 99.5906 47.2861 97.4441L46.4307 97.9622ZM48.0771 106.004V117H49.0771V106.004H48.0771ZM48.5771 116.5H42.0146V117.5H48.5771V116.5ZM42.5146 117V106.004H41.5146V117H42.5146ZM42.5146 106.004C42.5146 104.037 42.1729 102.471 41.4167 101.385C40.6379 100.266 39.4667 99.7227 37.9912 99.7227V100.723C39.1916 100.723 40.0321 101.146 40.596 101.956C41.1826 102.799 41.5146 104.123 41.5146 106.004H42.5146ZM37.9912 99.7227C36.3796 99.7227 35.0671 100.332 34.1696 101.462C33.284 102.576 32.8428 104.145 32.8428 106.004H33.8428C33.8428 104.289 34.2512 102.967 34.9525 102.084C35.6419 101.216 36.6536 100.723 37.9912 100.723V99.7227ZM32.8428 106.004V117H33.8428V106.004H32.8428ZM33.3428 116.5H26.7803V117.5H33.3428V116.5ZM27.2803 117V106.004H26.2803V117H27.2803ZM27.2803 106.004C27.2803 104.081 26.9696 102.517 26.2363 101.422C25.4783 100.289 24.314 99.7227 22.7959 99.7227V100.723C24.0317 100.723 24.8596 101.162 25.4053 101.978C25.9757 102.83 26.2803 104.157 26.2803 106.004H27.2803ZM22.7959 99.7227C21.1842 99.7227 19.8718 100.332 18.9743 101.462C18.0887 102.576 17.6475 104.145 17.6475 106.004H18.6475C18.6475 104.289 19.0559 102.967 19.7572 102.084C20.4466 101.216 21.4583 100.723 22.7959 100.723V99.7227ZM17.6475 106.004V117H18.6475V106.004H17.6475ZM18.1475 116.5H11.585V117.5H18.1475V116.5ZM12.085 117V95.0078H11.085V117H12.085ZM11.585 95.5078H17.8545V94.5078H11.585V95.5078ZM17.357 95.0579L17.65 97.9681L18.6449 97.8679L18.352 94.9577L17.357 95.0579ZM18.5906 98.1495C19.601 96.2158 21.7164 95.1562 25.1982 95.1562V94.1562C21.5317 94.1562 18.9595 95.2842 17.7043 97.6864L18.5906 98.1495ZM25.1982 95.1562C26.9368 95.1562 28.3419 95.5179 29.439 96.2075C30.5315 96.8942 31.3564 97.9297 31.8993 99.3468L32.8331 98.9891C32.2237 97.3984 31.2712 96.1781 29.9712 95.3609C28.6756 94.5465 27.073 94.1562 25.1982 94.1562V95.1562ZM32.8134 99.3916C33.5252 97.9681 34.5035 96.9184 35.746 96.2201C36.9924 95.5195 38.5341 95.1562 40.3936 95.1562V94.1562C38.4053 94.1562 36.6854 94.5449 35.256 95.3483C33.8227 96.1539 32.7112 97.36 31.919 98.9444L32.8134 99.3916ZM61.7607 94.6562L61.7504 95.1562H61.7607V94.6562ZM69.085 97.918L68.6526 98.1691L69.4367 99.5189L69.5828 97.9647L69.085 97.918ZM69.3584 95.0078V94.5078H68.9032L68.8606 94.961L69.3584 95.0078ZM75.6279 95.0078H76.1279V94.5078H75.6279V95.0078ZM75.6279 117V117.5H76.1279V117H75.6279ZM69.3584 117L68.8606 117.046L68.9029 117.5H69.3584V117ZM69.085 114.07L69.5828 114.024L69.4276 112.36L68.6435 113.836L69.085 114.07ZM61.7607 117.332V116.832L61.7504 116.832L61.7607 117.332ZM51.5068 106.004L52.0069 106.01L52.0068 105.998L51.5068 106.004ZM67.5029 110.164L67.8565 110.518L67.8597 110.514L67.5029 110.164ZM67.5029 101.824L67.8597 101.474L67.8565 101.471L67.5029 101.824ZM61.7607 95.1562C65.1057 95.1562 67.5867 96.3343 68.6526 98.1691L69.5173 97.6668C68.2004 95.4 65.2908 94.1562 61.7607 94.1562V95.1562ZM69.5828 97.9647L69.8562 95.0546L68.8606 94.961L68.5872 97.8712L69.5828 97.9647ZM69.3584 95.5078H75.6279V94.5078H69.3584V95.5078ZM75.1279 95.0078V117H76.1279V95.0078H75.1279ZM75.6279 116.5H69.3584V117.5H75.6279V116.5ZM69.8562 116.954L69.5828 114.024L68.5871 114.117L68.8606 117.046L69.8562 116.954ZM68.6435 113.836C67.6177 115.765 65.4102 116.832 61.7607 116.832V117.832C65.5722 117.832 68.2475 116.711 69.5265 114.305L68.6435 113.836ZM61.7504 116.832C56.4295 116.943 51.9315 112.372 52.0068 106.01L51.0069 105.998C50.9259 112.839 55.8029 117.956 61.7711 117.832L61.7504 116.832ZM52.0068 105.998C51.9315 99.6347 56.4306 95.0457 61.7504 95.1561L61.7711 94.1564C55.8018 94.0324 50.9259 99.17 51.0069 106.01L52.0068 105.998ZM59.3141 110.514C60.4645 111.686 61.9024 112.285 63.5771 112.285V111.285C62.166 111.285 60.9867 110.791 60.0277 109.814L59.3141 110.514ZM63.5771 112.285C65.2527 112.285 66.6885 111.686 67.8565 110.518L67.1494 109.811C66.1689 110.791 64.9875 111.285 63.5771 111.285V112.285ZM67.8597 110.514C69.0183 109.334 69.585 107.816 69.585 106.004H68.585C68.585 107.59 68.0969 108.845 67.1461 109.814L67.8597 110.514ZM69.585 106.004C69.585 104.194 69.0194 102.655 67.8597 101.474L67.1461 102.175C68.0958 103.142 68.585 104.416 68.585 106.004H69.585ZM67.8565 101.471C66.6852 100.299 65.2481 99.7227 63.5771 99.7227V100.723C64.9922 100.723 66.1722 101.201 67.1494 102.178L67.8565 101.471ZM63.5771 99.7227C61.9071 99.7227 60.4677 100.299 59.3141 101.474L60.0277 102.175C60.9835 101.201 62.1613 100.723 63.5771 100.723V99.7227ZM59.3141 101.474C58.1544 102.655 57.5889 104.194 57.5889 106.004H58.5889C58.5889 104.416 59.078 103.142 60.0277 102.175L59.3141 101.474ZM57.5889 106.004C57.5889 107.816 58.1555 109.334 59.3141 110.514L60.0277 109.814C59.0769 108.845 58.5889 107.59 58.5889 106.004H57.5889ZM88.9482 94.6562L88.9379 95.1562H88.9482V94.6562ZM96.2334 97.918L95.7993 98.166L96.7334 99.8008V97.918H96.2334ZM96.2334 87V86.5H95.7334V87H96.2334ZM102.796 87H103.296V86.5H102.796V87ZM102.796 117V117.5H103.296V117H102.796ZM96.5459 117L96.0487 117.053L96.0964 117.5H96.5459V117ZM96.2334 114.07L96.7306 114.017L96.5575 112.395L95.7919 113.836L96.2334 114.07ZM88.9482 117.332V116.832L88.9379 116.832L88.9482 117.332ZM78.6943 106.004L79.1944 106.01L79.1943 105.998L78.6943 106.004ZM86.8584 110.164L87.2152 109.814L87.212 109.811L86.8584 110.164ZM88.9482 95.1562C92.2933 95.1562 94.7525 96.3342 95.7993 98.166L96.6675 97.6699C95.3706 95.4002 92.4782 94.1562 88.9482 94.1562V95.1562ZM96.7334 97.918V87H95.7334V97.918H96.7334ZM96.2334 87.5H102.796V86.5H96.2334V87.5ZM102.296 87V117H103.296V87H102.296ZM102.796 116.5H96.5459V117.5H102.796V116.5ZM97.0431 116.947L96.7306 114.017L95.7362 114.123L96.0487 117.053L97.0431 116.947ZM95.7919 113.836C94.7674 115.763 92.4065 116.832 88.9482 116.832V117.832C92.5603 117.832 95.3947 116.713 96.6749 114.305L95.7919 113.836ZM88.9379 116.832C83.617 116.943 79.119 112.372 79.1943 106.01L78.1944 105.998C78.1134 112.839 82.9904 117.956 88.9586 117.832L88.9379 116.832ZM79.1943 105.998C79.119 99.6347 83.6181 95.0457 88.9379 95.1561L88.9586 94.1564C82.9893 94.0324 78.1134 99.17 78.1944 106.01L79.1943 105.998ZM90.7451 112.285C92.4199 112.285 93.8578 111.686 95.0081 110.514L94.2946 109.814C93.3356 110.791 92.1563 111.285 90.7451 111.285V112.285ZM95.0081 110.514C96.1667 109.334 96.7334 107.816 96.7334 106.004H95.7334C95.7334 107.59 95.2454 108.845 94.2946 109.814L95.0081 110.514ZM96.7334 106.004C96.7334 104.194 96.1678 102.655 95.0081 101.474L94.2946 102.175C95.2443 103.142 95.7334 104.416 95.7334 106.004H96.7334ZM95.0081 101.474C93.8546 100.299 92.4152 99.7227 90.7451 99.7227V100.723C92.161 100.723 93.3388 101.201 94.2946 102.175L95.0081 101.474ZM90.7451 99.7227C89.075 99.7227 87.6356 100.299 86.4821 101.474L87.1956 102.175C88.1515 101.201 89.3293 100.723 90.7451 100.723V99.7227ZM86.4821 101.474C85.3224 102.655 84.7568 104.194 84.7568 106.004H85.7568C85.7568 104.416 86.2459 103.142 87.1956 102.175L86.4821 101.474ZM84.7568 106.004C84.7568 107.816 85.3239 109.337 86.5048 110.518L87.212 109.811C86.2445 108.843 85.7568 107.59 85.7568 106.004H84.7568ZM86.5016 110.514C87.6506 111.685 89.0684 112.285 90.7451 112.285V111.285C89.3359 111.285 88.1755 110.792 87.2152 109.814L86.5016 110.514ZM116.136 94.6562L116.125 95.1562H116.136V94.6562ZM123.46 97.918L123.028 98.1691L123.812 99.5189L123.958 97.9647L123.46 97.918ZM123.733 95.0078V94.5078H123.278L123.236 94.961L123.733 95.0078ZM130.003 95.0078H130.503V94.5078H130.003V95.0078ZM130.003 117V117.5H130.503V117H130.003ZM123.733 117L123.236 117.046L123.278 117.5H123.733V117ZM123.46 114.07L123.958 114.024L123.803 112.36L123.018 113.836L123.46 114.07ZM116.136 117.332V116.832L116.125 116.832L116.136 117.332ZM105.882 106.004L106.382 106.01L106.382 105.998L105.882 106.004ZM121.878 110.164L122.231 110.518L122.235 110.514L121.878 110.164ZM121.878 101.824L122.235 101.474L122.231 101.471L121.878 101.824ZM116.136 95.1562C119.481 95.1562 121.962 96.3343 123.028 98.1691L123.892 97.6668C122.575 95.4 119.666 94.1562 116.136 94.1562V95.1562ZM123.958 97.9647L124.231 95.0546L123.236 94.961L122.962 97.8712L123.958 97.9647ZM123.733 95.5078H130.003V94.5078H123.733V95.5078ZM129.503 95.0078V117H130.503V95.0078H129.503ZM130.003 116.5H123.733V117.5H130.003V116.5ZM124.231 116.954L123.958 114.024L122.962 114.117L123.236 117.046L124.231 116.954ZM123.018 113.836C121.993 115.765 119.785 116.832 116.136 116.832V117.832C119.947 117.832 122.623 116.711 123.901 114.305L123.018 113.836ZM116.125 116.832C110.805 116.943 106.307 112.372 106.382 106.01L105.382 105.998C105.301 112.839 110.178 117.956 116.146 117.832L116.125 116.832ZM106.382 105.998C106.306 99.6347 110.806 95.0457 116.125 95.1561L116.146 94.1564C110.177 94.0324 105.301 99.17 105.382 106.01L106.382 105.998ZM113.689 110.514C114.839 111.686 116.277 112.285 117.952 112.285V111.285C116.541 111.285 115.362 110.791 114.403 109.814L113.689 110.514ZM117.952 112.285C119.628 112.285 121.063 111.686 122.231 110.518L121.524 109.811C120.544 110.791 119.363 111.285 117.952 111.285V112.285ZM122.235 110.514C123.393 109.334 123.96 107.816 123.96 106.004H122.96C122.96 107.59 122.472 108.845 121.521 109.814L122.235 110.514ZM123.96 106.004C123.96 104.194 123.394 102.655 122.235 101.474L121.521 102.175C122.471 103.142 122.96 104.416 122.96 106.004H123.96ZM122.231 101.471C121.06 100.299 119.623 99.7227 117.952 99.7227V100.723C119.367 100.723 120.547 101.201 121.524 102.178L122.231 101.471ZM117.952 99.7227C116.282 99.7227 114.843 100.299 113.689 101.474L114.403 102.175C115.358 101.201 116.536 100.723 117.952 100.723V99.7227ZM113.689 101.474C112.529 102.655 111.964 104.194 111.964 106.004H112.964C112.964 104.416 113.453 103.142 114.403 102.175L113.689 101.474ZM111.964 106.004C111.964 107.816 112.531 109.334 113.689 110.514L114.403 109.814C113.452 108.845 112.964 107.59 112.964 106.004H111.964ZM143.323 94.6562L143.313 95.1562H143.323V94.6562ZM150.608 97.918L150.174 98.166L151.108 99.8008V97.918H150.608ZM150.608 87V86.5H150.108V87H150.608ZM157.171 87H157.671V86.5H157.171V87ZM157.171 117V117.5H157.671V117H157.171ZM150.921 117L150.424 117.053L150.471 117.5H150.921V117ZM150.608 114.07L151.106 114.017L150.933 112.395L150.167 113.836L150.608 114.07ZM143.323 117.332V116.832L143.313 116.832L143.323 117.332ZM133.069 106.004L133.569 106.01L133.569 105.998L133.069 106.004ZM141.233 110.164L141.59 109.814L141.587 109.811L141.233 110.164ZM143.323 95.1562C146.668 95.1562 149.128 96.3342 150.174 98.166L151.043 97.6699C149.746 95.4002 146.853 94.1562 143.323 94.1562V95.1562ZM151.108 97.918V87H150.108V97.918H151.108ZM150.608 87.5H157.171V86.5H150.608V87.5ZM156.671 87V117H157.671V87H156.671ZM157.171 116.5H150.921V117.5H157.171V116.5ZM151.418 116.947L151.106 114.017L150.111 114.123L150.424 117.053L151.418 116.947ZM150.167 113.836C149.142 115.763 146.782 116.832 143.323 116.832V117.832C146.935 117.832 149.77 116.713 151.05 114.305L150.167 113.836ZM143.313 116.832C137.992 116.943 133.494 112.372 133.569 106.01L132.569 105.998C132.488 112.839 137.365 117.956 143.334 117.832L143.313 116.832ZM133.569 105.998C133.494 99.6347 137.993 95.0457 143.313 95.1561L143.334 94.1564C137.364 94.0324 132.488 99.17 132.569 106.01L133.569 105.998ZM145.12 112.285C146.795 112.285 148.233 111.686 149.383 110.514L148.67 109.814C147.711 110.791 146.531 111.285 145.12 111.285V112.285ZM149.383 110.514C150.542 109.334 151.108 107.816 151.108 106.004H150.108C150.108 107.59 149.62 108.845 148.67 109.814L149.383 110.514ZM151.108 106.004C151.108 104.194 150.543 102.655 149.383 101.474L148.67 102.175C149.619 103.142 150.108 104.416 150.108 106.004H151.108ZM149.383 101.474C148.23 100.299 146.79 99.7227 145.12 99.7227V100.723C146.536 100.723 147.714 101.201 148.67 102.175L149.383 101.474ZM145.12 99.7227C143.45 99.7227 142.011 100.299 140.857 101.474L141.571 102.175C142.526 101.201 143.704 100.723 145.12 100.723V99.7227ZM140.857 101.474C139.697 102.655 139.132 104.194 139.132 106.004H140.132C140.132 104.416 140.621 103.142 141.571 102.175L140.857 101.474ZM139.132 106.004C139.132 107.816 139.699 109.337 140.88 110.518L141.587 109.811C140.619 108.843 140.132 107.59 140.132 106.004H139.132ZM140.877 110.514C142.026 111.685 143.443 112.285 145.12 112.285V111.285C143.711 111.285 142.551 110.792 141.59 109.814L140.877 110.514ZM177.835 97.918L177.403 98.1691L178.187 99.5189L178.333 97.9647L177.835 97.918ZM178.108 95.0078V94.5078H177.653L177.611 94.961L178.108 95.0078ZM184.378 95.0078H184.878V94.5078H184.378V95.0078ZM182.835 120.848L183.249 121.129L183.25 121.126L182.835 120.848ZM178.655 124.246L178.847 124.708L178.852 124.706L178.655 124.246ZM161.937 120.789L161.56 120.46L161.272 120.79L161.561 121.119L161.937 120.789ZM165.042 117.234L165.416 116.902L165.039 116.478L164.665 116.905L165.042 117.234ZM172.171 120.125L172.168 120.625H172.171V120.125ZM176.175 118.758L176.496 119.141L176.5 119.138L176.175 118.758ZM177.835 115.047L178.335 115.053V115.047H177.835ZM177.835 113.387H178.335L177.392 113.155L177.835 113.387ZM170.511 116.434L170.513 115.934H170.511V116.434ZM168.44 109.539L168.791 109.182L168.787 109.179L168.44 109.539ZM168.44 101.766L168.787 102.126L168.791 102.122L168.44 101.766ZM178.333 97.9647L178.606 95.0546L177.611 94.961L177.337 97.8712L178.333 97.9647ZM178.108 95.5078H184.378V94.5078H178.108V95.5078ZM183.878 95.0078V115.34H184.878V95.0078H183.878ZM183.878 115.34C183.878 117.386 183.391 119.121 182.42 120.569L183.25 121.126C184.349 119.488 184.878 117.551 184.878 115.34H183.878ZM182.421 120.567C181.443 122.007 180.114 123.08 178.459 123.786L178.852 124.706C180.673 123.928 182.157 122.735 183.249 121.129L182.421 120.567ZM178.463 123.784C176.795 124.478 174.87 124.84 172.679 124.84V125.84C174.98 125.84 177.039 125.46 178.847 124.708L178.463 123.784ZM172.679 124.84C168.293 124.84 164.862 123.366 162.312 120.459L161.561 121.119C164.323 124.267 168.041 125.84 172.679 125.84V124.84ZM162.313 121.118L165.419 117.563L164.665 116.905L161.56 120.46L162.313 121.118ZM164.668 117.566C166.48 119.608 169.01 120.605 172.168 120.625L172.174 119.625C169.238 119.606 167.002 118.689 165.416 116.902L164.668 117.566ZM172.171 120.625C173.855 120.625 175.301 120.144 176.496 119.141L175.853 118.375C174.861 119.208 173.651 119.625 172.171 119.625V120.625ZM176.5 119.138C177.692 118.119 178.314 116.728 178.335 115.053L177.335 115.041C177.317 116.452 176.806 117.561 175.85 118.378L176.5 119.138ZM178.335 115.047V113.387H177.335V115.047H178.335ZM177.392 113.155C176.451 114.951 174.263 115.953 170.513 115.934L170.508 116.934C174.375 116.953 177.07 115.924 178.278 113.619L177.392 113.155ZM170.511 115.934C165.058 115.934 160.757 111.757 160.757 105.652H159.757C159.757 112.282 164.479 116.934 170.511 116.934V115.934ZM160.757 105.652C160.757 102.604 161.712 100.113 163.589 98.1245L162.862 97.438C160.794 99.6293 159.757 102.373 159.757 105.652H160.757ZM163.589 98.1245C165.466 96.1359 167.756 95.1562 170.511 95.1562V94.1562C167.484 94.1562 164.93 95.247 162.862 97.438L163.589 98.1245ZM170.511 95.1562C173.856 95.1562 176.337 96.3343 177.403 98.1691L178.267 97.6668C176.95 95.4 174.041 94.1562 170.511 94.1562V95.1562ZM168.09 109.896C169.241 111.025 170.656 111.602 172.327 111.602V110.602C170.912 110.602 169.75 110.123 168.791 109.182L168.09 109.896ZM172.327 111.602C173.999 111.602 175.412 111.025 176.58 109.899L175.886 109.179C174.906 110.124 173.741 110.602 172.327 110.602V111.602ZM176.58 109.899C177.759 108.763 178.335 107.322 178.335 105.652H177.335C177.335 107.069 176.856 108.245 175.886 109.179L176.58 109.899ZM178.335 105.652C178.335 103.981 177.758 102.56 176.58 101.425L175.886 102.145C176.858 103.081 177.335 104.238 177.335 105.652H178.335ZM176.58 101.425C175.412 100.3 173.999 99.7227 172.327 99.7227V100.723C173.741 100.723 174.906 101.2 175.886 102.145L176.58 101.425ZM172.327 99.7227C170.661 99.7227 169.244 100.277 168.09 101.409L168.791 102.122C169.746 101.184 170.907 100.723 172.327 100.723V99.7227ZM168.093 101.406C166.915 102.541 166.339 103.983 166.339 105.652H167.339C167.339 104.236 167.818 103.06 168.787 102.126L168.093 101.406ZM166.339 105.652C166.339 107.342 166.915 108.764 168.093 109.899L168.787 109.179C167.817 108.244 167.339 107.088 167.339 105.652H166.339ZM197.698 94.6562L197.688 95.1562H197.698V94.6562ZM205.022 97.918L204.59 98.1691L205.374 99.5189L205.52 97.9647L205.022 97.918ZM205.296 95.0078V94.5078H204.841L204.798 94.961L205.296 95.0078ZM211.565 95.0078H212.065V94.5078H211.565V95.0078ZM211.565 117V117.5H212.065V117H211.565ZM205.296 117L204.798 117.046L204.84 117.5H205.296V117ZM205.022 114.07L205.52 114.024L205.365 112.36L204.581 113.836L205.022 114.07ZM197.698 117.332V116.832L197.688 116.832L197.698 117.332ZM187.444 106.004L187.944 106.01L187.944 105.998L187.444 106.004ZM203.44 110.164L203.794 110.518L203.797 110.514L203.44 110.164ZM203.44 101.824L203.797 101.474L203.794 101.471L203.44 101.824ZM197.698 95.1562C201.043 95.1562 203.524 96.3343 204.59 98.1691L205.455 97.6668C204.138 95.4 201.228 94.1562 197.698 94.1562V95.1562ZM205.52 97.9647L205.794 95.0546L204.798 94.961L204.525 97.8712L205.52 97.9647ZM205.296 95.5078H211.565V94.5078H205.296V95.5078ZM211.065 95.0078V117H212.065V95.0078H211.065ZM211.565 116.5H205.296V117.5H211.565V116.5ZM205.794 116.954L205.52 114.024L204.525 114.117L204.798 117.046L205.794 116.954ZM204.581 113.836C203.555 115.765 201.348 116.832 197.698 116.832V117.832C201.51 117.832 204.185 116.711 205.464 114.305L204.581 113.836ZM197.688 116.832C192.367 116.943 187.869 112.372 187.944 106.01L186.944 105.998C186.863 112.839 191.74 117.956 197.709 117.832L197.688 116.832ZM187.944 105.998C187.869 99.6347 192.368 95.0457 197.688 95.1561L197.709 94.1564C191.739 94.0324 186.863 99.17 186.944 106.01L187.944 105.998ZM195.252 110.514C196.402 111.686 197.84 112.285 199.515 112.285V111.285C198.103 111.285 196.924 110.791 195.965 109.814L195.252 110.514ZM199.515 112.285C201.19 112.285 202.626 111.686 203.794 110.518L203.087 109.811C202.106 110.791 200.925 111.285 199.515 111.285V112.285ZM203.797 110.514C204.956 109.334 205.522 107.816 205.522 106.004H204.522C204.522 107.59 204.034 108.845 203.084 109.814L203.797 110.514ZM205.522 106.004C205.522 104.194 204.957 102.655 203.797 101.474L203.084 102.175C204.033 103.142 204.522 104.416 204.522 106.004H205.522ZM203.794 101.471C202.623 100.299 201.186 99.7227 199.515 99.7227V100.723C200.93 100.723 202.11 101.201 203.087 102.178L203.794 101.471ZM199.515 99.7227C197.845 99.7227 196.405 100.299 195.252 101.474L195.965 102.175C196.921 101.201 198.099 100.723 199.515 100.723V99.7227ZM195.252 101.474C194.092 102.655 193.526 104.194 193.526 106.004H194.526C194.526 104.416 195.015 103.142 195.965 102.175L195.252 101.474ZM193.526 106.004C193.526 107.816 194.093 109.334 195.252 110.514L195.965 109.814C195.014 108.845 194.526 107.59 194.526 106.004H193.526ZM215.687 117H215.187V117.5H215.687V117ZM215.687 95.0078V94.5078H215.187V95.0078H215.687ZM221.956 95.0078L222.453 94.9518L222.403 94.5078H221.956V95.0078ZM222.249 97.6055L221.752 97.6615L221.898 98.9585L222.656 97.8957L222.249 97.6055ZM229.515 94.6562H230.015V94.1562H229.515V94.6562ZM229.515 100.223V100.723H230.015V100.223H229.515ZM222.249 117V117.5H222.749V117H222.249ZM216.187 117V95.0078H215.187V117H216.187ZM215.687 95.5078H221.956V94.5078H215.687V95.5078ZM221.459 95.0638L221.752 97.6615L222.746 97.5494L222.453 94.9518L221.459 95.0638ZM222.656 97.8957C224.029 95.9703 226.025 95.1562 229.515 95.1562V94.1562C225.856 94.1562 223.477 95.0219 221.842 97.3152L222.656 97.8957ZM229.015 94.6562V100.223H230.015V94.6562H229.015ZM229.515 99.7227C227.065 99.7227 225.12 100.279 223.779 101.371C222.423 102.474 221.749 104.073 221.749 106.004H222.749C222.749 104.322 223.325 103.029 224.41 102.146C225.511 101.25 227.199 100.723 229.515 100.723V99.7227ZM221.749 106.004V117H222.749V106.004H221.749ZM222.249 116.5H215.687V117.5H222.249V116.5Z" fill="black"/>
<g clip-path="url(#clip1_7_278)">
<path d="M117.551 17.6754C113.951 18.2485 110.722 20.5946 109.081 23.8541C108.269 25.4659 107.934 26.8807 107.81 29.2805C107.687 31.6804 107.898 32.8086 108.64 33.5966C109.063 34.0623 109.169 34.3667 109.328 35.7636C109.663 38.5933 110.545 40.5633 112.363 42.5512L113.404 43.6795V45.0227C113.404 46.0435 113.333 46.4554 113.104 46.7419C112.928 46.9389 110.969 47.9239 108.728 48.9268C104.087 51.0043 103.011 51.6669 102.093 53.028C100.77 54.9801 100.805 54.6936 100.734 65.2062C100.699 71.5281 100.734 74.8234 100.858 75.2532C101.193 76.3636 102.64 76.5964 103.152 75.6114C103.275 75.3786 103.346 72.1908 103.346 66.03C103.346 60.9439 103.416 56.7889 103.487 56.7889C103.699 56.7889 107.14 60.3887 107.422 60.908C107.616 61.2662 107.687 62.8422 107.757 68.394L107.846 75.4502L108.357 75.898C108.904 76.3815 109.522 76.3457 110.104 75.8263C110.387 75.5577 110.404 74.9667 110.404 68.412C110.404 59.4216 110.634 60.2454 107.175 56.6636C104.722 54.1205 104.687 54.0847 105.04 53.7444C105.357 53.4041 113.104 49.8044 113.492 49.8044C113.58 49.8044 114.886 51.0401 116.351 52.5266L119.033 55.2667L119.086 65.3495L119.139 75.4502L119.633 75.8801C119.898 76.1129 120.286 76.3099 120.462 76.3099C120.639 76.3099 121.027 76.1129 121.292 75.8801L121.786 75.4502L121.839 65.3495L121.892 55.2667L124.574 52.5266C126.038 51.0401 127.344 49.8044 127.432 49.8044C127.821 49.8044 135.567 53.4041 135.885 53.7444C136.238 54.0847 136.202 54.1205 133.75 56.6636C130.291 60.2454 130.52 59.4216 130.52 68.412C130.52 74.9667 130.538 75.5577 130.838 75.8263C131.403 76.3457 132.02 76.3815 132.567 75.898L133.079 75.4502L133.167 68.394C133.238 62.8422 133.308 61.2662 133.503 60.908C133.785 60.3887 137.226 56.7889 137.438 56.7889C137.508 56.7889 137.579 60.9439 137.579 66.03C137.579 72.1908 137.649 75.3786 137.773 75.6114C138.285 76.5964 139.732 76.3636 140.067 75.2532C140.19 74.8234 140.226 71.5281 140.19 65.2062C140.12 54.6936 140.155 54.9801 138.832 53.028C137.914 51.6669 136.838 51.0043 132.197 48.9268C129.973 47.9239 127.997 46.9389 127.838 46.7419C127.591 46.4554 127.521 46.0435 127.521 45.0227V43.6795L128.632 42.4617C129.868 41.1006 130.891 39.238 131.315 37.5366C131.473 36.9456 131.632 35.3696 131.703 34.0444C131.791 31.9669 131.862 31.5908 132.144 31.3938C132.779 30.9282 133.061 30.0865 133.044 28.6716C132.973 24.5705 130.538 20.6842 126.885 18.8395C124.962 17.8724 124.133 17.7113 120.992 17.6575C119.386 17.6217 117.851 17.6396 117.551 17.6754ZM124.591 20.7737C127.909 21.9736 129.973 24.6958 130.432 28.4209L130.556 29.3522L129.003 29.5671C127.15 29.8357 123.444 29.7104 122.121 29.3343C120.656 28.9224 119.033 28.0985 117.815 27.1673C117.092 26.6121 116.492 26.2897 116.192 26.2897C115.486 26.2897 114.992 26.8091 114.992 27.5613C114.992 28.0985 115.133 28.3314 115.892 29.0477C116.951 30.0327 119.474 31.358 121.345 31.9132C122.403 32.2176 123.286 32.3072 125.844 32.3788L129.021 32.4505L129.003 34.313C128.95 37.1785 128.226 39.0589 126.462 40.8498C124.75 42.587 122.897 43.3571 120.462 43.3571C118.027 43.3571 116.174 42.587 114.463 40.8498C112.98 39.3455 112.151 37.5366 111.904 35.2443C111.798 34.2235 111.798 34.2235 112.363 33.9011C112.663 33.7399 113.298 33.2922 113.775 32.9161C114.516 32.343 114.639 32.1639 114.639 31.6266C114.639 30.8566 114.127 30.2835 113.457 30.2835C113.175 30.2835 112.504 30.5879 111.922 30.9998C110.334 32.0923 110.334 32.0923 110.457 29.6029C110.51 28.4567 110.687 27.0598 110.845 26.5225C111.639 23.8541 113.88 21.5617 116.492 20.7379C117.868 20.2902 118.08 20.2723 120.903 20.3439C123.056 20.3797 123.744 20.4514 124.591 20.7737ZM117.498 45.6853C118.362 45.936 119.315 46.0435 120.462 46.0435C121.609 46.0435 122.562 45.936 123.427 45.6853C124.115 45.4883 124.733 45.3271 124.786 45.3271C124.838 45.3271 124.874 45.6316 124.874 46.0256C124.874 46.4017 124.98 46.9927 125.121 47.3329L125.386 47.9418L122.915 50.4491L120.462 52.9385L118.01 50.4491L115.539 47.9418L115.804 47.3329C115.945 46.9927 116.051 46.4017 116.051 46.0256C116.051 45.6316 116.086 45.3271 116.139 45.3271C116.192 45.3271 116.81 45.4883 117.498 45.6853Z" fill="#02D1AC"/>
<path d="M88.2234 24.9107C86.547 25.2689 85.0824 26.4688 84.306 28.1344C83.9354 28.9403 83.8472 29.4059 83.8472 30.6416L83.8296 32.1639L82.5061 33.5071C80.2122 35.8532 79.524 37.8053 79.524 41.9244C79.524 46.0256 80.2122 47.9956 82.4708 50.3238L83.759 51.6311V53.2788C83.759 54.4787 83.6884 55.0339 83.4766 55.3204C83.3355 55.5353 81.9591 56.3591 80.4416 57.1471C77.3535 58.7231 76.5595 59.3858 75.836 60.908L75.3772 61.8931L75.3243 68.4299C75.289 72.0296 75.3243 75.1458 75.3772 75.3607C75.4301 75.5935 75.7125 75.898 76.0125 76.0592C76.4712 76.292 76.6477 76.292 77.0712 76.1129C77.3712 76.0054 77.6712 75.7547 77.7594 75.5756C77.8653 75.3965 77.9358 72.8713 77.9358 69.5582V63.881L79.1887 65.1167C79.8769 65.8151 80.5474 66.6211 80.6886 66.9434C80.8827 67.3732 80.9356 68.4657 80.9356 71.2774C80.9356 73.6952 81.0062 75.1995 81.1297 75.4861C81.5356 76.3994 82.9473 76.4711 83.3884 75.6114C83.5119 75.3965 83.5825 73.731 83.5825 71.2237C83.5825 65.9226 83.5649 65.8868 80.8827 63.093C79.7004 61.8931 78.9946 61.0155 79.1005 60.926C79.1887 60.8543 80.5121 60.138 82.0297 59.35L84.8001 57.9172L86.3882 59.547L87.994 61.1767V68.1075C87.994 72.8713 88.0646 75.1816 88.1881 75.4861C88.5939 76.3994 90.0056 76.4711 90.4467 75.6114C90.5703 75.3786 90.6408 72.8355 90.6408 68.215V61.1767L92.2466 59.547L93.8524 57.8993L95.1582 58.5261C96.3405 59.0992 96.4816 59.135 96.9404 58.9022C97.2051 58.7769 97.5051 58.4545 97.5933 58.2038C97.8756 57.362 97.611 56.8964 96.4287 56.2338C95.8287 55.8935 95.2288 55.4279 95.1052 55.1771C94.9817 54.9264 94.8758 54.0847 94.8758 53.225V51.7386L96.0934 50.5208C96.9757 49.6253 97.5227 48.8731 98.0168 47.8523C99.005 45.8465 99.1638 44.9331 99.0756 41.3155C99.005 38.4321 98.9697 38.1814 98.4932 36.9457C97.8756 35.3876 96.5522 33.5429 95.4935 32.7728L94.7347 32.2176L94.8229 30.9103C94.9464 29.2985 94.5935 28.1344 93.6406 26.8986C92.4584 25.3764 90.1115 24.5167 88.2234 24.9107ZM90.9055 27.9553C91.5937 28.3851 92.229 29.5313 92.229 30.3372V30.964L91.5055 30.8028C90.5173 30.57 89.0351 30.5342 87.6058 30.7133L86.4058 30.8566V30.373C86.4058 29.2985 87.4117 27.9374 88.4528 27.5971C89.141 27.3822 90.235 27.5434 90.9055 27.9553ZM91.3467 33.5429C92.2113 33.8116 93.4642 34.4921 94.0288 34.9936C95.4229 36.3009 96.464 38.5037 96.464 40.223C96.464 41.0827 96.4287 41.1006 94.6465 41.3155C92.529 41.5662 89.9174 40.5633 88.1175 38.7903C86.8117 37.5008 86.3 37.465 84.9765 38.6112C84.0766 39.3813 82.365 40.3842 82.2061 40.2409C82.1708 40.1872 82.2238 39.7216 82.3473 39.1664C83.212 34.9219 87.3587 32.343 91.3467 33.5429ZM87.4646 41.7632C89.3351 43.178 91.0291 43.8228 93.376 44.0018C94.1524 44.0556 95.1405 44.0198 95.5817 43.9302C96.0052 43.8228 96.3934 43.769 96.4463 43.8228C96.6051 43.966 96.0758 45.8823 95.6523 46.7061C94.3994 49.1059 92.0172 50.5387 89.3174 50.5387C85.6294 50.5208 82.7355 47.8523 82.2591 44.0556L82.1356 43.0706L83.0884 42.7661C83.6178 42.6049 84.553 42.1393 85.1706 41.7632C85.8059 41.3692 86.3529 41.0468 86.4058 41.0289C86.4588 41.0289 86.9352 41.3513 87.4646 41.7632ZM88.2587 53.1892C89.3351 53.2967 91.1349 53.1892 91.8055 52.9564C92.1584 52.8489 92.1937 52.9206 92.2819 54.228L92.3701 55.6249L90.8879 57.1471L89.4056 58.6694L87.8705 57.1113L86.3176 55.5353L86.3706 54.1921C86.4235 52.8848 86.4588 52.831 86.8117 52.9564C87.0235 53.028 87.6763 53.1355 88.2587 53.1892Z" fill="#02D1AC"/>
<path d="M146.137 27.7762C142.767 28.3493 140.084 30.7849 139.273 33.9727C138.955 35.2264 138.885 39.238 139.167 39.7753C139.255 39.9544 139.573 40.1872 139.873 40.2768C140.402 40.4738 140.402 40.4917 140.402 41.7811C140.42 44.0914 141.073 45.9002 142.502 47.512L143.261 48.3717L143.19 49.6253C143.137 50.8073 143.102 50.879 142.378 51.5595C141.496 52.3833 141.408 52.9922 142.078 53.6549C142.573 54.1742 142.925 54.21 143.649 53.834L144.178 53.5474L145.819 55.213L147.46 56.8785V66.0659C147.46 72.2087 147.531 75.3786 147.655 75.6114C148.096 76.4711 149.507 76.3994 149.913 75.4861C150.054 75.1637 150.107 72.3341 150.107 65.9584V56.8785L151.695 55.2667L153.301 53.637L157.148 55.607L161.012 57.577L159.671 59.0276C158.948 59.8156 158.154 60.8901 157.889 61.4453L157.43 62.4303L157.377 68.8239C157.342 73.2295 157.395 75.3428 157.519 75.5935C157.977 76.4711 159.371 76.3994 159.795 75.4861C159.918 75.1816 159.989 73.14 159.989 69.1283C159.989 64.472 160.042 63.1109 160.236 62.6452C160.377 62.3229 161.048 61.517 161.736 60.8185L162.989 59.5828V67.4091C162.989 72.1012 163.059 75.3965 163.165 75.5756C163.253 75.7547 163.553 76.0054 163.853 76.1129C164.277 76.292 164.453 76.292 164.912 76.0592C165.212 75.898 165.494 75.5935 165.547 75.3607C165.6 75.1458 165.636 71.3312 165.6 66.9076L165.547 58.8485L165.071 57.953C164.224 56.3233 163.553 55.8219 159.071 53.5474C156.672 52.3296 154.783 51.255 154.625 51.0222C154.431 50.7536 154.342 50.2342 154.342 49.482C154.342 48.4075 154.378 48.3 155.048 47.512C156.389 45.9719 157.166 43.769 157.166 41.4767C157.166 40.4379 157.201 40.3126 157.501 40.3126C157.695 40.3126 158.013 40.0977 158.224 39.8111C158.595 39.3455 158.613 39.2022 158.524 36.9098C158.471 35.4771 158.313 34.1339 158.154 33.6146C157.36 31.1073 155.313 28.994 152.789 28.1165C151.642 27.7046 147.672 27.5076 146.137 27.7762ZM152.666 30.9819C154.642 31.9848 155.719 33.7041 155.877 36.2114L155.983 37.6262H155.454C153.619 37.6262 149.843 36.6233 147.478 35.495C145.802 34.6891 145.608 34.707 144.425 35.7278C144.055 36.0681 143.261 36.5875 142.696 36.8919L141.637 37.465V36.3009C141.637 33.4355 143.525 31.0536 146.26 30.4626C146.684 30.373 148.043 30.3193 149.278 30.3551C151.395 30.4088 151.607 30.4626 152.666 30.9819ZM150.901 39.5604C151.784 39.7753 152.931 40.0081 153.46 40.0798L154.431 40.223L154.413 41.7632C154.413 42.9989 154.325 43.4646 153.954 44.2884C153.019 46.3479 150.99 47.6911 148.784 47.6732C146.966 47.6553 145.519 46.9927 144.39 45.6495C143.42 44.5033 143.049 43.3034 143.049 41.2976V39.632L143.631 39.435C143.931 39.3097 144.619 38.9336 145.149 38.5575L146.102 37.8769L147.707 38.5217C148.59 38.8798 150.037 39.3455 150.901 39.5604ZM147.813 50.3238C148.766 50.4312 150.019 50.3417 151.095 50.073C151.625 49.9477 151.66 49.9656 151.731 50.5924C151.801 51.1834 151.713 51.3267 150.248 52.7952L148.696 54.3712L147.178 52.8131C145.678 51.3088 145.661 51.255 145.766 50.6103C145.89 50.0014 145.925 49.9656 146.366 50.073C146.631 50.1447 147.284 50.2521 147.813 50.3238Z" fill="#02D1AC"/>
</g>
</g>
<defs>
<clipPath id="clip0_7_278">
<rect width="242" height="143" fill="white"/>
</clipPath>
<clipPath id="clip1_7_278">
<rect width="90.3467" height="91.6947" fill="white" transform="translate(75.2889 1.09161)"/>
</clipPath>
</defs>
</svg>
