<svg width="64" height="64" viewBox="0 0 64 64" fill="none" xmlns="http://www.w3.org/2000/svg">
    <rect width="64" height="64" rx="12" fill="white"/>
    <path d="M28.4099 19.4103H21.8647C20.5093 19.4103 19.4103 20.5097 19.4103 21.8655V28.4107C19.4103 29.7658 20.5092 30.8644 21.8647 30.8644H28.4099C29.7654 30.8644 30.8644 29.7658 30.8644 28.4107V21.8655C30.8644 20.5097 29.7654 19.4103 28.4099 19.4103ZM29.2281 27.4751C29.2281 28.4435 28.4431 29.2289 27.4747 29.2289H22.7999C21.8316 29.2289 21.0466 28.4435 21.0466 27.4751V22.8003C21.0466 21.832 21.8316 21.0466 22.7999 21.0466H27.4747C28.4431 21.0466 29.2281 21.832 29.2281 22.8003V27.4751Z"
          fill="#726F6F"/>
    <path d="M41.5003 19.4103H34.9552C33.5997 19.4103 32.5007 20.5097 32.5007 21.8655V28.4107C32.5007 29.7658 33.5997 30.8644 34.9552 30.8644H41.5003C42.8558 30.8644 43.9548 29.7658 43.9548 28.4107V21.8655C43.9548 20.5097 42.8558 19.4103 41.5003 19.4103ZM42.3185 27.4751C42.3185 28.4435 41.5335 29.2289 40.5652 29.2289H35.89C34.922 29.2289 34.137 28.4435 34.137 27.4751V22.8003C34.137 21.832 34.9221 21.0466 35.89 21.0466H40.5652C41.5335 21.0466 42.3185 21.832 42.3185 22.8003V27.4751Z"
          fill="#726F6F"/>
    <path d="M28.4099 32.5016H21.8647C20.5093 32.5016 19.4103 33.6002 19.4103 34.956V41.5004C19.4103 42.8562 20.5092 43.9548 21.8647 43.9548H28.4099C29.7654 43.9548 30.8644 42.8562 30.8644 41.5004V34.956C30.8644 33.6002 29.7654 32.5016 28.4099 32.5016ZM29.2281 40.5656C29.2281 41.5339 28.4431 42.3185 27.4747 42.3185H22.7999C21.8316 42.3185 21.0466 41.5339 21.0466 40.5656V35.8908C21.0466 34.9225 21.8316 34.1379 22.7999 34.1379H27.4747C28.4431 34.1379 29.2281 34.9225 29.2281 35.8908V40.5656Z"
          fill="#726F6F"/>
    <path d="M38.2277 32.5016C35.0646 32.5016 32.5007 35.0655 32.5007 38.2278C32.5007 41.3909 35.0646 43.9548 38.2277 43.9548C41.3909 43.9548 43.9548 41.3909 43.9548 38.2278C43.9548 35.0655 41.3909 32.5016 38.2277 32.5016ZM38.2277 42.3185C35.9683 42.3185 34.137 40.4873 34.137 38.2278C34.137 35.9691 35.9683 34.1378 38.2277 34.1378C40.4869 34.1378 42.3185 35.9691 42.3185 38.2278C42.3185 40.4873 40.4869 42.3185 38.2277 42.3185Z"
          fill="#726F6F"/>
    <path d="M42.9445 41.7433L45.3491 44.1474C45.681 44.479 45.681 45.0175 45.3491 45.3491C45.017 45.6814 44.479 45.6814 44.1466 45.3491L41.7425 42.9449C41.4105 42.6134 41.4105 42.0749 41.7425 41.7433C42.0745 41.4109 42.6126 41.4109 42.9445 41.7433Z"
          fill="#726F6F"/>
</svg>
