<svg width="64" height="64" viewBox="0 0 64 64" fill="none" xmlns="http://www.w3.org/2000/svg">
    <rect width="64" height="64" rx="12" fill="white"/>
    <path d="M42.4286 31H33.8571V22.4286C33.8571 21.6396 33.2176 21 32.4286 21C31.6396 21 31 21.6396 31 22.4286V31H22.4286C21.6396 31 21 31.6396 21 32.4286C21 33.2175 21.6396 33.8571 22.4286 33.8571H31V42.4286C31 43.2176 31.6396 43.8571 32.4286 43.8571C33.2176 43.8571 33.8571 43.2176 33.8571 42.4286V33.8571H42.4286C43.2176 33.8571 43.8571 33.2175 43.8571 32.4286C43.8571 31.6396 43.2176 31 42.4286 31Z"
          fill="#726F6F"/>
</svg>
