<svg width="64" height="64" viewBox="0 0 64 64" fill="none" xmlns="http://www.w3.org/2000/svg">
<rect width="64" height="64" rx="12" fill="#F5F6F9"/>
<path d="M29.6731 43.3462C31.2326 43.3462 32.7468 43.0298 34.1367 42.4422C33.6056 41.8659 33.1988 41.1879 32.905 40.4647C31.8993 40.8376 30.8144 41.0523 29.6731 41.0523C24.475 41.0523 20.3052 36.8712 20.3052 31.6731C20.3052 26.475 24.4637 22.3052 29.6618 22.3052C34.3627 22.3052 38.2387 25.7405 38.9167 30.2493C39.6173 30.1363 40.5439 30.1702 41.2559 30.351C40.5891 24.5653 35.6058 20 29.6618 20C23.2659 20 18 25.2885 18 31.6731C18 38.0691 23.2772 43.3462 29.6731 43.3462ZM23.9552 33.0744H29.6618C30.1703 33.0744 30.5545 32.6789 30.5545 32.1816V24.7687C30.5545 24.2715 30.1703 23.876 29.6618 23.876C29.1646 23.876 28.7691 24.2715 28.7691 24.7687V31.2889H23.9552C23.4467 31.2889 23.0625 31.6731 23.0625 32.1816C23.0625 32.6789 23.4467 33.0744 23.9552 33.0744ZM39.6964 43.4027C42.8605 43.4027 45.516 40.7585 45.516 37.5831C45.516 34.3965 42.8831 31.7748 39.6964 31.7748C36.5097 31.7748 33.8768 34.3965 33.8768 37.5831C33.8768 40.7811 36.5097 43.4027 39.6964 43.4027ZM39.0184 41.0184C38.8037 41.0184 38.5438 40.928 38.3743 40.7472L36.2498 38.4194C36.1368 38.3064 36.0577 38.0804 36.0577 37.8882C36.0577 37.4023 36.4307 37.0859 36.8601 37.0859C37.12 37.0859 37.3234 37.1876 37.4703 37.3458L38.9732 38.9957L41.8548 34.9841C42.013 34.7807 42.2503 34.6338 42.5328 34.6338C42.9735 34.6338 43.3464 34.9841 43.3464 35.4361C43.3464 35.5717 43.2899 35.7525 43.1769 35.8994L39.6851 40.7133C39.5495 40.8941 39.2896 41.0184 39.0184 41.0184Z" fill="#726F6F"/>
</svg>
